<svg xmlns="http://www.w3.org/2000/svg" xmlns:xlink="http://www.w3.org/1999/xlink" viewBox="0 0 818.18 503.64"><defs><style>.cls-1{fill:none;}.cls-2{isolation:isolate;}.cls-3,.cls-37,.cls-38{fill:#fff;}.cls-4{fill:#f2f2f2;}.cls-5{fill:#0062ff;}.cls-10,.cls-15,.cls-22,.cls-29,.cls-32,.cls-39,.cls-44,.cls-47,.cls-49,.cls-51,.cls-55,.cls-57,.cls-6{mix-blend-mode:multiply;}.cls-6{fill:url(#radial-gradient);}.cls-7{clip-path:url(#clip-path);}.cls-8{fill:#84d1c9;}.cls-9{fill:#bf8858;}.cls-10{fill:#deb4a0;}.cls-11{fill:#0c6a93;}.cls-12{fill:#e6e7e8;}.cls-13{fill:#3c2417;}.cls-14{fill:#d6d6d6;}.cls-15{fill:url(#radial-gradient-2);}.cls-16{clip-path:url(#clip-path-2);}.cls-17{fill:#ff7a7d;}.cls-18{fill:#3c2415;}.cls-19{fill:#f2ae75;}.cls-20{fill:#1a1718;}.cls-21{fill:#32303a;}.cls-22{fill:url(#radial-gradient-3);}.cls-23{clip-path:url(#clip-path-3);}.cls-24{fill:#a3d167;}.cls-25,.cls-32,.cls-55{fill:#f6ccb8;}.cls-26{fill:#4f4c4d;}.cls-27,.cls-47{fill:#f7cdb9;}.cls-28{fill:#4f3c30;}.cls-29{fill:url(#radial-gradient-4);}.cls-30{clip-path:url(#clip-path-4);}.cls-31{fill:#c0b2da;}.cls-33{fill:#42404d;}.cls-34{fill:#2d1b10;}.cls-35{fill:#686671;}.cls-36{fill:#adadae;}.cls-37{opacity:0.5;}.cls-38{opacity:0.2;}.cls-39{fill:url(#radial-gradient-5);}.cls-40{clip-path:url(#clip-path-5);}.cls-41{fill:#f4b350;}.cls-42{fill:#96281b;}.cls-43{fill:#ffc599;}.cls-44{fill:url(#radial-gradient-6);}.cls-45{clip-path:url(#clip-path-6);}.cls-46{fill:#7fa1cc;}.cls-48{fill:#f05d44;}.cls-49{fill:#c8c8c8;}.cls-50{fill:#383643;}.cls-51{fill:url(#radial-gradient-7);}.cls-52{clip-path:url(#clip-path-7);}.cls-53{fill:#7cccec;}.cls-54{fill:#43414d;}.cls-55{opacity:0.8;}.cls-56{fill:#bddfdf;}.cls-57{fill:url(#radial-gradient-8);}.cls-58{clip-path:url(#clip-path-8);}.cls-59{fill:#f68cb2;}.cls-60{fill:#e1e1e1;}</style><radialGradient id="radial-gradient" cx="129.39" cy="163.47" r="45.74" gradientTransform="translate(7.25 10.45) scale(0.96)" gradientUnits="userSpaceOnUse"><stop offset="0" stop-color="#adadae"/><stop offset="0.4" stop-color="#aeaeaf" stop-opacity="0.99"/><stop offset="0.55" stop-color="#b1b1b2" stop-opacity="0.95"/><stop offset="0.65" stop-color="#b7b7b8" stop-opacity="0.88"/><stop offset="0.73" stop-color="#bfbfbf" stop-opacity="0.79"/><stop offset="0.81" stop-color="#c9c9ca" stop-opacity="0.66"/><stop offset="0.87" stop-color="#d6d6d6" stop-opacity="0.5"/><stop offset="0.93" stop-color="#e5e5e5" stop-opacity="0.32"/><stop offset="0.98" stop-color="#f6f6f6" stop-opacity="0.11"/><stop offset="1" stop-color="#fff" stop-opacity="0"/></radialGradient><clipPath id="clip-path"><path class="cls-1" d="M158,130.29a30.53,30.53,0,1,0-52.67,0,39.2,39.2,0,1,0,52.67,0Z"/></clipPath><radialGradient id="radial-gradient-2" cx="317.05" cy="163.55" r="45.74" xlink:href="#radial-gradient"/><clipPath id="clip-path-2"><path class="cls-1" d="M338.58,130.35a30.53,30.53,0,1,0-52.66,0,39.19,39.19,0,1,0,52.66,0Z"/></clipPath><radialGradient id="radial-gradient-3" cx="504.44" cy="163.97" r="45.74" xlink:href="#radial-gradient"/><clipPath id="clip-path-3"><path class="cls-1" d="M518.86,130.29a30.53,30.53,0,1,0-52.67,0,39.2,39.2,0,1,0,52.67,0Z"/></clipPath><radialGradient id="radial-gradient-4" cx="691.84" cy="159.31" r="45.74" xlink:href="#radial-gradient"/><clipPath id="clip-path-4"><path class="cls-1" d="M699.13,126.35a30.53,30.53,0,1,0-52.66,0,39.19,39.19,0,1,0,52.66,0Z"/></clipPath><radialGradient id="radial-gradient-5" cx="689.38" cy="353.48" r="44.1" xlink:href="#radial-gradient"/><clipPath id="clip-path-5"><path class="cls-1" d="M695.82,314a29.44,29.44,0,1,0-50.77,0,37.79,37.79,0,1,0,50.77,0Z"/></clipPath><radialGradient id="radial-gradient-6" cx="316.23" cy="360.34" r="44.1" xlink:href="#radial-gradient"/><clipPath id="clip-path-6"><path class="cls-1" d="M336.85,321.07a29.43,29.43,0,1,0-50.78,0,37.79,37.79,0,1,0,50.78,0Z"/></clipPath><radialGradient id="radial-gradient-7" cx="129.22" cy="361.37" r="44.1" xlink:href="#radial-gradient"/><clipPath id="clip-path-7"><path class="cls-1" d="M157,322.07a29.44,29.44,0,1,0-50.78,0,37.78,37.78,0,1,0,50.78,0Z"/></clipPath><radialGradient id="radial-gradient-8" cx="502.81" cy="360.32" r="44.1" xlink:href="#radial-gradient"/><clipPath id="clip-path-8"><path class="cls-1" d="M516.34,321.06a29.44,29.44,0,1,0-50.78,0,37.79,37.79,0,1,0,50.78,0Z"/></clipPath></defs><g class="cls-2"><g id="Layer_2" data-name="Layer 2"><g id="Layer_1-2" data-name="Layer 1"><rect class="cls-3" width="818.18" height="503.64" rx="32.73"/><rect class="cls-4" width="818.18" height="503.64" rx="32.73"/><path class="cls-5" d="M818.18,36.35V32.73A32.83,32.83,0,0,0,785.45,0H32.73A32.83,32.83,0,0,0,0,32.73v3.62Z"/><rect class="cls-3" x="80.3" y="99.96" width="103.36" height="153.76" rx="12"/><g id="man"><circle id="shadow" class="cls-6" cx="131.73" cy="167.71" r="44"/><g class="cls-7"><circle class="cls-8" cx="131.71" cy="159.32" r="39.19"/><g id="man-2" data-name="man"><polygon class="cls-9" points="138.33 157.66 136.63 156.87 136.63 151.48 125.74 151.48 125.74 156.87 124.04 157.61 124.49 172.91 125.74 172.91 125.74 175.25 136.63 175.25 136.63 172.91 137.88 172.91 138.33 157.66"/><polygon class="cls-10" points="136.63 152.03 136.63 156.41 125.74 154.13 125.74 152.03 136.63 152.03"/><path class="cls-3" d="M154.38,165.84c-2-4.35-7.6-5.43-15.63-8.19l-.87-.31a.09.09,0,0,0,0,0c-.53,3-2,6.86-6.69,7.31-4.65-.45-6.15-4.32-6.68-7.31a.09.09,0,0,1,0,0l-.87.31c-8,2.76-13.63,3.84-15.63,8.19-2.5,5.54,4.68,11.31,4.68,11.31s.65,34.84,1.74,34.84H148c1.09,0,1.74-34.84,1.74-34.84S156.88,171.38,154.38,165.84Z"/><polygon class="cls-11" points="133.81 163.75 132.76 165.75 129.58 165.75 128.56 163.75 131.18 161.6 133.81 163.75"/><path class="cls-12" d="M131.18,161.61l-3.35,3.52-6.51-6.69,4.36-1.92,1.35,1.24Z"/><path class="cls-12" d="M131.18,161.61l3.35,3.52,6.52-6.69-4.36-1.92-1.35,1.24Z"/><polygon class="cls-11" points="132.76 166.23 134.05 207.92 131.18 211.09 128.31 207.92 129.58 166.23 132.76 166.23"/><path class="cls-9" d="M146.45,202.26l7.1-5.41,4.13,5.41-7.1,5.42c-1.41,1.07-2.11.72-3.25-.77S145,203.33,146.45,202.26Z"/><path class="cls-9" d="M146.61,199.67a8.22,8.22,0,0,1,5.61-1.54,1.18,1.18,0,0,1,.81,1.38,1,1,0,0,1-1.31.75,2.61,2.61,0,0,0-.37,0,6.42,6.42,0,0,0-.9.12,6.09,6.09,0,0,0-2.46,1.08,1.1,1.1,0,0,1-1.54-.26A1.09,1.09,0,0,1,146.61,199.67Z"/><path class="cls-3" d="M154.33,206l-4.65-7.81L160,186.53l-10.84-9.63,4.29-12.62,16,19.95a4.08,4.08,0,0,1-.21,5.29Z"/><path class="cls-9" d="M117.41,200.64l-7.11-5.42-4.12,5.42,7.1,5.41c1.4,1.07,2.1.73,3.24-.76S118.81,201.71,117.41,200.64Z"/><path class="cls-9" d="M117.24,198a8.12,8.12,0,0,0-5.61-1.53,1.19,1.19,0,0,0-.81,1.38,1,1,0,0,0,1.31.75h.38c.22,0,.53.06.9.13a6.2,6.2,0,0,1,2.46,1.08,1.14,1.14,0,0,0,1.37-1.81Z"/><path class="cls-3" d="M109.53,204.35l4.64-7.81L103.9,184.91l10.84-9.64-4.29-12.62-16,20a4.08,4.08,0,0,0,.22,5.28Z"/><path class="cls-9" d="M142.7,135.7l.21-4.8c-.22-6.26-6.39-11.13-12.64-10.91s-12.07,5.5-11.85,11.77l.53,4.77a2.25,2.25,0,0,0-1.65,2.26l.08,2.36a2.26,2.26,0,0,0,2.33,2.18c.21,5.92,7.51,11.28,11.76,11.13s11.15-6,10.95-11.92a2.27,2.27,0,0,0,2.17-2.34l-.08-2.36A2.27,2.27,0,0,0,142.7,135.7Z"/><path class="cls-13" d="M144.25,123.75a2.54,2.54,0,0,0-2.27-2.42,2.75,2.75,0,0,0-1.43-1.88v-.28a3,3,0,0,0-3.11-2.9,3.21,3.21,0,0,0-.82.15,3.19,3.19,0,0,0-4.24-.77,3,3,0,0,0-1.86-.57,3,3,0,0,0-1.92.78,2.8,2.8,0,0,0-4,1.12,2.18,2.18,0,0,0-1-.22,2.25,2.25,0,0,0-2.17,2.12.91.91,0,0,0-.11.16,2.78,2.78,0,0,0-2.18,2.16h-.21a2.52,2.52,0,0,0-1.71,4.27,44.21,44.21,0,0,0,.93,12.73.45.45,0,0,0,.89-.12c0-3.41.58-9.93,4-9.55a45.44,45.44,0,0,0,15-.53c3.41-.61,4.42,5.85,4.67,9.25a.46.46,0,0,0,.9.06,45.38,45.38,0,0,0,.16-12A2.53,2.53,0,0,0,144.25,123.75Z"/></g></g></g><rect class="cls-14" x="92.52" y="216.58" width="78.38" height="5.33" rx="2.67"/><rect class="cls-14" x="92.52" y="225.25" width="78.38" height="5.33" rx="2.67"/><rect class="cls-14" x="103.44" y="234.58" width="54.95" height="5.33" rx="2.67"/><rect class="cls-3" x="80.3" y="301.21" width="103.36" height="153.76" rx="12"/><rect class="cls-14" x="92.52" y="417.83" width="78.38" height="5.33" rx="2.67"/><rect class="cls-14" x="92.52" y="426.49" width="78.38" height="5.33" rx="2.67"/><rect class="cls-14" x="103.44" y="435.83" width="54.95" height="5.33" rx="2.67"/><rect class="cls-3" x="259.79" y="301.21" width="103.36" height="153.76" rx="12"/><rect class="cls-14" x="272" y="417.83" width="78.38" height="5.33" rx="2.67"/><rect class="cls-14" x="272" y="426.49" width="78.38" height="5.33" rx="2.67"/><rect class="cls-14" x="282.93" y="435.83" width="54.95" height="5.33" rx="2.67"/><rect class="cls-3" x="439.27" y="301.21" width="103.36" height="153.76" rx="12"/><rect class="cls-14" x="451.49" y="417.83" width="78.38" height="5.33" rx="2.67"/><rect class="cls-14" x="451.49" y="426.49" width="78.38" height="5.33" rx="2.67"/><rect class="cls-14" x="462.41" y="435.83" width="54.95" height="5.33" rx="2.67"/><rect class="cls-3" x="618.76" y="301.21" width="103.36" height="153.76" rx="12"/><rect class="cls-14" x="630.97" y="417.83" width="78.38" height="5.33" rx="2.67"/><rect class="cls-14" x="630.97" y="426.49" width="78.38" height="5.33" rx="2.67"/><rect class="cls-14" x="641.9" y="435.83" width="54.95" height="5.33" rx="2.67"/><rect class="cls-3" x="260.57" y="99.96" width="103.36" height="153.76" rx="12"/><g id="woman"><circle id="shadow-2" data-name="shadow" class="cls-15" cx="312.25" cy="167.79" r="44"/><g class="cls-16"><circle class="cls-17" cx="312.25" cy="159.37" r="39.19"/><g id="woman-2" data-name="woman"><path class="cls-18" d="M330.87,135.37l-.16-.39c-1.27-3.13-.69-6.09-1.43-9.29-1.61-7-4.93-11.35-8.84-9.66-5.16-6.11-13.31-1.09-14.78-.14a10.5,10.5,0,0,0-4,4c-1.81,2.92-2.58,6.28-3.38,9.62-.88,3.62-4.23,6.34-4.77,10-.57,3.88,1.68,5.71-.85,9.53-1,1.48-2.58,2.87-3.13,4.56-.6,1.88.05,4-.5,5.85-.8,2.76-3.95,3.91-4.46,6.65s1.81,4.88,3.92,6.16c3.35,2,7.51,2,11.43,2,11.14-.2,22.24,1.92,33.38,1.44,6.3-.27,6.71-3.81,6.58-5.24-.18-1.94-2.35-3.48-3.2-5.24-1.14-2.35.38-5.61,0-8.2s-2.57-3.79-3.1-6.39c-.46-2.22.81-4.49.7-6.76C334.23,140.76,332.05,138.12,330.87,135.37Z"/><polygon class="cls-19" points="317.64 156.84 317.64 151.05 308.57 151.05 308.57 156.84 306.3 157.47 308.57 171.65 317.64 171.65 319.91 157.47 317.64 156.84"/><polygon class="cls-10" points="308.57 151.09 308.57 153.2 317.64 156.84 317.64 151.09 308.57 151.09"/><path class="cls-20" d="M329.2,214.37c.19-12.24-2.91-17-2.91-17H299.92s-3.1,4.76-2.91,17Z"/><path class="cls-21" d="M324.25,181.74c2.15-2.2,5.67-6.66,1.16-13.12-2.9-4.15,5.76-10.93-7-11.6l-5.29,14.47L307.81,157c-12.77.67-4.11,7.45-7,11.6-4.5,6.46-1,10.92,1.16,13.12a96.2,96.2,0,0,1-4.88,22.5h14.51l1.52-5.44,1.51,5.44h14.51A96.2,96.2,0,0,1,324.25,181.74Z"/><path class="cls-19" d="M299.5,193.41c-.63,0-6,1.18-4,2.6.68.49,2.21-.61,3-.76.55-.12,1.38,0,1.72-.5A.89.89,0,0,0,299.5,193.41Z"/><path class="cls-19" d="M299.8,194.53c-1.72-.14-3.92-2.46-4.21-2.33-.13.05-2.36,3.84-2.23,4.25s4.61,4.09,6.45,4.26a3.91,3.91,0,0,0,3.86-3.14C303.86,196,301.35,194.64,299.8,194.53Z"/><path class="cls-21" d="M294.88,198.57c-3-2.63-5.22-6.4-6.93-9.71a34.43,34.43,0,0,1-2.65-6.33,11.07,11.07,0,0,1,.76-7.77c1.63-3.77,9.13-15.45,18.31-17.32l-.21,9.32c-3.31,1.67-10.49,7.91-11.73,10.76a4.18,4.18,0,0,0-.46,3.1,28.1,28.1,0,0,0,2.15,5,49.18,49.18,0,0,0,4.41,7.72Z"/><path class="cls-19" d="M326,193.41c.63,0,6,1.18,4,2.6-.67.49-2.21-.61-3-.76-.55-.12-1.38,0-1.72-.5S325.32,193.41,326,193.41Z"/><path class="cls-19" d="M325.65,194.53c1.72-.14,3.91-2.46,4.21-2.33.13.05,2.36,3.84,2.22,4.25s-4.6,4.09-6.44,4.26a3.93,3.93,0,0,1-3.87-3.14C321.59,196,324.09,194.64,325.65,194.53Z"/><path class="cls-21" d="M330.57,198.57c3-2.63,5.21-6.4,6.92-9.71a33.75,33.75,0,0,0,2.65-6.33,11.07,11.07,0,0,0-.76-7.77c-1.63-3.77-9.13-15.45-18.3-17.32l.21,9.32c3.31,1.67,10.49,7.91,11.72,10.76a4.18,4.18,0,0,1,.46,3.1,28.81,28.81,0,0,1-2.14,5,49.19,49.19,0,0,1-4.42,7.72Z"/><polygon class="cls-3" points="323.59 160.59 318.62 162.47 320.57 165.2 313.11 171.49 318.4 156.9 323.59 160.59"/><polygon class="cls-3" points="302.62 160.59 307.81 156.96 313.11 171.49 305.64 165.2 307.59 162.47 302.62 160.59"/><path class="cls-19" d="M324.21,135.86l.25-4.71c.26-5-5.2-11.63-9.79-11.87s-10.71,5.78-11,10.78l-.25,4.71a2.29,2.29,0,0,0-2.42,2.15l-.13,2.36a2.29,2.29,0,0,0,2.19,2.38c-.26,5,5.19,11.82,9.78,12.06s10.72-6,11-11a2.29,2.29,0,0,0,2.43-2.14l.12-2.36A2.29,2.29,0,0,0,324.21,135.86Z"/><path class="cls-18" d="M328,127.71c-1.6-8.51-7.37-12.59-13.06-12.75-5.67-.43-11.83,3-14.31,11.32-2.17,7.28-2.79,14-.09,25.14,5.32-3.12-3-30.22,13.74-23.74,17.31-4.69,6.21,21.38,11.18,25C329.28,142,329.37,135.18,328,127.71Z"/></g></g></g><rect class="cls-14" x="273.06" y="216.25" width="78.38" height="5.33" rx="2.67"/><rect class="cls-14" x="273.06" y="224.91" width="78.38" height="5.33" rx="2.67"/><rect class="cls-14" x="283.99" y="234.25" width="54.95" height="5.33" rx="2.67"/><rect class="cls-3" x="440.85" y="99.96" width="103.36" height="153.76" rx="12"/><g id="man-3" data-name="man"><circle id="shadow-3" data-name="shadow" class="cls-22" cx="492.53" cy="168.2" r="44"/><g class="cls-23"><circle class="cls-24" cx="492.53" cy="159.32" r="39.19"/><g id="man-4" data-name="man"><rect class="cls-21" x="486.34" y="152.02" width="13.31" height="5.64"/><polygon class="cls-25" points="500.14 153.71 498.44 152.93 498.44 147.53 487.55 147.53 487.55 152.93 485.85 153.66 486.3 168.96 487.55 168.96 487.55 171.31 498.44 171.31 498.44 168.96 499.69 168.96 500.14 153.71"/><polygon class="cls-10" points="487.55 147.53 487.55 150.06 498.44 152.57 498.44 147.53 487.55 147.53"/><path class="cls-3" d="M500.29,153.75l-.4,1.52c-.7,2-2.5,5.28-6.76,5.28-4.81,0-6.64-4.17-7.21-6l-.22-.82c-8.86,3.33-6.14,31.07-6.14,31.07l-.06,23h27.76l-.37-23S509.15,157.08,500.29,153.75Z"/><polygon class="cls-11" points="495.62 159.81 494.57 161.81 491.39 161.81 490.38 159.81 493 157.66 495.62 159.81"/><path class="cls-12" d="M493,157.66l-3.35,3.53-5.73-6.83,3.57-1.78,1.35,1.24Z"/><polygon class="cls-12" points="498.5 152.58 493 157.66 496.35 161.19 502.07 154.35 498.5 152.58"/><polygon class="cls-11" points="494.57 162.28 495.87 203.98 493 207.15 490.13 203.98 491.39 162.28 494.57 162.28"/><path class="cls-21" d="M515.66,161.78c-.87-5.09-6.51-5.09-15.37-8.42L493,182.9l-7.3-29.54c-8.86,3.33-14.5,3.33-15.37,8.42-1.4,8.22,3.29,11.81,3.33,11.76s.38,36.48-.19,45.28h18.16l1.37-6.36,1.36,6.36h18.17c-.58-8.8-.2-45.28-.2-45.28S517.06,170,515.66,161.78Z"/><polygon class="cls-26" points="481.76 154.38 481.94 159.58 484.54 161.72 482.51 164.48 492.93 182.9 486.34 152.02 481.76 154.38"/><polygon class="cls-26" points="504.23 154.38 504.06 159.58 501.46 161.72 503.48 164.48 493.06 182.9 499.65 152.02 504.23 154.38"/><path class="cls-27" d="M513.47,225.65l1.69-9.6,5.36.94-1.69,9.61c-.34,1.9-1.81,3.22-3.29,3S513.13,227.55,513.47,225.65Z"/><path class="cls-27" d="M512.18,223.47c.3-3.39,3.46-5.51,3.59-5.59a1.12,1.12,0,0,1,1.57.34,1.19,1.19,0,0,1-.34,1.61s-2.36,1.61-2.56,3.84a1.14,1.14,0,0,1-1.23,1.06A1.16,1.16,0,0,1,512.18,223.47Z"/><path class="cls-21" d="M505.41,155.06c6.9,2.15,11.86,2.77,12.6,7.1,1.4,8.22,3,17.54,3.9,27.52.31,13-.87,29.26-.87,29.26h-7.13c0-.07-.18-10.4-.44-21.95-1.31-8.41-1.93-12.13-2-12.17l-7.66-24.35C504,160.22,504.79,156.55,505.41,155.06Z"/><path class="cls-21" d="M479.9,155.44c-6.89,2.15-11.85,2.77-12.59,7.1-1.41,8.22-3,17.54-3.91,27.52-.31,13,.87,29.26.87,29.26h7.13c0-.07.18-10.4.45-21.95,1.3-8.41,1.92-12.13,2-12.17l7.66-24.35C481.35,160.6,480.52,156.93,479.9,155.44Z"/><path class="cls-25" d="M504.94,131.83l.37-4.79c0-6.27-6-11.35-12.25-11.35s-12.25,5.08-12.25,11.35l.36,4.78a2.3,2.3,0,0,0-.93.48,2.24,2.24,0,0,0-.8,1.72v2.36a2.27,2.27,0,0,0,2.26,2.27c0,5.92,7.11,11.53,11.36,11.53s11.36-5.61,11.36-11.53a2.27,2.27,0,0,0,2.25-2.26V134A2.26,2.26,0,0,0,504.94,131.83Z"/><path class="cls-28" d="M499.21,113.3a10.42,10.42,0,0,0-11.75-.66c-4.36,2.56-4.88,3.28-7,3.15-.68,0-1.38-.15-1.46.53a8.78,8.78,0,0,0,1,5.67c-1.49,6.08,1.24,12.94,1.24,12.94s-.52-6.78,1.06-10.48c4.11,2.86,11.31,2.6,18.37-2.21,4.21,3,4.16,12.69,4.16,12.69S512.83,116.44,499.21,113.3Z"/></g></g></g><rect class="cls-14" x="453.34" y="215.91" width="78.38" height="5.33" rx="2.67"/><rect class="cls-14" x="453.34" y="224.58" width="78.38" height="5.33" rx="2.67"/><rect class="cls-14" x="464.26" y="233.91" width="54.95" height="5.33" rx="2.67"/><rect class="cls-3" x="621.12" y="99.96" width="103.36" height="153.76" rx="12"/><g id="woman-3" data-name="woman"><circle id="shadow-4" data-name="shadow" class="cls-29" cx="672.8" cy="163.71" r="44"/><g class="cls-30"><circle class="cls-31" cx="672.8" cy="155.37" r="39.19"/><g id="woman-4" data-name="woman"><g id="woman-5" data-name="woman"><polygon class="cls-9" points="678.31 154.59 678.31 148.81 669.24 148.81 669.24 154.59 666.97 154.77 669.24 169.4 678.31 169.4 680.58 154.77 678.31 154.59"/><polygon class="cls-32" points="669.24 148.84 669.24 152.08 678.31 154.59 678.31 148.84 669.24 148.84"/><path class="cls-33" d="M700.69,177.36c-2.61-6-9.18-17.53-11.18-19.44-3.24-3.12-7-3-10.44-3.27l0,.15-5.28,14.45-5.28-14.45,0-.15c-3.42.26-7.19.15-10.44,3.27-2,1.91-8.56,13.45-11.17,19.44a8.23,8.23,0,0,0,.5,7.55L654,198.82h18.29l1.44-5.45,1.44,5.45h18.3l6.68-13.91A8.26,8.26,0,0,0,700.69,177.36Z"/><polygon class="cls-3" points="663.29 158.35 668.26 160.23 666.31 162.95 673.77 169.25 668.47 154.65 663.29 158.35"/><polygon class="cls-3" points="684.26 158.35 679.07 154.72 673.77 169.25 681.24 162.95 679.28 160.23 684.26 158.35"/><path class="cls-9" d="M684,133.5v-4.71c0-5-5.81-11.35-10.4-11.35s-10.39,6.33-10.39,11.35v4.71a2.29,2.29,0,0,0-2.31,2.27v2.36a2.28,2.28,0,0,0,2.31,2.27c0,5,5.8,11.53,10.39,11.53S684,145.41,684,140.4a2.29,2.29,0,0,0,2.31-2.27v-2.36A2.3,2.3,0,0,0,684,133.5Z"/><path class="cls-34" d="M682.14,113.87a3.27,3.27,0,0,0-.08-.7,2.84,2.84,0,0,0,.07-.66,3.08,3.08,0,0,0-2-2.9,3.23,3.23,0,0,0-3.15-3.1,3.46,3.46,0,0,0-6.28-.28,3,3,0,0,0-3.68,2.85c0,.06,0,.11,0,.17a3.39,3.39,0,0,0-1.62,5.34,3,3,0,0,0-.57,1.72,2.9,2.9,0,0,0,2.9,2.9,2.85,2.85,0,0,0,1.17-.25,2.52,2.52,0,0,0,2.51,2.43,2.55,2.55,0,0,0,.78-.13,3.47,3.47,0,0,0,6.18-1.64,3.32,3.32,0,0,0,2.08-2.83A3.33,3.33,0,0,0,682.14,113.87Z"/><path class="cls-13" d="M673.58,112.94c-10.62,0-14.39,10.37-11.21,20.58a.45.45,0,0,0,.88-.11c.41-5.79,2.81-10.66,10.33-8.19,7.52-2.47,9.92,2.4,10.33,8.19a.46.46,0,0,0,.89.11C688,123.31,684.2,112.94,673.58,112.94Z"/></g><path id="desk" class="cls-35" d="M703.08,199.54h-57a4.09,4.09,0,0,0,0,8.17h57a4.09,4.09,0,0,0,0-8.17Z"/><g id="computer"><path class="cls-36" d="M695.45,199.59H652.1a1,1,0,1,1,0-2h43.35a1,1,0,0,1,0,2Z"/><rect class="cls-27" x="651.08" y="164.68" width="45.38" height="32.94" rx="5"/><path class="cls-37" d="M677.48,180.11a3.71,3.71,0,1,1-3.71-3.71A3.71,3.71,0,0,1,677.48,180.11Z"/><path class="cls-38" d="M686.14,164.68H653a1.89,1.89,0,0,0-1.89,1.89v29.17a1.89,1.89,0,0,0,1.89,1.89h6.54A37.67,37.67,0,0,1,686.14,164.68Z"/></g></g></g></g><rect class="cls-14" x="633.61" y="215.58" width="78.38" height="5.33" rx="2.67"/><rect class="cls-14" x="633.61" y="224.25" width="78.38" height="5.33" rx="2.67"/><rect class="cls-14" x="644.54" y="233.58" width="54.95" height="5.33" rx="2.67"/><g id="man-5" data-name="man"><circle id="shadow-5" data-name="shadow" class="cls-39" cx="670.43" cy="350.5" r="42.42"/><g class="cls-40"><circle class="cls-41" cx="670.43" cy="341.96" r="37.79"/><g id="man-6" data-name="man"><rect class="cls-21" x="664.2" y="337.48" width="12.83" height="5.44"/><polygon class="cls-19" points="677.5 339.11 675.86 338.36 675.86 333.16 665.36 333.16 665.36 338.36 663.72 339.07 664.16 353.82 665.36 353.82 665.36 356.08 675.86 356.08 675.86 353.82 677.06 353.82 677.5 339.11"/><polygon class="cls-10" points="665.36 333.16 665.36 336.69 675.86 338.01 675.86 333.16 665.36 333.16"/><path class="cls-3" d="M663.58,339.15l.39,1.46c.67,1.94,2.4,5.1,6.51,5.1,4.64,0,6.41-4,7-5.77l.21-.79c8.54,3.21,5.92,30,5.92,30l0,22.22H656.86l.36-22.22S655,342.36,663.58,339.15Z"/><polygon class="cls-42" points="668.09 344.99 669.09 346.92 672.16 346.92 673.14 344.99 670.61 342.92 668.09 344.99"/><path class="cls-12" d="M670.61,342.92l3.23,3.4,5.52-6.59L675.92,338l-1.3,1.2Z"/><polygon class="cls-12" points="665.3 338.02 670.61 342.92 667.38 346.32 661.86 339.73 665.3 338.02"/><polygon class="cls-42" points="669.09 347.38 667.84 387.58 670.61 390.64 673.38 387.58 672.16 347.38 669.09 347.38"/><path class="cls-21" d="M648.76,346.89c.84-4.9,6.27-4.91,14.81-8.11l7,28.48,7-28.48c8.54,3.2,14,3.21,14.81,8.11,1.36,7.92-3.17,11.38-3.2,11.34s-.37,35.17.18,43.65H671.92l-1.31-6.12-1.31,6.12H651.78c.56-8.48.19-43.65.19-43.65S647.41,354.81,648.76,346.89Z"/><polygon class="cls-26" points="681.45 339.75 681.27 344.77 678.77 346.83 680.72 349.5 670.68 367.26 677.03 337.48 681.45 339.75"/><polygon class="cls-26" points="659.78 339.75 659.95 344.77 662.46 346.83 660.5 349.5 670.54 367.26 664.2 337.48 659.78 339.75"/><path class="cls-9" d="M650.88,408.48l-1.64-9.26-5.17.91,1.64,9.26c.32,1.83,1.74,3.11,3.17,2.86S651.2,410.31,650.88,408.48Z"/><path class="cls-9" d="M652.11,406.37c-.28-3.27-3.33-5.31-3.46-5.39a1.07,1.07,0,0,0-1.51.33,1.14,1.14,0,0,0,.33,1.55s2.27,1.55,2.46,3.7a1.11,1.11,0,0,0,1.19,1A1.1,1.1,0,0,0,652.11,406.37Z"/><path class="cls-21" d="M658.64,340.41c-6.65,2.08-11.43,2.67-12.14,6.85-1.36,7.93-2.9,16.91-3.77,26.54-.3,12.55.84,28.2.84,28.2h6.88c0-.06.17-10,.42-21.16,1.26-8.11,1.86-11.69,1.9-11.74l7.38-23.48C660,345.39,659.24,341.85,658.64,340.41Z"/><path class="cls-19" d="M683.26,365.26s2.06.23,3.66.35l1.17.07,1,0h1l.16,6.56H689l-1.21,0-1.36-.08c-1.84-.14-4-.39-4-.39-1.41-.19-2.28-1.83-2-3.61S682,365.1,683.26,365.26Z"/><path class="cls-19" d="M685.45,363.57a4.13,4.13,0,0,1,2.56,1.65,10.72,10.72,0,0,1,1.06,1.57,1.39,1.39,0,0,1-.17,1.53.68.68,0,0,1-1.13-.23,4.11,4.11,0,0,0-.21-.36A7,7,0,0,0,687,367a3,3,0,0,0-1.81-1.22c-.43-.05-.72-.57-.64-1.17S685,363.52,685.45,363.57Z"/><path class="cls-21" d="M689.24,373.73c2.69,0,10.29.41,12.56-1.44,1.59-1.3,4.92-5.53,1.41-12.67-2.91-5.93-7.66-11.31-12.11-15.51l-7.83,8.75c4.13,3.9,7.68,5.92,11.56,10.23,1.18,1.31.71,1.76.68,1.78-.62.51-4.37.22-6.83,0l-.63,8.72A6.5,6.5,0,0,0,689.24,373.73Z"/><path class="cls-43" d="M682.7,317l-.18-4.14c0-6-5.78-10.94-11.82-10.94s-11.81,4.9-11.81,10.94l.35,4.61c-.33.09-1.26-.19-1.51,0-.48.4-.46,1.58-.46,2.25l.31,2.12a2.19,2.19,0,0,0,2.17,2.19c0,5.7,6.86,11.11,11,11.11s10.95-5.41,10.95-11.11a2.19,2.19,0,0,0,2.18-2.19l.48-2.33A2.67,2.67,0,0,0,682.7,317Z"/><path class="cls-18" d="M659.12,322.94a.8.8,0,0,1,0,.23h1.43a4.41,4.41,0,0,1-.05-.6s-1.74-6.29-.43-10.91c.65-2.28,3.45-3.57,5.76-3a22.16,22.16,0,0,0,9.9,0c2.3-.58,5.11.71,5.76,3,1.31,4.62-.44,10.91-.44,10.91a4.31,4.31,0,0,1,0,.6h1.42a1.19,1.19,0,0,1,0-.23s.4-2.71.61-3.4c1.18-3.76,4.27-17.6-12.31-19.82-17.65-2.35-13.56,15.45-12.38,19.22C658.65,319.63,659.11,322.94,659.12,322.94Z"/><path class="cls-13" d="M676.16,299c4,2.75,5,4.32,6.76,3a.87.87,0,0,1,1.41.52c1.2,9.47-10.4,13.23-21.4,5.38C657.77,304.24,665.84,291.93,676.16,299Z"/></g></g></g><g id="man-7" data-name="man"><circle id="shadow-6" data-name="shadow" class="cls-44" cx="311.46" cy="357.1" r="42.42"/><g class="cls-45"><circle class="cls-46" cx="311.46" cy="349.05" r="37.79"/><g id="man-8" data-name="man"><polygon class="cls-27" points="318.19 344.97 316.55 344.21 316.55 339.01 306.05 339.01 306.05 344.21 304.41 344.92 304.85 359.67 306.05 359.67 306.05 361.93 316.55 361.93 316.55 359.67 317.75 359.67 318.19 344.97"/><polygon class="cls-47" points="316.55 339.54 316.55 343.77 306.05 341.57 306.05 339.54 316.55 339.54"/><path class="cls-3" d="M333.66,352.86c-1.92-4.2-7.32-5.24-15.07-7.9l-.83-.29a.06.06,0,0,0,0,0c-.51,2.88-2,6.62-6.45,7.05-4.49-.43-5.93-4.17-6.44-7.05a.06.06,0,0,1,0,0L304,345c-7.74,2.66-13.15,3.7-15.07,7.9-2.41,5.34,4.51,10.9,4.51,10.9s.63,33.59,1.68,33.59h32.35c1,0,1.67-33.59,1.67-33.59S336.08,358.2,333.66,352.86Z"/><polygon class="cls-48" points="313.83 350.84 312.82 352.77 309.75 352.77 308.77 350.84 311.3 348.77 313.83 350.84"/><path class="cls-12" d="M311.3,348.78l-3.23,3.4-6.28-6.46,4.21-1.85,1.29,1.2Z"/><path class="cls-12" d="M311.3,348.78l3.23,3.4,6.28-6.46-4.2-1.85-1.3,1.2Z"/><polygon class="cls-48" points="312.82 353.23 314.07 393.43 311.3 396.49 308.53 393.43 309.75 353.23 312.82 353.23"/><path class="cls-26" d="M322,381.46H301a3.06,3.06,0,0,1-3.06-3.06l-1.31-17.5a3.07,3.07,0,0,1,3.06-3.07h23.59a3.08,3.08,0,0,1,3.07,3.07L325,378.4A3.06,3.06,0,0,1,322,381.46Z"/><path class="cls-49" d="M323.33,357.83h-23.7a3,3,0,0,0-2.52,1.36,3.06,3.06,0,0,1,1.66-.5h23.7a3,3,0,0,1,3,3l-1.32,17.61a3.05,3.05,0,0,1-.49,1.66,3,3,0,0,0,1.35-2.52l1.32-17.61A3,3,0,0,0,323.33,357.83Z"/><rect class="cls-50" x="299.05" y="368.36" width="2.58" height="2.58" rx="1.12"/><path class="cls-27" d="M298.81,371.43s-2.06.23-3.65.35l-1.17.07-1,0h-1l-.15,6.56h1.21l1.21,0,1.37-.08c1.83-.14,4-.39,4-.39,1.42-.18,2.29-1.83,2-3.61S300.08,371.26,298.81,371.43Z"/><path class="cls-27" d="M296.63,369.73a4.07,4.07,0,0,0-2.56,1.66A10.17,10.17,0,0,0,293,373a1.37,1.37,0,0,0,.16,1.53.68.68,0,0,0,1.13-.24s.08-.15.21-.36a7.46,7.46,0,0,1,.54-.76,2.92,2.92,0,0,1,1.82-1.22c.43-.05.71-.58.64-1.18S297,369.69,296.63,369.73Z"/><path class="cls-3" d="M292.84,379.9c-2.7,0-10.29.4-12.56-1.45-1.6-1.29-4.38-5.52-.87-12.66A55.27,55.27,0,0,1,291,350.28l5.27,11c-4.13,3.9-5.13,3.65-9,8-1.17,1.31-.71,1.75-.68,1.77.62.51,4.38.23,6.84,0l.63,8.73A7.63,7.63,0,0,1,292.84,379.9Z"/><path class="cls-27" d="M324.11,371.43s2.06.23,3.66.35l1.17.07,1,0h1l.15,6.56h-1.21l-1.22,0-1.36-.08c-1.84-.14-4-.39-4-.39-1.41-.18-2.28-1.83-2-3.61S322.84,371.26,324.11,371.43Z"/><path class="cls-27" d="M326.3,369.73a4.1,4.1,0,0,1,2.56,1.66,10.17,10.17,0,0,1,1.06,1.57,1.36,1.36,0,0,1-.17,1.53.67.67,0,0,1-1.12-.24s-.08-.15-.21-.36a6.36,6.36,0,0,0-.55-.76,2.9,2.9,0,0,0-1.81-1.22c-.43-.05-.71-.58-.64-1.18S325.89,369.69,326.3,369.73Z"/><path class="cls-3" d="M330.09,379.9c2.69,0,10.29.4,12.56-1.45,1.59-1.29,4.38-5.52.87-12.66A53.6,53.6,0,0,0,332,350.59l-5.18,10.83c4.12,3.89,5,3.52,8.86,7.84,1.17,1.31.7,1.75.67,1.77-.62.51-4.37.23-6.83,0l-.63,8.73A7.51,7.51,0,0,0,330.09,379.9Z"/><path class="cls-27" d="M322.76,324.21l.35-4.63c0-6-5.77-10.93-11.81-10.93s-11.81,4.89-11.81,10.93l.35,4.62a2.11,2.11,0,0,0-.89.46,2.14,2.14,0,0,0-.77,1.66v2.28a2.17,2.17,0,0,0,2.17,2.18c0,5.71,6.86,11.12,10.95,11.12s10.95-5.41,10.95-11.12a2.19,2.19,0,0,0,2.18-2.18v-2.28A2.19,2.19,0,0,0,322.76,324.21Z"/><path class="cls-28" d="M323,312.46c.12-1.46-.35-3.54-1.5-6.51a1,1,0,0,0-1.66-.24c-1.33,1.67-3.09,1.34-6,.16-4.85-2-8.4-.77-10.45,1.38-8.79,4.48-3.42,20.2-3.42,20.2s.18-8.18,3.2-11.94a56.3,56.3,0,0,0,8.17,1,57.64,57.64,0,0,0,8.43-1c2.23,2.38,2.95,11.94,2.95,11.94S326.14,318.74,323,312.46Z"/></g></g></g><g id="woman-6" data-name="woman"><circle id="shadow-7" data-name="shadow" class="cls-51" cx="131.56" cy="358.09" r="42.42"/><g class="cls-52"><circle class="cls-53" cx="131.56" cy="350.05" r="37.79"/><g id="woman-7" data-name="woman"><g id="woman-8" data-name="woman"><path class="cls-28" d="M144.88,349.79l-.06.28c-.22.93-.46,1.8-.73,2.6a12.62,12.62,0,0,1-1.57,3.35,4.62,4.62,0,0,1-1,1,4.18,4.18,0,0,1-2.61.8h-16a4.16,4.16,0,0,1-2.7-.87,4.34,4.34,0,0,1-.88-.93,12,12,0,0,1-1.57-3.35,26.16,26.16,0,0,1-.73-2.6,1.31,1.31,0,0,1-.06-.27c-2.51-11.05-1.77-30.64,3.92-36.54a13.06,13.06,0,0,1,10-4.55,12.44,12.44,0,0,1,8.49,3.11,19,19,0,0,1,1.53,1.44,7.21,7.21,0,0,1,.56.66C146.69,320.49,147.3,339.13,144.88,349.79Z"/><polygon class="cls-25" points="135.93 348.24 135.93 342.65 127.18 342.65 127.18 348.24 124.99 348.4 127.18 362.51 135.93 362.51 138.12 348.4 135.93 348.24"/><polygon class="cls-32" points="127.18 342.69 127.18 344.72 135.93 348.24 135.93 342.69 127.18 342.69"/><path class="cls-54" d="M157.51,369.83c-2.52-5.77-8.86-16.9-10.78-18.74-3.13-3-6.76-2.9-10.06-3.15l0,.14L131.56,362l-5.09-13.93,0-.14c-3.3.25-6.94.14-10.07,3.15-1.92,1.84-8.26,13-10.77,18.74a8,8,0,0,0,.48,7.28l6.44,13.41h17.64l1.39-5.25,1.39,5.25h17.63L157,377.11A8,8,0,0,0,157.51,369.83Z"/><polygon class="cls-3" points="121.45 351.45 126.24 353.27 124.36 355.89 131.56 361.96 126.45 347.89 121.45 351.45"/><polygon class="cls-3" points="141.67 351.45 136.66 347.95 131.56 361.96 138.75 355.89 136.87 353.27 141.67 351.45"/><path class="cls-25" d="M141.8,327.49v-4.55c0-4.83-5.59-10.94-10-10.94s-10,6.11-10,10.94v4.55a2.2,2.2,0,0,0-2.22,2.19V332a2.2,2.2,0,0,0,2.22,2.19c0,4.83,5.6,11.11,10,11.11s10-6.28,10-11.11A2.21,2.21,0,0,0,144,332v-2.27A2.21,2.21,0,0,0,141.8,327.49Z"/><path class="cls-55" d="M131.78,337.16v8.09c4.43,0,10-6.28,10-11.11A2.21,2.21,0,0,0,144,332v-2.27a2.21,2.21,0,0,0-2.23-2.19v-4.55c0-4.83-5.59-10.94-10-10.94v17.72a29.5,29.5,0,0,0-2.23,7Z"/><circle class="cls-32" cx="126.03" cy="330.52" r="1.73"/><circle class="cls-13" cx="126.03" cy="330.08" r="1.73"/><path class="cls-3" d="M127.05,329.53a.43.43,0,1,1-.44-.42A.44.44,0,0,1,127.05,329.53Z"/><path class="cls-13" d="M128.14,328.7a2.51,2.51,0,0,0-2-1.39,2.69,2.69,0,0,0-2.46,1.14h-.14a1.38,1.38,0,0,1-.37-.1,1.64,1.64,0,0,1-.49-.34.09.09,0,0,0-.07,0,.08.08,0,0,0,0,.08,1.41,1.41,0,0,0,.1.18,1.51,1.51,0,0,0,.29.37,1.72,1.72,0,0,0,.41.29.52.52,0,0,0,.16.07l.08,0a.27.27,0,0,0,.28-.15,2.37,2.37,0,0,1,2.19-1.12,2.1,2.1,0,0,1,1.67,1.14.22.22,0,0,0,.29.11A.23.23,0,0,0,128.14,328.7Z"/><circle class="cls-32" cx="136.97" cy="330.52" r="1.73"/><circle class="cls-13" cx="136.97" cy="330.08" r="1.73"/><path class="cls-3" d="M138,329.53a.43.43,0,1,1-.45-.42A.44.44,0,0,1,138,329.53Z"/><path class="cls-13" d="M134.87,328.7a2.51,2.51,0,0,1,2-1.39,2.72,2.72,0,0,1,2.47,1.14h.13a1.21,1.21,0,0,0,.37-.1,1.77,1.77,0,0,0,.5-.34.07.07,0,0,1,.06,0,.07.07,0,0,1,0,.08l-.1.18a1.87,1.87,0,0,1-.3.37,1.68,1.68,0,0,1-.4.29.68.68,0,0,1-.17.07l-.08,0a.28.28,0,0,1-.28-.15,2.35,2.35,0,0,0-2.18-1.12,2.13,2.13,0,0,0-1.68,1.14.22.22,0,1,1-.4-.18Z"/><path class="cls-48" d="M135.06,338.58a3.52,3.52,0,0,1-7,0Z"/><path class="cls-3" d="M128.6,338.58h5.83a0,0,0,0,1,0,0v.17a1,1,0,0,1-1,1H129.6a1,1,0,0,1-1-1v-.17A0,0,0,0,1,128.6,338.58Z"/><path class="cls-50" d="M143.3,326.43h-1.54c-.88-.6-2.49-.6-3.94-.6-2.45,0-4.09.49-4.88,1.43a2.36,2.36,0,0,0-1.13-.2,2.31,2.31,0,0,0-1.13.2c-.79-.94-2.43-1.43-4.88-1.43-1.46,0-3.07,0-4,.6h-1.53v1.66l.66.37c0,2.59,1.28,5.6,4.82,5.6,2.91,0,4.71-1.58,5.35-4.69a2.42,2.42,0,0,0,.06-.65.59.59,0,0,1,.6-.35.57.57,0,0,1,.59.35,3.66,3.66,0,0,0,.06.65c.65,3.11,2.45,4.69,5.36,4.69,3.53,0,4.8-3,4.81-5.6l.67-.37Zm-12.92,2.78c-.57,2.73-2.07,4.06-4.58,4.06-3.84,0-4-4-4-4.85,0-1.25,2.77-1.36,4-1.36C128.57,327.06,130.64,328.05,130.38,329.21Zm7.44,4.06c-2.52,0-4-1.33-4.59-4.06-.25-1.16,1.82-2.15,4.59-2.15,1.25,0,4,.11,4,1.36C141.85,329.23,141.65,333.27,137.82,333.27Z"/><path class="cls-28" d="M121.28,343.89c-3.16-10.55-5.37-17.09-3.64-24.21,3.35-13.83,20.24-14.65,22-6,.36,1.84,4.08,4.66,2.15,13.76a4.08,4.08,0,0,1-.91-1,42.6,42.6,0,0,1-4.69-7.86C121.28,318.59,126.25,340.61,121.28,343.89Z"/></g><path id="desk-2" data-name="desk" class="cls-35" d="M159,391.22H104.09a3.94,3.94,0,1,0,0,7.87H159a3.94,3.94,0,0,0,0-7.87Z"/><g id="computer-2" data-name="computer"><path class="cls-36" d="M152.45,391.38H110.66a1,1,0,0,1,0-2h41.79a1,1,0,0,1,0,2Z"/><rect class="cls-56" x="109.68" y="357.73" width="43.75" height="31.76" rx="5"/><circle class="cls-37" cx="131.56" cy="372.6" r="3.58"/><path class="cls-38" d="M143.48,357.73h-32a1.82,1.82,0,0,0-1.82,1.82v28.12a1.83,1.83,0,0,0,1.82,1.82h6.31A36.31,36.31,0,0,1,143.48,357.73Z"/></g></g></g></g><g id="woman-9" data-name="woman"><circle id="shadow-8" data-name="shadow" class="cls-57" cx="490.95" cy="357.09" r="42.42"/><g class="cls-58"><circle class="cls-59" cx="490.95" cy="349.05" r="37.79"/><g id="woman-10" data-name="woman"><g id="woman-11" data-name="woman"><polygon class="cls-19" points="495.32 343.88 495.32 338.3 486.57 338.3 486.57 343.88 484.39 344.05 486.57 358.15 495.32 358.15 497.51 344.05 495.32 343.88"/><polygon class="cls-32" points="486.57 338.33 486.57 341.45 495.32 343.88 495.32 338.33 486.57 338.33"/><path class="cls-33" d="M516.9,363.64c-2.52-5.77-8.85-14.72-10.77-16.56-3.13-3-6.77-2.9-10.07-3.15l0,.14L491,358l-5.09-13.93,0-.14c-3.3.25-6.94.15-10.07,3.15-1.92,1.84-8.25,10.79-10.77,16.56a7.92,7.92,0,0,0,.48,7.27l6.44,15.6h17.64l1.39-5.25,1.39,5.25H510l6.44-15.6A7.92,7.92,0,0,0,516.9,363.64Z"/><polygon class="cls-3" points="480.84 347.49 485.63 349.31 483.75 351.93 490.95 358 485.84 343.93 480.84 347.49"/><polygon class="cls-3" points="501.06 347.49 496.05 343.99 490.95 358 498.15 351.93 496.26 349.31 501.06 347.49"/><path class="cls-18" d="M508.49,346.66c-1.54-.46-3-1.82-4.49-2.5a14.12,14.12,0,0,0,.6,1.73,8.68,8.68,0,0,1-3.79-3.24,19,19,0,0,1-3-12.24,8.4,8.4,0,0,1,.59-2.82,5,5,0,0,1,1.28-1.75,2.74,2.74,0,0,1,1.2-.66,2.52,2.52,0,0,1,1.73.34,6.3,6.3,0,0,1,2.54,3.35c1.56,4.09,1.17,8.62,1.72,13A10.27,10.27,0,0,0,508.49,346.66Z"/><path class="cls-19" d="M500.85,323.69v-4.55c0-4.83-5.59-10.94-10-10.94s-10,6.11-10,10.94v4.55a2.21,2.21,0,0,0-2.23,2.19v2.27a2.21,2.21,0,0,0,2.23,2.19c0,4.83,5.59,11.11,10,11.11s10-6.28,10-11.11a2.21,2.21,0,0,0,2.23-2.19v-2.27A2.21,2.21,0,0,0,500.85,323.69Z"/><path class="cls-18" d="M496.69,320.08a6.79,6.79,0,0,0,1.89,3.32,14.82,14.82,0,0,1-7.34-4.6,6.28,6.28,0,0,0,1.92,3.28,13,13,0,0,1-2.33-1.34,17.91,17.91,0,0,1-4.22-4.2c-1.74,3.51-5,7.89-7.13,8-3.39-6.23.31-19.4,11.34-19.4s14.81,12.74,11.74,19.76C500.09,324.34,497.38,321.1,496.69,320.08Z"/></g><path id="desk-3" data-name="desk" class="cls-35" d="M519.21,387.21H464.27a3.94,3.94,0,0,0,0,7.88h54.94a3.94,3.94,0,0,0,0-7.88Z"/><g id="computer-3" data-name="computer"><path class="cls-36" d="M511.85,387.25h-41.8a1,1,0,0,1,0-2h41.8a1,1,0,0,1,0,2Z"/><rect class="cls-60" x="469.07" y="353.6" width="43.75" height="31.76" rx="5"/><circle class="cls-37" cx="490.95" cy="368.47" r="3.58"/><path class="cls-38" d="M502.88,353.6h-32a1.83,1.83,0,0,0-1.83,1.83v28.11a1.82,1.82,0,0,0,1.83,1.82h6.3A36.31,36.31,0,0,1,502.88,353.6Z"/></g></g></g></g><circle class="cls-3" cx="727.44" cy="18.17" r="6.4"/><circle class="cls-3" cx="749.54" cy="18.17" r="6.4"/><circle class="cls-3" cx="771.65" cy="18.17" r="6.4"/></g></g></g></svg>