<svg xmlns="http://www.w3.org/2000/svg" viewBox="0 0 1022.59 1006.2"><defs><style>.cls-1,.cls-2{fill:#f5f5f5;stroke-miterlimit:10;stroke-width:2px;}.cls-1{stroke:#4cc9f0;}.cls-2{stroke:#f72585;}.cls-3{fill:#ddf5fc;}.cls-4{fill:#fff;}.cls-5{fill:#a9e5f8;}.cls-11,.cls-6{fill:#3a0ca3;}.cls-6,.cls-7,.cls-8{opacity:0.82;}.cls-12,.cls-7{fill:#4361ee;}.cls-8{fill:#4cc9f0;}.cls-9{fill:#333;}.cls-10{fill:#ffb8b8;}.cls-13{fill:#f72585;}.cls-14{fill:#2f2e41;}.cls-15{fill:#be7c5e;}.cls-16{fill:#fda57d;}.cls-17{opacity:0.1;isolation:isolate;}.cls-18{fill:#fdb797;}.cls-19{fill:#72351c;}</style></defs><g id="Layer_2" data-name="Layer 2"><g id="Layer_7" data-name="Layer 7"><rect class="cls-1" x="687.79" y="551.1" width="271" height="271" rx="19.14"/><rect class="cls-1" x="373.29" y="551.1" width="271" height="271" rx="19.14"/><rect class="cls-2" x="58.79" y="551.1" width="271" height="271" rx="19.14"/><path class="cls-3" d="M744.38,186.89a906.43,906.43,0,0,1-7.91,116.75c-.18,1.36-.37,2.72-.56,4.08H370.25c-1.08-1.35-2.15-2.71-3.18-4.08-3.44-4.55-6.67-9.24-9.63-14.09C343.19,266.2,336.58,238.8,343,219.84l.11-.3a33.4,33.4,0,0,1,6.42-11.3c14.67-16.7,44.55-14.1,71.72-.83-24.45-26.47-44-59.93-45.63-89.88-1.61-29.22,13.56-50.18,30-68l1.63-1.73c.26-.3.54-.58.8-.87,12.85-13.59,27.86-27,49.69-25.52C481.66,23,508.31,42.93,527,66.19s31.25,49.68,43.92,75.49,26.42,52.25,46.68,74.24c-27.46-34.34-49.67-73.47-58-111.59s-1.39-74.83,22.81-92.94A56.83,56.83,0,0,1,607.29,1.2c1.05-.18,2.11-.33,3.19-.46,22.49-2.68,49.4,5,72.36,23.42,25.28,20.34,42.9,50.61,51.75,79.38S744.51,160.06,744.38,186.89Z"/><path class="cls-4" d="M505.82,307.72h-7q-3.33-2.07-6.71-4.08c-1.39-.87-2.8-1.71-4.21-2.56q-34.9-21-70.24-40.37t-71-36.86a2.93,2.93,0,0,1-1.7-3.34.8.8,0,0,1,.11-.25c.33-.62,1.07-.88,2.15-.36,2.91,1.44,5.85,2.88,8.76,4.36q35.75,17.84,71.19,37.47t70.46,41c.49.29,1,.6,1.47.9Z"/><path class="cls-4" d="M596,307.72h-4.32l-2.93-4.08-69.26-96Q462.76,129,406.1,50.46a2.79,2.79,0,0,1-.5-1c-.32-1.16.53-1.85,1.63-1.73a3.29,3.29,0,0,1,2.29,1.44l63.56,88.11L585.87,293.7l7.17,9.94C594,305,595,306.36,596,307.72Z"/><path class="cls-4" d="M692.16,282.07c-.18,7.29-.63,14.46-1.22,21.57-.11,1.36-.23,2.72-.34,4.08h-4.54c.13-1.36.27-2.72.38-4.08.9-10.27,1.52-20.65,1.56-31.32a437,437,0,0,0-9.09-88A548,548,0,0,0,651.77,93,628.87,628.87,0,0,0,607.7,2.81a2.42,2.42,0,0,1-.41-1.61c.18-1.29,1.9-1.69,3.19-.46a3.71,3.71,0,0,1,.66.82q3.17,5.39,6.22,10.79a628.25,628.25,0,0,1,42.21,90.57,545.81,545.81,0,0,1,25.33,91.45A430.63,430.63,0,0,1,692.16,282.07Z"/><path class="cls-5" d="M1008.29,304h-994A14.3,14.3,0,0,0,0,318.27V991.92a14.29,14.29,0,0,0,14.28,14.28h994a14.27,14.27,0,0,0,10.86-5,3,3,0,0,0,.31-.39,13.57,13.57,0,0,0,2-3.46,14,14,0,0,0,1.08-5.42V318.27A14.3,14.3,0,0,0,1008.29,304Zm9.64,688.29a10.07,10.07,0,0,1-1.69,5.6,10.48,10.48,0,0,1-3.86,3.47,10.22,10.22,0,0,1-4.67,1.13H13.93a10.2,10.2,0,0,1-10.2-10.2V318.85a10.2,10.2,0,0,1,10.2-10.2h993.78a10.21,10.21,0,0,1,10.22,10.2Z"/><rect class="cls-5" x="1.86" y="361.73" width="1018.86" height="3.73"/><circle class="cls-6" cx="36.27" cy="334.64" r="12.25"/><circle class="cls-7" cx="71.48" cy="334.64" r="12.25"/><circle class="cls-8" cx="106.69" cy="334.64" r="12.25"/><path class="cls-9" d="M455.31,696.16c-13.33-8.67-20-28.84-16.69-47.28s15.56-34.33,30.31-41.18a47.49,47.49,0,0,1,45,3.19c13.53,8.27,32.65,12.8,39.07,29.34,4.94,12.72-1.32,38.53-8,50.88-5.74,10.68-16.65,15.56-26.9,17.68a80.81,80.81,0,0,1-65.36-15.08Z"/><polygon class="cls-10" points="446.75 798.49 436.96 815.37 435.67 817.6 433.78 820.87 404.91 820.87 406.86 817.6 411.9 809.1 423.66 789.25 436.98 794.57 446.75 798.49"/><path class="cls-11" d="M402.79,821.1h-7l34.13-64.23A22.47,22.47,0,0,1,443.43,746a22.55,22.55,0,0,1,17.23,1.88,22.44,22.44,0,0,1,2.28,1.44,22.08,22.08,0,0,1,6.71,7.57,22.63,22.63,0,0,1-.69,22.85L456.2,800.16,445.3,817.6l-2.05,3.27-40.46.23Z"/><path class="cls-12" d="M528.17,820.87H437.75l.41-1.16c-.23-.7-.45-1.41-.64-2.11s-.4-1.49-.56-2.23a49.44,49.44,0,0,1,0-20.8c5-24.53,24.92-44.46,24.92-44.46.35-.27.69-.51,1-.76a45.5,45.5,0,0,1,9.58-5.37c14.8-6.14,30.33-3.67,40.76-.49a81.28,81.28,0,0,1,10.63,4c1.21.57,1.86.93,1.86.93l1,31.46,1.24,37.67Z"/><path class="cls-11" d="M570,817.6l-6.91-35.15-7-35.44a7.41,7.41,0,0,0-6-5.85l-14.61-2.52-13.59-2.34a7.33,7.33,0,0,0-8,10.12c7.1,16.54,7.23,42.73,5.43,71.18-.09,1.08-.15,2.17-.23,3.27h51.57Z"/><path class="cls-11" d="M472.52,744a7.42,7.42,0,0,0-11.71-4.06l-6.28,5.7L428.85,769a7,7,0,0,0-1.83,2.6c-2.9,6.93-8.55,20.6-15.12,37.49q-1.59,4.13-3.29,8.5c-.39,1.08-.82,2.17-1.24,3.27h42.32c.34-1.1.68-2.19,1-3.27,1.88-6,3.72-11.78,5.48-17.44,5.18-16.46,9.85-31.42,13.45-43.24q1.5-4.92,2.73-9.07A7.48,7.48,0,0,0,472.52,744Z"/><polygon class="cls-11" points="579.49 820.87 582.23 820.87 581.85 819.96 580.85 817.6 565.44 781.03 563.08 782.45 544.15 793.9 553.86 817.6 555.2 820.87 570.65 820.87 579.49 820.87"/><path class="cls-11" d="M563.87,752a22.64,22.64,0,0,0-28.35-13.38,21.9,21.9,0,0,0-2.08.82,22.27,22.27,0,0,0-9.53,8.08,21.4,21.4,0,0,0-2.35,4.53,22.54,22.54,0,0,0,.51,17.31l4.74,10.55,16.93,37.67,1.47,3.27h34.28l2.3.23h10Z"/><path class="cls-9" d="M531,621.39a6.56,6.56,0,0,0,7.46-2.83,9.46,9.46,0,0,0,.55-8.31,17.37,17.37,0,0,0-5.16-6.8,20.12,20.12,0,0,0-9.07-4.7A12.08,12.08,0,0,0,515,600.9a8.68,8.68,0,0,0-2.94,9.24c1,3,3.8,5,6.58,6.46a43.83,43.83,0,0,0,17.82,5.07Z"/><path class="cls-9" d="M527.82,599.06c-3.46-4.22-2.32-11,1.55-14.86s9.71-5.15,15.16-4.77A30.9,30.9,0,0,1,569.94,597c3.59,7.8,3.74,16.79,7,24.73A33.53,33.53,0,0,0,620.7,640c.63-.26,1.26-.54,1.88-.84,5.36-2.6,10.42-7.58,10-13.53a32.79,32.79,0,0,1-13.74,35.59c-6.76,4.25-14.84,5.8-22.75,6.91-5.15.73-10.45,1.3-15.51.1a27.41,27.41,0,0,1-16.79-13,43.34,43.34,0,0,1-5.44-20.91c-.15-5.67.48-11.36,0-17S556,605.79,551.84,602s-11.12-5-15.55-1.46c-1.78,1.42-3.07,3.47-5.09,4.53s-5.25.33-5.43-1.94Z"/><path class="cls-13" d="M790.56,820.87l.31-3.27,9.24-96.1a59.31,59.31,0,0,1,9.71-6.18c19-9.58,37.36-5,47.28-1a51.39,51.39,0,0,1,7.6,3.72l5.4,99.59.18,3.27Z"/><path class="cls-14" d="M815.81,732l-6-16.64-.33-.91a3.53,3.53,0,0,0-1.94-2.13,3.44,3.44,0,0,0-3.26.31l-6.8,4.53s-43.65,0-47.15,26.19c-.05.41-.12.87-.17,1.36a.13.13,0,0,1,0,.06c-.45,1.72-8.68,33.56-15.76,72.87-.19,1.08-.39,2.17-.59,3.27h94.84C831.74,781.39,830,744.68,815.81,732Z"/><path class="cls-14" d="M929,817.6c-5.18-40.32-12.58-72.93-12.58-72.93-.07-.49-.13-.95-.18-1.36-3.49-26.19-47.13-26.19-47.13-26.19l-6.73-4.48a3.43,3.43,0,0,0-5.23,1.65L850.73,732c-14.2,12.72-15.93,49.43-12.84,88.91h91.47C929.22,819.78,929.08,818.68,929,817.6Z"/><path class="cls-13" d="M160.73,725.79,151,817.6l-.34,3.27H124.34c.31-1.06.62-2.16,1-3.27,7.47-25.62,17.64-63,16.54-72.91-1.72-15.46,10.32-20.62,10.32-20.62l.75.14Z"/><path class="cls-13" d="M255.24,801.38a65.72,65.72,0,0,0-5,11.73c-.48,1.44-.94,2.95-1.36,4.49-.31,1.06-.59,2.16-.87,3.27H142c.15-1.08.28-2.18.43-3.27,5.42-42.83,9.81-86.29,10.51-93.39.07-.67.1-1,.1-1,63.57-33.51,110,10.32,110,10.32s.07.31.16.91C264.15,740.56,269.32,776.33,255.24,801.38Z"/><path class="cls-15" d="M186.51,683.75h29.35a3.48,3.48,0,0,1,3.48,3.49h0V713a18.23,18.23,0,0,1-18.23,18.24h0A18.26,18.26,0,0,1,182.86,713h0V687.23a3.49,3.49,0,0,1,3.49-3.49h.16Z"/><path class="cls-13" d="M250.28,813.11l-7.08-15.17,1.72-60.13,18.21-3.38.64-.11a48.19,48.19,0,0,1,20.67,24.11c3.54,8.84,10.27,35.44,15.95,59.17.26,1.09.53,2.19.79,3.27H253.9l-1.53-3.27Z"/><path class="cls-5" d="M779.78,915.87H242.35a13.31,13.31,0,0,1-13.43-12.45,13,13,0,0,1,13-13.63H779.37a13.31,13.31,0,0,1,13.44,12.45A13,13,0,0,1,779.78,915.87Z"/><path class="cls-5" d="M629,481.87H393.11a13.31,13.31,0,0,1-13.43-12.45,13,13,0,0,1,13-13.62H628.61a13.31,13.31,0,0,1,13.44,12.44A13,13,0,0,1,629,481.87Z"/><path class="cls-16" d="M477.88,709.75h29.35a3.48,3.48,0,0,1,3.48,3.49h0V739a18.24,18.24,0,0,1-18.24,18.24h0A18.24,18.24,0,0,1,474.23,739h0V713.23a3.49,3.49,0,0,1,3.49-3.49h.16Z"/><path class="cls-17" d="M182.59,696.44a52.39,52.39,0,0,0,36.48.1v-4.49H182.59Z"/><path class="cls-17" d="M474.23,722.44a52.39,52.39,0,0,0,36.48.1v-4.49H474.23Z"/><path class="cls-18" d="M818.51,685.75h29.35a3.48,3.48,0,0,1,3.48,3.49h0V715a18.23,18.23,0,0,1-18.23,18.24h0A18.26,18.26,0,0,1,814.86,715h0V689.23a3.49,3.49,0,0,1,3.49-3.49h.16Z"/><path class="cls-17" d="M814.59,698.44a52.39,52.39,0,0,0,36.48.1v-4.49H814.59Z"/><circle class="cls-15" cx="201.13" cy="646.4" r="52.39"/><circle class="cls-18" cx="833.13" cy="648.4" r="52.39"/><path class="cls-19" d="M879.18,669.52a24,24,0,0,0-22.78-38.07c-6,.91-11.43,4-17,6.54a58.46,58.46,0,0,1-26.94,5.64,36.59,36.59,0,0,1-24.79-11c-6.28-6.8-9.18-16.92-6.33-25.74,3.28-10.17,13-16.7,22.16-22.16a45.11,45.11,0,0,1,11.93-5.53,16,16,0,0,1,12.7,1.67c3,2,5,5.36,8.21,7,3.61,1.9,7.94,1.33,12,1.26a45.2,45.2,0,0,1,31.23,78.57Z"/><path class="cls-14" d="M233.46,674.93a8.56,8.56,0,0,0,11.21.72c10.23-7.58,19.2-17,24.52-28.52,6.08-13.19,6.76-29.37-.58-41.91-6.2-10.59-17.16-17.43-28.08-23.05A50,50,0,0,0,227,577a19.27,19.27,0,0,0-14,2.27,12.12,12.12,0,0,0-5.48,12.52A45.72,45.72,0,0,0,188,578.66a25.23,25.23,0,0,0-14.88-1.08c-6.93,2-12,8.12-14.76,14.77a29.54,29.54,0,0,0-2.23,16.12,19.68,19.68,0,0,0,8.6,13.49c5.73,3.55,13,3.29,19.62,1.84s12.95-4,19.66-4.6,14.17,1,18.26,6.39c2.87,3.78,3.61,8.71,4.25,13.41l3.36,24.45a30,30,0,0,0,2.67,10.22A5.87,5.87,0,0,0,233.46,674.93Z"/><circle class="cls-16" cx="493.13" cy="672.4" r="52.39"/><path class="cls-9" d="M546.42,663.08c-7.75,2.15-7.28-2-11.42-8.9s-9.54-15-17.58-14.67c-6.58.26-11.24,6.18-16,10.75-8.46,8.14-20.66,13.21-32.1,10.55s-20.74-14.62-18.07-26.06a24,24,0,0,1,12.05-14.9,48.48,48.48,0,0,1,18.87-5.26,100.22,100.22,0,0,1,43.15,5.06c9.55,3.34,19.12,8.67,23.78,17.65s8.68,22-.68,25.8Z"/></g></g></svg>