<svg xmlns="http://www.w3.org/2000/svg" viewBox="0 0 1022.59 702.21"><g id="Layer_2" data-name="Layer 2"><g id="Layer_7" data-name="Layer 7"><rect x="687.79" y="247.11" width="271" height="271" rx="19.14" style="fill:#f5f5f5;stroke:#4cc9f0;stroke-miterlimit:10;stroke-width:2px"/><rect x="373.29" y="247.11" width="271" height="271" rx="19.14" style="fill:#f5f5f5;stroke:#4cc9f0;stroke-miterlimit:10;stroke-width:2px"/><rect x="58.79" y="247.11" width="271" height="271" rx="19.14" style="fill:#f5f5f5;stroke:#f72585;stroke-miterlimit:10;stroke-width:2px"/><path d="M1008.29,0h-994A14.3,14.3,0,0,0,0,14.28V687.93a14.29,14.29,0,0,0,14.28,14.28h994a14.27,14.27,0,0,0,10.86-5,3,3,0,0,0,.31-.39,13.57,13.57,0,0,0,2-3.46,14,14,0,0,0,1.08-5.42V14.28A14.3,14.3,0,0,0,1008.29,0Zm9.64,688.29a10.07,10.07,0,0,1-1.69,5.6,10.48,10.48,0,0,1-3.86,3.47,10.22,10.22,0,0,1-4.67,1.13H13.93a10.2,10.2,0,0,1-10.2-10.2V14.86a10.2,10.2,0,0,1,10.2-10.2h993.78a10.21,10.21,0,0,1,10.22,10.2Z" style="fill:#a9e5f8"/><rect x="1.86" y="57.74" width="1018.86" height="3.73" style="fill:#a9e5f8"/><circle cx="36.27" cy="30.65" r="12.25" style="fill:#3a0ca3;opacity:0.8200000000000001"/><circle cx="71.48" cy="30.65" r="12.25" style="fill:#4361ee;opacity:0.8200000000000001"/><circle cx="106.69" cy="30.65" r="12.25" style="fill:#4cc9f0;opacity:0.8200000000000001"/><path d="M455.31,392.17c-13.33-8.67-20-28.84-16.69-47.28s15.56-34.33,30.31-41.18a47.49,47.49,0,0,1,45,3.19c13.53,8.27,32.65,12.8,39.07,29.34,4.94,12.72-1.32,38.53-8,50.88-5.74,10.67-16.65,15.56-26.9,17.68a80.81,80.81,0,0,1-65.36-15.08Z" style="fill:#333"/><polygon points="446.75 494.49 436.96 511.38 435.67 513.61 433.78 516.88 404.91 516.88 406.86 513.61 411.9 505.11 423.66 485.26 436.98 490.58 446.75 494.49" style="fill:#ffb8b8"/><path d="M402.79,517.11h-7l34.13-64.23A22.47,22.47,0,0,1,443.43,442a22.1,22.1,0,0,1,11.1-.41,21.71,21.71,0,0,1,6.13,2.29,20.81,20.81,0,0,1,2.28,1.44,22,22,0,0,1,6.71,7.57,22.61,22.61,0,0,1-.69,22.84L456.2,496.16l-10.9,17.45-2.05,3.27-40.46.23Z" style="fill:#3a0ca3"/><path d="M528.17,516.88H437.75l.41-1.16c-.23-.71-.45-1.41-.64-2.11s-.4-1.49-.56-2.23a49.44,49.44,0,0,1,0-20.8c5-24.53,24.92-44.46,24.92-44.46.35-.27.69-.51,1-.76a45.5,45.5,0,0,1,9.58-5.37c14.8-6.14,30.33-3.67,40.76-.49a82.68,82.68,0,0,1,10.63,4c1.21.58,1.86.94,1.86.94l1,31.46,1.24,37.67Z" style="fill:#4361ee"/><path d="M570,513.61l-6.91-35.15-7-35.44a7.4,7.4,0,0,0-6-5.85l-14.61-2.52-13.59-2.34a7.33,7.33,0,0,0-8,10.12c7.1,16.54,7.23,42.73,5.43,71.18-.09,1.08-.15,2.17-.23,3.27h51.57Z" style="fill:#3a0ca3"/><path d="M472.52,440a7.42,7.42,0,0,0-9-5.37,7.22,7.22,0,0,0-2.7,1.31l-6.28,5.7L428.85,465a7,7,0,0,0-1.83,2.6c-2.9,6.93-8.55,20.6-15.12,37.49q-1.59,4.13-3.29,8.5c-.39,1.08-.82,2.17-1.24,3.27h42.32c.34-1.1.68-2.19,1-3.27,1.88-5.95,3.72-11.78,5.48-17.45,5.18-16.45,9.85-31.41,13.45-43.23q1.5-4.92,2.73-9.07A7.48,7.48,0,0,0,472.52,440Z" style="fill:#3a0ca3"/><polygon points="579.49 516.88 582.23 516.88 581.85 515.96 580.85 513.61 565.44 477.04 563.08 478.46 544.15 489.91 553.86 513.61 555.2 516.88 570.65 516.88 579.49 516.88" style="fill:#3a0ca3"/><path d="M563.87,448a22.64,22.64,0,0,0-28.35-13.38,21.9,21.9,0,0,0-2.08.82,22.32,22.32,0,0,0-9.53,8.07,21.72,21.72,0,0,0-2.35,4.54,22.54,22.54,0,0,0,.51,17.31l4.74,10.55,16.93,37.67,1.47,3.27h34.28l2.3.23h10Z" style="fill:#3a0ca3"/><path d="M531,317.4a6.56,6.56,0,0,0,7.46-2.83,9.46,9.46,0,0,0,.55-8.31,17.37,17.37,0,0,0-5.16-6.8,20.12,20.12,0,0,0-9.07-4.7,12.08,12.08,0,0,0-9.78,2.15,8.68,8.68,0,0,0-2.94,9.24c1,3,3.8,5,6.58,6.46a43.83,43.83,0,0,0,17.82,5.07Z" style="fill:#333"/><path d="M527.82,295.07c-3.46-4.22-2.32-11,1.55-14.86s9.71-5.15,15.16-4.77A30.9,30.9,0,0,1,569.94,293c3.59,7.8,3.74,16.79,7,24.73A33.53,33.53,0,0,0,620.7,336c.63-.26,1.26-.54,1.88-.84,5.36-2.6,10.42-7.58,10-13.53a32.79,32.79,0,0,1-13.74,35.59c-6.76,4.25-14.84,5.8-22.75,6.91-5.15.73-10.45,1.3-15.51.1a27.44,27.44,0,0,1-16.79-13,43.34,43.34,0,0,1-5.44-20.91c-.15-5.67.48-11.36,0-17S556,301.8,551.84,298s-11.12-5-15.55-1.46c-1.78,1.42-3.07,3.47-5.09,4.53s-5.25.33-5.43-1.94Z" style="fill:#333"/><path d="M790.56,516.88l.31-3.27,9.24-96.1a58.65,58.65,0,0,1,9.71-6.18c19-9.58,37.36-5,47.28-1a51.39,51.39,0,0,1,7.6,3.72l5.4,99.59.18,3.27Z" style="fill:#f72585"/><path d="M815.81,428l-6-16.64-.33-.91a3.53,3.53,0,0,0-1.94-2.13,3.44,3.44,0,0,0-3.26.31l-6.8,4.53s-43.65,0-47.15,26.19c-.05.41-.12.87-.17,1.36a.13.13,0,0,1,0,.06c-.45,1.72-8.68,33.56-15.76,72.87-.19,1.08-.39,2.17-.59,3.27h94.84C831.74,477.4,830,440.69,815.81,428Z" style="fill:#2f2e41"/><path d="M929,513.61c-5.18-40.32-12.58-72.93-12.58-72.93-.07-.49-.13-.95-.18-1.36-3.49-26.19-47.13-26.19-47.13-26.19l-6.73-4.48a3.43,3.43,0,0,0-5.23,1.65L850.73,428c-14.2,12.72-15.93,49.43-12.84,88.91h91.47C929.22,515.78,929.08,514.69,929,513.61Z" style="fill:#2f2e41"/><path d="M160.73,421.8,151,513.61l-.34,3.27H124.34c.31-1.06.62-2.16,1-3.27,7.47-25.62,17.64-63,16.54-72.91-1.72-15.46,10.32-20.62,10.32-20.62l.75.14Z" style="fill:#f72585"/><path d="M255.24,497.39a65.72,65.72,0,0,0-5,11.73c-.48,1.44-.94,3-1.36,4.49-.31,1.06-.59,2.16-.87,3.27H142c.15-1.08.28-2.18.43-3.27,5.42-42.83,9.81-86.29,10.51-93.39.07-.67.1-1,.1-1,63.57-33.51,110,10.32,110,10.32s.07.31.16.91C264.15,436.57,269.32,472.34,255.24,497.39Z" style="fill:#f72585"/><path d="M186.51,379.76h29.35a3.48,3.48,0,0,1,3.48,3.49h0v25.8a18.23,18.23,0,0,1-18.23,18.24h0A18.26,18.26,0,0,1,182.86,409h0V383.24a3.49,3.49,0,0,1,3.49-3.49h.16Z" style="fill:#be7c5e"/><path d="M250.28,509.12,243.2,494l1.72-60.13,18.21-3.38.64-.11a48.19,48.19,0,0,1,20.67,24.11c3.54,8.84,10.27,35.44,15.95,59.17.26,1.09.53,2.19.79,3.27H253.9l-1.53-3.27Z" style="fill:#f72585"/><path d="M779.78,611.88H242.35a13.31,13.31,0,0,1-13.43-12.45,13,13,0,0,1,13-13.63H779.37a13.31,13.31,0,0,1,13.44,12.45A13,13,0,0,1,779.78,611.88Z" style="fill:#a9e5f8"/><path d="M629,177.88H393.11a13.31,13.31,0,0,1-13.43-12.45,13,13,0,0,1,13-13.63H628.61a13.31,13.31,0,0,1,13.44,12.45A13,13,0,0,1,629,177.88Z" style="fill:#a9e5f8"/><path d="M477.88,405.76h29.35a3.48,3.48,0,0,1,3.48,3.49h0v25.8a18.24,18.24,0,0,1-18.24,18.24h0A18.24,18.24,0,0,1,474.23,435h0V409.24a3.49,3.49,0,0,1,3.49-3.49h.16Z" style="fill:#fda57d"/><path d="M182.59,392.45a52.39,52.39,0,0,0,36.48.1v-4.49H182.59Z" style="opacity:0.100000001490116;isolation:isolate"/><path d="M474.23,418.45a52.39,52.39,0,0,0,36.48.1v-4.49H474.23Z" style="opacity:0.100000001490116;isolation:isolate"/><path d="M818.51,381.76h29.35a3.48,3.48,0,0,1,3.48,3.49h0v25.8a18.23,18.23,0,0,1-18.23,18.24h0A18.26,18.26,0,0,1,814.86,411h0V385.24a3.49,3.49,0,0,1,3.49-3.49h.16Z" style="fill:#fdb797"/><path d="M814.59,394.45a52.39,52.39,0,0,0,36.48.1v-4.49H814.59Z" style="opacity:0.100000001490116;isolation:isolate"/><circle cx="201.13" cy="342.41" r="52.39" style="fill:#be7c5e"/><circle cx="833.13" cy="344.41" r="52.39" style="fill:#fdb797"/><path d="M879.18,365.53a24,24,0,0,0-22.78-38.07c-6,.91-11.43,4.05-17,6.54a58.46,58.46,0,0,1-26.94,5.64,36.59,36.59,0,0,1-24.79-11c-6.28-6.8-9.18-16.92-6.33-25.74,3.28-10.18,13-16.7,22.16-22.16a45.11,45.11,0,0,1,11.93-5.53,16,16,0,0,1,12.7,1.67c3,2,5,5.36,8.21,7,3.61,1.9,7.94,1.33,12,1.26a45.2,45.2,0,0,1,31.23,78.57Z" style="fill:#72351c"/><path d="M233.46,370.94a8.56,8.56,0,0,0,11.21.72c10.23-7.58,19.2-17,24.52-28.52,6.08-13.19,6.76-29.37-.58-41.91-6.2-10.59-17.16-17.43-28.08-23.05A50,50,0,0,0,227,273a19.27,19.27,0,0,0-14,2.27,12.12,12.12,0,0,0-5.48,12.52A45.72,45.72,0,0,0,188,274.67a25.23,25.23,0,0,0-14.88-1.08c-6.93,2-12,8.12-14.76,14.77a29.54,29.54,0,0,0-2.23,16.12,19.7,19.7,0,0,0,8.6,13.49c5.73,3.55,13,3.29,19.62,1.84s12.95-4,19.66-4.6,14.17,1,18.26,6.39c2.87,3.78,3.61,8.71,4.25,13.41l3.36,24.45a29.84,29.84,0,0,0,2.67,10.21A5.69,5.69,0,0,0,233.46,370.94Z" style="fill:#2f2e41"/><circle cx="493.13" cy="368.41" r="52.39" style="fill:#fda57d"/><path d="M546.42,359.09c-7.75,2.15-7.28-2-11.42-8.9s-9.54-15-17.58-14.67c-6.58.26-11.24,6.18-16,10.75-8.46,8.14-20.66,13.21-32.1,10.55s-20.74-14.62-18.07-26.06a24.09,24.09,0,0,1,12.05-14.91,48.46,48.46,0,0,1,18.87-5.25,100.22,100.22,0,0,1,43.15,5.06c9.55,3.34,19.12,8.67,23.78,17.65s8.68,21.94-.68,25.8Z" style="fill:#333"/></g></g></svg>