<svg xmlns="http://www.w3.org/2000/svg" viewBox="0 0 790.36 553"><g id="Layer_2" data-name="Layer 2"><g id="Layer_3" data-name="Layer 3"><path d="M336.24,21.25C304.11,9,270.16-1.17,235.51.11c-51,1.88-99.88,30.55-123.83,72.65-20.33,35.67-22.84,77.48-31.59,117.07C69.31,238.59,48.64,285,26.56,330.27,14.71,354.62,2.2,379.49.25,406.18c-2.69,37.06,16.24,74,45.93,98.63s69.13,37.65,108.7,40.49c21.07,1.51,43.07.11,61.78-9.06,19.79-9.71,34.22-27.24,54.09-36.8,18.42-8.87,40-10.11,60.64-9a288,288,0,0,1,79.15,15.75c28.9,10.15,55.77,24.85,84.57,35.15s61,16,90.51,7.45c27.7-8.07,49.57-27.67,69.29-47.51a841.29,841.29,0,0,0,88.37-104.54c17.8-24.93,34.36-51.24,42.23-80.31,15-55.57-5.66-118.27-51.58-156.22-38-31.44-89.11-45.09-139.09-53.37-45.58-7.55-98.28-8-140.23-27.7C414.6,60.38,378.19,37.22,336.24,21.25Z" style="fill:#f5f5f5"/><polygon points="461.04 451.15 461.04 477.64 468.57 477.64 467.11 449.21 461.04 451.15" style="fill:#aaabb0"/><polygon points="348 445.98 348 472.47 355.54 472.47 354.08 444.03 348 445.98" style="fill:#aaabb0"/><path d="M474.71,402.44h0a4.8,4.8,0,0,1,4.8,4.8v37a4.8,4.8,0,0,1-4.8,4.8h0a4.81,4.81,0,0,1-4.8-4.81v-37A4.8,4.8,0,0,1,474.71,402.44Z" style="fill:#aaabb0"/><path d="M349.84,392h0a4.81,4.81,0,0,1,4.81,4.81v47.31a4.81,4.81,0,0,1-4.81,4.81h0a4.8,4.8,0,0,1-4.8-4.81V396.85A4.81,4.81,0,0,1,349.84,392Z" style="fill:#aaabb0"/><path d="M492,120.08s9.72-4.13,11.18,0,2.18,39.85,2.18,39.85h-9.23Z" style="fill:#aaabb0"/><path d="M385.59,120.08s-9.73-4.13-11.19,0-2.18,39.85-2.18,39.85h9.23Z" style="fill:#aaabb0"/><polygon points="387.22 84.48 385.77 114.13 392.33 114.13 392.33 83.75 387.22 84.48" style="fill:#aaabb0"/><path d="M381.56,159.93l1.95-42.77s-.73-9.47,22.35-6.56,90.64,8.75,90.64,8.75v40.58Z" style="fill:#33323d"/><path d="M473.8,385l-3.65,65.36S416.69,480,351.8,451.83l5.84-68.76Z" style="fill:#33323d"/><polygon points="423.01 128 424.22 170.28 499.55 170.28 495.18 114.39 423.01 128" style="fill:#444053"/><rect x="359.82" y="357.21" width="70.93" height="90.14" style="fill:#4c4981"/><path d="M404.54,393.9s10.21-8,11.91-5.59-6.07,12.88-9.23,11.67S404.54,393.9,404.54,393.9Z" style="fill:#ffb9b9"/><rect x="222.39" y="157.72" width="465.47" height="233.48" style="fill:#33323d"/><path d="M381.69,82.86s-3.64-34,0-38.15S446.58,1.45,503.2,47.38c0,0,5.34.25,4.37,12.39a145.9,145.9,0,0,0,.12,23.09S385.83,91.61,381.69,82.86Z" style="fill:#33323d"/><path d="M381.69,82.86s-3.64-34,0-38.15S446.58,1.45,503.2,47.38c0,0,5.34.25,4.37,12.39a145.9,145.9,0,0,0,.12,23.09S385.83,91.61,381.69,82.86Z" style="opacity:0.10000000149011612;isolation:isolate"/><path d="M381.69,87.23s-3.64-34,0-38.15S446.58,5.82,503.2,51.75c0,0,5.34.25,4.37,12.4a145.78,145.78,0,0,0,.12,23.08S385.83,96,381.69,87.23Z" style="fill:#33323d"/><path d="M509.76,71.68s3.88,14.58,2.67,17-1,9.24-1,9.24.27,4.37-1.68,4.85-3.65.73-2.07,2.19,0,3.64,0,3.64-.85,3.41,0,5.6-5,3.09-4.49,5.83,2.13,10.45,0,10.69.73,9.72-1.19,9.72-3.28,17-3.28,17S485.24,146,476.25,149.2c0,0,.73-9.48,3.65-12.88s2-12.15,2-12.15l14.47-43.5Z" style="fill:#4cc9f0"/><path d="M437.59,272.73c-3.16,3.49-6.56-15.16-6.56-15.16s-9,12.4-14.82,4.14c-4-5.73-.86-21.94,1.45-31.35,1-4.19,1.91-7,1.91-7l13.13-2.19s0,2.86.33,6.33c.39,4.69,1.25,10.51,3.06,11.9C439.29,241.78,440.75,269.21,437.59,272.73Z" style="fill:#ae6e79"/><path d="M430.79,54.43s-22.85-.24-28.44,11.9-5.83,16.29-8,18.23,23.8,12.15,23.8,12.15l1.22,41.79a13.89,13.89,0,0,1,13.36-2.82c8.26,2.34,18.72,0,18.72,0s-.49-.89,6.32,0,28.43-10.54,28.43-10.54.36-18.28-.12-22.18,15.42-32.49,15.42-32.49,12.4-11.91-.48-16c0,0-4.56-6.87-16.28-6.8S430.79,54.43,430.79,54.43Z" style="opacity:0.10000000149011612;isolation:isolate"/><path d="M430.79,53.7s-22.85-.24-28.44,11.9-5.83,16.29-8,18.23S418.14,96,418.14,96l1.22,41.8A13.88,13.88,0,0,1,432.72,135c8.26,2.34,18.72,0,18.72,0s-.49-.89,6.32,0,28.43-10.54,28.43-10.54,8.5-13.85,8-17.73,17-33.3,17-33.3S513.89,57.83,501,53.7c0,0-4.56-6.87-16.28-6.8S430.79,53.7,430.79,53.7Z" style="fill:#4cc9f0"/><path d="M433.09,227.45c-5-1.56-12.87,1.88-15.37,2.92,1-4.19,1.91-7,1.91-7l13.12-2.19S432.78,224,433.09,227.45Z" style="opacity:0.10000000149011612;isolation:isolate"/><path d="M401.62,83.83h-7.05s-1.45,14.83,0,19.2,2.19,3.74,1.7,7,3.41,8.2,3.41,8.2.48,12.21,2.91,16.76-2.67,24.95-2.67,24.95A29.27,29.27,0,0,0,406,169.4c4.13,4.12,6.32,19.43,5.1,25.26s3.41,8,3.41,8,1.94,27.22,2.67,27.22,14.82-7.29,19.2-1l-3.41-25,.25-48.35s-4.62-6.08-2.19-11.43-1.94-18-1.94-18L422.76,98Z" style="fill:#4cc9f0"/><path d="M357.64,468s-10.21-2.19-10.45,0-12.15,24.54,2.68,31.1,54.42,20.66,118.82,2.43c0,0,4.13,1.46,3.16-7.53s-1-18.95-1-18.95-9.72-2.68-17-1.7S383.15,487.22,357.64,468Z" style="fill:#33323d"/><path d="M357.64,468s-10.21-2.19-10.45,0-12.15,24.54,2.68,31.1,54.42,20.66,118.82,2.43c0,0,4.13,1.46,3.16-7.53s-1-18.95-1-18.95-9.72-2.68-17-1.7S383.15,487.22,357.64,468Z" style="opacity:0.10000000149011612;isolation:isolate"/><path d="M357.64,465.1s-10.21-2.19-10.45,0-12.15,24.55,2.68,31.11,54.42,20.65,118.82,2.42c0,0,4.13,1.46,3.16-7.53s-1-19-1-19-9.72-2.68-17-1.7S383.15,484.3,357.64,465.1Z" style="fill:#33323d"/><path d="M417.15,92.56c-.62,3.57-2,7-2.26,10.6s1.17,7.71,4.5,9.13a15.31,15.31,0,0,1,2.69,1.09,5.93,5.93,0,0,1,2.08,4,22,22,0,0,1,.25,6c-.18,2-.61,4.17.38,5.93,1.75,3.11,6.29,2.65,9.74,1.78l-1.19,9.21a2.34,2.34,0,0,0,.38,2,2.31,2.31,0,0,0,1.75.37c3-.19,6.1-.6,8.67-2.18s4.49-4.53,4-7.5c-.57-3.44-4.12-6.17-3.64-9.63.37-2.67,3-4.37,4.71-6.43,3.11-3.76,3.28-9.47.84-13.73a15.64,15.64,0,0,0-12-7.38c-2.69-.27-5.49.06-8-.87a6.11,6.11,0,0,1-3.72-3.93" style="fill:#444053"/><path d="M332.37,416.74l2.54-5.54s13.74-12.79,16.89-13.69,16-4.8,18-4.8,37.43-1.95,37.43-1.95l4.12,9.73-44.53,9.77-15,10.94Z" style="fill:#f72585"/><path d="M439.35,267.54,437,285.44l-.9,6.88-10.45,1.46s-1.13-2.42-2.72-6.14c-4.85-11.28-14-34.55-8.69-38.57,7-5.35,8.75,12.4,8.75,12.4l8-3.9Z" style="fill:#ffb9b9"/><rect x="384.94" y="301.05" width="52.46" height="79.8" style="fill:#fff"/><rect x="384.94" y="301.05" width="52.46" height="79.8" style="opacity:0.10000000149011612;isolation:isolate"/><rect x="389.55" y="314.33" width="79.7" height="52.76" transform="translate(29.55 715.66) rotate(-81.59)" style="fill:#fff"/><rect x="403.96" y="313.65" width="41.02" height="27.16" transform="translate(38.68 699.28) rotate(-81.59)" style="fill:#4361ee"/><rect x="416.33" y="347.44" width="8.91" height="32.9" transform="translate(-0.74 726.93) rotate(-81.59)" style="fill:#4361ee"/><circle cx="451.44" cy="69.25" r="30.49" style="opacity:0.10000000149011612;isolation:isolate"/><circle cx="451.44" cy="68.52" r="30.49" style="fill:#ae6e79"/><path d="M426.29,91.12a3.49,3.49,0,0,1,.22-2.36c1.16-2.41,4.46-2.62,7.13-2.5,6.29.29,13.2.33,18.12-3.64,2-1.63,4.32-5.74,7.29-5,2.64.69,3.74,4.27,6.49,5.07,2,.57,4-.34,6.08-.73,2.91-.58,5.9-.1,8.86-.07s6.18-.54,8.2-2.71c2.72-2.91,2.28-7.47,2-11.47a61.77,61.77,0,0,1,1-15.41c1-5,2.51-10.68-.27-15-2.65-4.12-8.15-5.25-11.9-8.4-3.52-2.92-5.38-7.59-9.09-10.3-4.67-3.4-11-2.91-16.77-2.32l-12.46,1.32c-3.22.35-6.56.73-9.21,2.65-4.77,3.46-5.43,10.64-9.95,14.42-2,1.68-4.59,2.51-6.88,3.76s-4.51,3.24-4.78,5.83c-.22,2.19,1,4.21,1.54,6.32,1.36,5-.76,10.2-2.13,15.27s-1.62,11.22,2.34,14.58c.8.69,1.73,1.21,2.51,1.93,2.68,2.44,3,6.56,2.42,10.11" style="fill:#444053"/><ellipse cx="453.92" cy="104.79" rx="0.73" ry="1.82" style="fill:#444053"/><ellipse cx="453.92" cy="112.38" rx="0.73" ry="1.82" style="fill:#444053"/><path d="M437.75,272.68c.78-.9,1.3-3.2,1.6-6.24l-8.69-10.84S434.34,276.61,437.75,272.68Z" style="fill:#ae6e79"/><path d="M447.55,451.74s-14.26,22-58.81,19.68c-42-2.19-62.45-22.84-61.47-30.13s-2.68-25,6.31-30.14c5.21-2.95,12.07-1.2,16.91.8a9.58,9.58,0,0,0,10-1.8c4.43-4,12.68-8.48,25.71-4.95a9.21,9.21,0,0,0,5.1-.09c5.42-1.66,18.33-4.53,27.7,1.85a9.48,9.48,0,0,0,10.15.39l.13-.08c4.37-2.68,24.79,22.6,24.79,22.6S455.08,449.31,447.55,451.74Z" style="opacity:0.10000000149011612;isolation:isolate"/><path d="M447.55,452.47s-14.26,22-58.81,19.68c-42-2.19-62.45-22.84-61.47-30.13s-2.68-25,6.31-30.14c5.21-2.95,12.07-1.2,16.91.8a9.58,9.58,0,0,0,10-1.8c4.43-4,12.68-8.48,25.71-4.95a9.21,9.21,0,0,0,5.1-.09c5.42-1.66,18.33-4.53,27.7,1.85a9.5,9.5,0,0,0,10.15.39l.13-.08c4.37-2.68,24.79,22.6,24.79,22.6S455.08,450,447.55,452.47Z" style="fill:#f72585"/><circle cx="388.74" cy="432.05" r="29.04" transform="translate(-135.75 181.65) rotate(-22.5)" style="opacity:0.10000000149011612;isolation:isolate"/><circle cx="388.74" cy="432.78" r="29.04" transform="translate(-136.03 181.71) rotate(-22.5)" style="fill:#ffb9b9"/><path d="M380.42,407.68c-3.05.82-6.05,2.39-7.54,5-.9,1.56-1.21,3.44-2.51,4.73-1.83,1.85-4.93,1.88-7.42,2.92s-4.12,4.68-1.69,5.83c-2.54.13-4.42,2.47-4.73,4.8s.57,4.64,1.42,6.86c2.79,7.17,5.78,14.66,11.92,19.76,10,8.33,25.08,7.94,38.51,7.06a6.31,6.31,0,0,0,3.16-.73c1.46-1,1.64-2.81,1.88-4.43,1-6.91,4.76-13.18,7.21-19.78s3.46-14.35-.67-20.19C413.89,410.83,390.64,404.91,380.42,407.68Z" style="fill:#b96b6b"/><path d="M437,285.44l-.9,6.88-10.45,1.46s-1.13-2.42-2.72-6.14l13.9-2.61Z" style="opacity:0.10000000149011612;isolation:isolate"/><path d="M447.87,437.65l6.08-7-1.22-38.88a62.74,62.74,0,0,0,1.22-8.51c.24-4.13-3-13.36-3-13.36A29.14,29.14,0,0,1,453,364.5c1.46-2.92-2.05-9.48-2.05-9.48s-5.24-17-3.05-25.52-.53-13.36-.53-13.36-2.14-9.48-1.9-13.36-4.86-7.54-4.86-7.54l-3.89-9.48-15.55,2.92v32.81s1,31.34,0,37.42,1.94,11.91,1.94,11.91-1.7,9-.24,12.39,4.38,11.66,4.38,11.66a18.89,18.89,0,0,0,.48,8.87c1.46,4.26,0,6.68,0,6.68Z" style="fill:#f72585"/><g style="opacity:0.10000000149011612"><path d="M491.78,49.94a61.9,61.9,0,0,0-1.1,13,61.78,61.78,0,0,1,1.13-10.76c.64-3.24,1.46-6.72,1.28-10A58.06,58.06,0,0,1,491.78,49.94Z"/><path d="M414.73,80c-.78-.73-1.71-1.24-2.51-1.93a10,10,0,0,1-3.2-7.29c-.21,3.64.53,7.17,3.2,9.47.8.7,1.73,1.22,2.51,1.93a8.92,8.92,0,0,1,2.64,6.09C417.58,85.25,417,82.06,414.73,80Z"/><path d="M412.41,52.82a13.93,13.93,0,0,0-.4-4.59c-.42-1.56-1.18-3.08-1.45-4.65a5.06,5.06,0,0,1-.08.52c-.22,2.19,1,4.21,1.53,6.32A12.94,12.94,0,0,1,412.41,52.82Z"/><path d="M488.7,76.82c-2,2.19-5.24,2.73-8.2,2.71s-5.95-.51-8.86.08c-2,.41-4.09,1.32-6.08.73-2.75-.8-3.85-4.38-6.48-5.07-3-.79-5.28,3.32-7.29,5-4.92,3.94-11.83,3.9-18.12,3.64-2.67-.12-6,.09-7.13,2.51a3.43,3.43,0,0,0-.21,2.36l-8.91,1.4a16,16,0,0,1-.24,2.18l9.15-1.45a3.43,3.43,0,0,1,.21-2.36c1.15-2.42,4.46-2.63,7.13-2.51,6.29.3,13.2.33,18.12-3.64,2-1.63,4.32-5.74,7.29-4.95,2.63.68,3.73,4.27,6.48,5.07,2,.56,4.05-.35,6.08-.73,2.92-.59,5.9-.11,8.86-.08s6.18-.54,8.2-2.71,2.31-5.39,2.18-8.54A9.49,9.49,0,0,1,488.7,76.82Z"/></g><g style="opacity:0.10000000149011612"><path d="M421.21,111.84a14.34,14.34,0,0,0-2.69-1.1,7,7,0,0,1-3.52-3.6,7.79,7.79,0,0,0,4.25,5.79,15.31,15.31,0,0,1,2.69,1.09,4,4,0,0,1,1.29,1.51A5.59,5.59,0,0,0,421.21,111.84Z"/><path d="M433.66,129.57c-3.36.86-7.74,1.3-9.59-1.55a5.12,5.12,0,0,0,.58,2c1.58,2.81,5.43,2.71,8.7,2Z"/><path d="M447.28,131.57c.47,3-1.46,5.91-4,7.47s-5.66,2-8.66,2.18a2.86,2.86,0,0,1-1.42-.16,1.74,1.74,0,0,0,.88,2.29,1.72,1.72,0,0,0,1.26.06c3-.19,6.1-.6,8.67-2.19s4.5-4.52,4-7.49A8.2,8.2,0,0,0,447.28,131.57Z"/><path d="M450.52,105.18a12,12,0,0,1-2.19,10.32c-1.72,2.08-4.33,3.75-4.71,6.43a6.09,6.09,0,0,0,.73,3.55,5.24,5.24,0,0,1,0-1.37c.37-2.67,3-4.37,4.71-6.43A12.27,12.27,0,0,0,450.52,105.18Z"/></g><g style="opacity:0.10000000149011612"><path d="M363,421.43c2.48-1,5.58-1.06,7.42-2.91,1.3-1.3,1.61-3.17,2.51-4.73,1.46-2.59,4.48-4.16,7.53-5C390.62,406,413.89,412,420,420.54a15.82,15.82,0,0,1,2.78,8.8A16.46,16.46,0,0,0,420,419.08c-6.07-8.58-29.32-14.5-39.54-11.72-3.05.82-6.06,2.39-7.54,5-.89,1.55-1.21,3.43-2.5,4.73-1.85,1.84-4.95,1.88-7.42,2.91-1.89.78-3.29,3.09-2.78,4.63A5,5,0,0,1,363,421.43Z"/><path d="M356.54,432c.31-2.33,2.19-4.66,4.73-4.79a2,2,0,0,1-1.11-1.25,5.67,5.67,0,0,0-3.65,4.59,7.57,7.57,0,0,0,0,1.78A1.23,1.23,0,0,0,356.54,432Z"/></g><rect x="444.79" y="168.06" width="66.5" height="86.45" style="fill:#fff"/><rect x="444.79" y="168.06" width="66.5" height="86.45" style="opacity:0.10000000149011612;isolation:isolate"/><rect x="477.79" y="177.91" width="66.34" height="86.51" transform="translate(-30.1 89.82) rotate(-9.76)" style="fill:#fff"/><rect x="488.39" y="240.81" width="15.59" height="20.32" transform="translate(-35.36 87.75) rotate(-9.76)" style="fill:#4361ee"/><rect x="509.65" y="237.15" width="15.59" height="20.32" transform="translate(-34.44 91.3) rotate(-9.76)" style="fill:#4361ee"/><rect x="485.88" y="211.11" width="54.66" height="20.42" transform="translate(-30.05 90.05) rotate(-9.74)" style="fill:#4361ee"/><rect x="480.05" y="187.21" width="54.66" height="4.55" transform="translate(-24.75 88.6) rotate(-9.74)" style="fill:#4361ee"/><rect x="481.82" y="195.47" width="54.66" height="4.55" transform="translate(-26.12 89.02) rotate(-9.74)" style="fill:#4361ee"/><path d="M481.93,144.34S451.44,175,466.75,182.73,492,156.85,492,156.85l2.42-7.65Z" style="fill:#ae6e79"/><path d="M479.26,141.63,475.5,150s18.59,2.61,22.47,8.23l-2.3-14.69-2.74-6.27Z" style="opacity:0.10000000149011612;isolation:isolate"/><path d="M480,140.9l-3.77,8.33s18.59,2.61,22.48,8.23l-2.3-14.69-2.74-6.27Z" style="fill:#4cc9f0"/><polygon points="592.52 293.97 592.12 294.25 592.68 294.5 593.27 294.45 593.35 294.03 592.52 293.97" style="fill:#464a5f"/><polygon points="592.52 293.97 592.12 294.25 592.68 294.5 593.27 294.45 593.35 294.03 592.52 293.97" style="opacity:0.10000000149011612;isolation:isolate"/><polygon points="592.52 293.97 592.12 294.24 591.79 293.84 591.99 293.52 592.17 293.46 592.52 293.97" style="fill:#9c9ca1"/><polygon points="592.52 293.97 592.12 294.24 591.79 293.84 591.99 293.52 592.17 293.46 592.52 293.97" style="opacity:0.10000000149011612;isolation:isolate"/><path d="M664.28,243.59l-29.85-43.11a3.55,3.55,0,0,0-4.93-.91h0L563,245.24a3.56,3.56,0,0,0-.92,4.95l29.76,43.65Z" style="fill:#9c9ca1"/><path d="M664.28,243.59l-29.85-43.11a3.55,3.55,0,0,0-4.93-.91h0L563,245.24a3.56,3.56,0,0,0-.92,4.95l29.76,43.65Z" style="opacity:0.10000000149011612;isolation:isolate"/><path d="M665,243.69l-29.85-43.1a3.55,3.55,0,0,0-4.94-.92h0l-66.52,45.69a3.56,3.56,0,0,0-.93,4.95L592.52,294Z" style="fill:#e5e5e5"/><path d="M690,252.21l-24.79-8L592.68,294.5l25.18,8.24a3.81,3.81,0,0,0,3.37-.51l68.93-48.67a.72.72,0,0,0,.28-1A.76.76,0,0,0,690,252.21Z" style="fill:#464a5f"/><path d="M690,252.21l-24.79-8L592.68,294.5l25.18,8.24a3.81,3.81,0,0,0,3.37-.51l68.93-48.67a.72.72,0,0,0,.28-1A.76.76,0,0,0,690,252.21Z" style="fill:#e5e5e5"/><path d="M689.8,251.71l-24.78-8L592.52,294l25.18,8.23a3.77,3.77,0,0,0,3.38-.51L690,253.05a.74.74,0,0,0,.25-1A.76.76,0,0,0,689.8,251.71Z" style="fill:#bebfc1"/><g style="opacity:0.10000000149011612"><path d="M653.3,241.77l-1.83-2.63a.74.74,0,0,0-1-.18l-2.72,1.82a.73.73,0,0,0-.2,1l1.69,2.59a.73.73,0,0,0,1,.21l2.87-1.8A.73.73,0,0,0,653.3,241.77Z"/><path d="M648.42,245.15l-1.84-2.62a.74.74,0,0,0-1-.18l-2.71,1.83a.74.74,0,0,0-.21,1l1.69,2.58a.72.72,0,0,0,1,.22l2.87-1.8a.73.73,0,0,0,.21-1Z"/><path d="M643.28,248.7l-1.83-2.62a.74.74,0,0,0-1-.18l-2.72,1.83a.73.73,0,0,0-.2,1l1.68,2.59a.73.73,0,0,0,1,.21l2.86-1.8a.73.73,0,0,0,.22-1Z"/><path d="M638.09,252.3l-1.84-2.62a.74.74,0,0,0-1-.18l-2.71,1.83a.73.73,0,0,0-.2,1L634,254.9a.72.72,0,0,0,1,.22l2.87-1.8a.73.73,0,0,0,.21-1Z"/><path d="M632.9,255.9l-1.84-2.62a.72.72,0,0,0-1-.18l-2.71,1.83a.73.73,0,0,0-.21,1l1.69,2.59a.73.73,0,0,0,1,.22l2.87-1.81a.73.73,0,0,0,.21-1Z"/><path d="M627.93,259.82l-2.28-3.25a.34.34,0,0,0-.46-.09h0l-3.34,2.25a.34.34,0,0,0-.1.46h0l2.09,3.22a.34.34,0,0,0,.46.1l3.53-2.19a.34.34,0,0,0,.12-.46Z"/><path d="M622.74,263.41l-2.3-3.25a.34.34,0,0,0-.46-.09h0l-3.34,2.26a.33.33,0,0,0-.09.46l2.09,3.21a.34.34,0,0,0,.44.12l0,0,3.52-2.18a.33.33,0,0,0,.16-.44A.25.25,0,0,0,622.74,263.41Z"/><path d="M618.14,266.6l-2.28-3.22a.33.33,0,0,0-.46-.08l-3.34,2.24a.35.35,0,0,0-.09.47l2.09,3.21a.34.34,0,0,0,.46.1l3.53-2.18a.35.35,0,0,0,.16-.45Z"/><path d="M613,270.16l-2.28-3.26a.34.34,0,0,0-.46-.08l-3.34,2.25a.34.34,0,0,0-.09.46h0l2.09,3.21a.34.34,0,0,0,.46.1l3.53-2.18a.34.34,0,0,0,.12-.47Z"/><path d="M608,273.58l-2.28-3.25a.34.34,0,0,0-.46-.09h0l-3.34,2.26a.32.32,0,0,0-.1.45h0l2.09,3.21a.34.34,0,0,0,.46.1l3.53-2.18a.34.34,0,0,0,.13-.46Z"/><path d="M603,277.07l-2.26-3.26a.33.33,0,0,0-.46-.08L597,276a.34.34,0,0,0-.09.47h0l2.09,3.21a.34.34,0,0,0,.46.11l3.53-2.19a.34.34,0,0,0,.1-.46Z"/><path d="M598,280.51l-2.28-3.25a.32.32,0,0,0-.45-.09h0L592,279.41a.33.33,0,0,0-.09.46h0l2.09,3.22a.34.34,0,0,0,.46.1l3.53-2.19a.33.33,0,0,0,.11-.46Z"/><path d="M650,237l-1.84-2.62a.72.72,0,0,0-1-.18l-2.69,1.83a.73.73,0,0,0-.2,1l1.68,2.58a.73.73,0,0,0,1,.22l2.87-1.8A.74.74,0,0,0,650,237Z"/><path d="M642.84,226.65,641,224a.73.73,0,0,0-1-.18l-2.72,1.83a.73.73,0,0,0-.21,1l1.69,2.59a.73.73,0,0,0,1,.22l2.88-1.8A.74.74,0,0,0,642.84,226.65Z"/><path d="M645.13,240.4l-1.84-2.61a.73.73,0,0,0-1-.18l-2.72,1.83a.72.72,0,0,0-.2,1l1.68,2.59a.73.73,0,0,0,1,.22l2.87-1.8a.73.73,0,0,0,.22-1Z"/><path d="M640,244l-1.84-2.62a.72.72,0,0,0-1-.18l-2.71,1.8a.73.73,0,0,0-.21,1l1.69,2.58a.71.71,0,0,0,1,.21l2.87-1.8A.72.72,0,0,0,640,244Z"/><path d="M634.8,247.56,633,244.93a.74.74,0,0,0-1-.18l-2.72,1.86a.72.72,0,0,0-.2,1l1.69,2.59a.72.72,0,0,0,1,.21l2.86-1.8a.73.73,0,0,0,.23-1Z"/><path d="M638.06,230.2l-1.83-2.62a.74.74,0,0,0-1-.18l-2.72,1.83a.72.72,0,0,0-.2,1L634,232.8a.73.73,0,0,0,1,.22l2.87-1.8a.73.73,0,0,0,.21-1Z"/><path d="M632.93,233.76l-1.83-2.63a.75.75,0,0,0-1-.18l-2.71,1.81a.72.72,0,0,0-.2,1l1.68,2.59a.74.74,0,0,0,1,.21l2.87-1.8A.72.72,0,0,0,632.93,233.76Z"/><path d="M627.73,237.35l-1.83-2.62a.75.75,0,0,0-1-.19l-2.72,1.86a.74.74,0,0,0-.19,1l1.68,2.58a.72.72,0,0,0,1,.22l2.86-1.8a.73.73,0,0,0,.22-1Z"/><path d="M629.61,251.15l-1.84-2.62a.74.74,0,0,0-1-.19l-2.7,1.84a.74.74,0,0,0-.2,1l1.66,2.58a.72.72,0,0,0,1,.22l2.88-1.81a.73.73,0,0,0,.21-1Z"/><path d="M624.42,254.74l-1.84-2.61a.72.72,0,0,0-1-.18l-2.71,1.82a.74.74,0,0,0-.21,1l1.69,2.59a.73.73,0,0,0,1,.22l2.87-1.8a.73.73,0,0,0,.22-1Z"/><path d="M619.45,258.67l-2.28-3.25a.32.32,0,0,0-.45-.1h0l-3.34,2.25a.33.33,0,0,0-.1.45h0l2.09,3.21a.32.32,0,0,0,.45.11h0l3.53-2.19a.33.33,0,0,0,.12-.46Z"/><path d="M614.85,261.85l-2.28-3.26a.34.34,0,0,0-.46-.08l-3.33,2.25a.35.35,0,0,0-.09.47l2.09,3.21a.34.34,0,0,0,.46.1l3.53-2.18a.34.34,0,0,0,.13-.44Z"/><path d="M609.71,265.41l-2.29-3.25a.33.33,0,0,0-.46-.08l-3.33,2.24a.33.33,0,0,0-.1.46h0l2.09,3.23a.35.35,0,0,0,.46.1l3.53-2.19a.34.34,0,0,0,.12-.47Z"/><path d="M604.72,268.87l-2.28-3.26a.34.34,0,0,0-.46-.09h0l-3.34,2.22a.33.33,0,0,0-.1.45h0l2.1,3.21a.34.34,0,0,0,.46.11l3.52-2.19a.33.33,0,0,0,.11-.46Z"/><path d="M636.58,239l-1.84-2.62a.73.73,0,0,0-1-.18L631,238.06a.72.72,0,0,0-.2,1l1.68,2.59a.73.73,0,0,0,1,.21l2.87-1.8a.72.72,0,0,0,.21-1Z"/><path d="M631.38,242.62,629.54,240a.73.73,0,0,0-1-.19l-2.71,1.84a.74.74,0,0,0-.21,1l1.69,2.58a.72.72,0,0,0,1,.22l2.88-1.81a.73.73,0,0,0,.2-1Z"/><path d="M626.2,246.22l-1.84-2.62a.72.72,0,0,0-1-.18l-2.72,1.83a.72.72,0,0,0-.2,1l1.69,2.59a.73.73,0,0,0,1,.22l2.86-1.81a.73.73,0,0,0,.22-1Z"/><path d="M621,249.81l-1.84-2.62a.73.73,0,0,0-1-.18l-2.72,1.83a.72.72,0,0,0-.2,1l1.68,2.62a.73.73,0,0,0,1,.22l2.87-1.8a.72.72,0,0,0,.24-1Z"/><path d="M616.07,253.73l-2.28-3.25a.34.34,0,0,0-.46-.09h0L610,252.64a.34.34,0,0,0-.09.46l2.09,3.23a.33.33,0,0,0,.45.1h0l3.53-2.19a.33.33,0,0,0,.12-.45Z"/><path d="M611.44,256.92l-2.28-3.26a.35.35,0,0,0-.47-.08l-3.33,2.24a.35.35,0,0,0-.09.47l2.09,3.21a.34.34,0,0,0,.46.11l3.53-2.19a.34.34,0,0,0,.12-.46Z"/><path d="M606.29,260.46,604,257.2a.33.33,0,0,0-.46-.08l-3.34,2.25a.35.35,0,0,0-.1.46l2.1,3.22a.34.34,0,0,0,.46.1l3.52-2.19a.33.33,0,0,0,.15-.44Z"/><path d="M601.31,263.93,599,260.68a.35.35,0,0,0-.47-.09h0l-3.34,2.25a.34.34,0,0,0-.09.46l2.1,3.22a.31.31,0,0,0,.43.11h0l3.53-2.19a.33.33,0,0,0,.14-.44Z"/><path d="M599.73,272.31l-2.28-3.25A.34.34,0,0,0,597,269l-3.34,2.25a.33.33,0,0,0-.1.45h0l2.09,3.22a.35.35,0,0,0,.46.1l3.53-2.19a.33.33,0,0,0,.12-.46Z"/><path d="M594.75,275.77l-2.29-3.25a.32.32,0,0,0-.45-.09h0l-3.34,2.25a.33.33,0,0,0-.1.46h0l2.09,3.22a.34.34,0,0,0,.46.1l3.53-2.19a.34.34,0,0,0,.13-.46Z"/><path d="M602.58,255.11l-2.19-3.06a.45.45,0,0,0-.62-.11l-3.15,2.12a.46.46,0,0,0-.13.62h0l2,3a.44.44,0,0,0,.61.15h0l3.33-2.09a.45.45,0,0,0,.18-.61Z"/><path d="M597.59,258.56l-2.15-3.06a.46.46,0,0,0-.62-.12h0l-3.15,2.15a.45.45,0,0,0-.13.61h0l2,3a.47.47,0,0,0,.62.14l3.33-2.09a.46.46,0,0,0,.17-.62Z"/><path d="M592.6,262,590.45,259a.45.45,0,0,0-.62-.11L586.68,261a.45.45,0,0,0-.12.62h0l2,3a.43.43,0,0,0,.6.14h0l3.33-2.1a.44.44,0,0,0,.15-.61Z"/><path d="M587.68,265.56l-2.28-3.26a.34.34,0,0,0-.46-.08l-3.34,2.25a.35.35,0,0,0-.09.47l2.09,3.21a.34.34,0,0,0,.46.1l3.53-2.18a.32.32,0,0,0,.14-.43A.22.22,0,0,0,587.68,265.56Z"/><path d="M646.69,231.92l-2-2.81a.72.72,0,0,0-1-.17l-7.71,5.4a.73.73,0,0,0-.19,1l1.86,2.87a.74.74,0,0,0,1,.2h0l7.83-5.48A.73.73,0,0,0,646.69,231.92Z"/><path d="M596.31,267.28l-2.42-3.42a.34.34,0,0,0-.46-.09h0l-8.33,5.83a.33.33,0,0,0-.08.45l2.27,3.52a.33.33,0,0,0,.46.1h0l8.46-5.93A.35.35,0,0,0,596.31,267.28Z"/><path d="M622.79,241.13l-2.23-3.27a.34.34,0,0,0-.46-.09l-18.49,12.48a.34.34,0,0,0-.09.46l2.28,3.5a.33.33,0,0,0,.46.1h0l18.43-12.72a.32.32,0,0,0,.09-.46Z"/></g><path d="M653.79,241.86,652,239.23a.72.72,0,0,0-1-.18l-2.71,1.84a.73.73,0,0,0-.21,1l1.69,2.59a.73.73,0,0,0,1,.22l2.87-1.81a.73.73,0,0,0,.21-1Z" style="fill:#464a5f"/><path d="M648.88,245.24,647,242.62a.74.74,0,0,0-1-.18l-2.71,1.83a.73.73,0,0,0-.21,1l1.68,2.59a.73.73,0,0,0,1,.22l2.87-1.8a.73.73,0,0,0,.21-1Z" style="fill:#464a5f"/><path d="M643.77,248.8l-1.83-2.62a.73.73,0,0,0-1-.18l-2.71,1.83a.73.73,0,0,0-.2,1l1.68,2.59a.74.74,0,0,0,1,.21l2.87-1.8a.73.73,0,0,0,.21-1Z" style="fill:#464a5f"/><path d="M638.57,252.39l-1.84-2.62a.72.72,0,0,0-1-.19L633,251.42a.73.73,0,0,0-.2,1h0l1.68,2.59a.74.74,0,0,0,1,.22l2.86-1.81a.74.74,0,0,0,.23-1Z" style="fill:#464a5f"/><path d="M633.38,256l-1.84-2.61a.72.72,0,0,0-1-.19L627.84,255a.73.73,0,0,0-.2,1l1.68,2.59a.73.73,0,0,0,1,.22l2.87-1.81a.73.73,0,0,0,.21-1Z" style="fill:#464a5f"/><path d="M628.41,259.91l-2.28-3.26a.32.32,0,0,0-.45-.09h0l-3.34,2.25a.33.33,0,0,0-.1.45h0l2.09,3.21a.34.34,0,0,0,.46.11l3.53-2.19a.33.33,0,0,0,.12-.46Z" style="fill:#464a5f"/><path d="M623.22,263.5l-2.28-3.25a.35.35,0,0,0-.47-.09h0l-3.33,2.25a.35.35,0,0,0-.1.46h0l2.09,3.23a.32.32,0,0,0,.45.09h0l3.53-2.19a.34.34,0,0,0,.11-.47Z" style="fill:#464a5f"/><path d="M618.62,266.69l-2.28-3.26a.33.33,0,0,0-.46-.08l-3.34,2.21a.35.35,0,0,0-.09.47l2.09,3.21a.35.35,0,0,0,.46.11l3.53-2.19a.34.34,0,0,0,.1-.46Z" style="fill:#464a5f"/><path d="M613.47,270.25,611.19,267a.33.33,0,0,0-.46-.08l-3.34,2.25a.34.34,0,0,0-.09.46h0l2.09,3.22a.35.35,0,0,0,.46.1l3.53-2.19a.33.33,0,0,0,.15-.45A.21.21,0,0,0,613.47,270.25Z" style="fill:#464a5f"/><path d="M608.49,273.7l-2.28-3.25a.34.34,0,0,0-.46-.09h0l-3.34,2.25a.34.34,0,0,0-.1.46h0l2.1,3.22a.32.32,0,0,0,.45.1h0l3.52-2.19a.34.34,0,0,0,.13-.46Z" style="fill:#464a5f"/><path d="M603.5,277.15l-2.28-3.25a.33.33,0,0,0-.46-.08l-3.34,2.24a.35.35,0,0,0-.09.47l2.09,3.21a.34.34,0,0,0,.46.1l3.53-2.18a.34.34,0,0,0,.12-.46Z" style="fill:#464a5f"/><path d="M598.52,280.6l-2.29-3.25a.32.32,0,0,0-.45-.09h0l-3.33,2.26a.32.32,0,0,0-.1.45h0l2.09,3.21a.34.34,0,0,0,.45.11h0l3.53-2.18a.34.34,0,0,0,.13-.46Z" style="fill:#464a5f"/><path d="M650.5,237.13l-1.84-2.62a.74.74,0,0,0-1-.19L645,236.16a.74.74,0,0,0-.2,1l1.68,2.58a.71.71,0,0,0,1,.22l2.88-1.81a.72.72,0,0,0,.2-1Z" style="fill:#464a5f"/><path d="M643.32,226.74l-1.84-2.62a.72.72,0,0,0-1-.18l-2.72,1.83a.73.73,0,0,0-.2,1l1.69,2.59a.73.73,0,0,0,1,.22l2.88-1.8a.74.74,0,0,0,.21-1Z" style="fill:#464a5f"/><path d="M645.61,240.49l-1.84-2.63a.73.73,0,0,0-1-.18l-2.72,1.83a.73.73,0,0,0-.2,1l1.69,2.59a.72.72,0,0,0,1,.22l2.88-1.8A.73.73,0,0,0,645.61,240.49Z" style="fill:#464a5f"/><path d="M640.48,244l-1.81-2.61a.72.72,0,0,0-1-.19L635,243.07a.72.72,0,0,0-.2,1l1.68,2.59a.72.72,0,0,0,1,.21l2.87-1.8a.72.72,0,0,0,.18-1Z" style="fill:#464a5f"/><path d="M635.29,247.64,633.45,245a.72.72,0,0,0-1-.18l-2.71,1.83a.74.74,0,0,0-.21,1l1.69,2.59a.73.73,0,0,0,1,.22l2.87-1.81a.73.73,0,0,0,.21-1Z" style="fill:#464a5f"/><path d="M638.55,230.29l-1.84-2.64a.74.74,0,0,0-1-.18L633,229.3a.73.73,0,0,0-.2,1l1.68,2.58a.73.73,0,0,0,1,.22l2.87-1.8A.73.73,0,0,0,638.55,230.29Z" style="fill:#464a5f"/><path d="M633.41,233.84l-1.83-2.62a.74.74,0,0,0-1-.18l-2.72,1.83a.73.73,0,0,0-.2,1l1.68,2.59a.74.74,0,0,0,1,.22l2.87-1.81a.74.74,0,0,0,.21-1Z" style="fill:#464a5f"/><path d="M628.22,237.44l-1.83-2.62a.73.73,0,0,0-1-.18l-2.71,1.83a.72.72,0,0,0-.2,1l1.68,2.6a.74.74,0,0,0,1,.22l2.86-1.81a.73.73,0,0,0,.22-1Z" style="fill:#464a5f"/><path d="M630.09,251.24l-1.84-2.62a.73.73,0,0,0-1-.18l-2.72,1.81a.74.74,0,0,0-.2,1l1.69,2.59a.72.72,0,0,0,1,.21l2.87-1.8A.74.74,0,0,0,630.09,251.24Z" style="fill:#464a5f"/><path d="M624.9,254.83l-1.84-2.62a.73.73,0,0,0-1-.18l-2.72,1.87a.73.73,0,0,0-.21,1l1.69,2.59a.72.72,0,0,0,1,.22l2.87-1.8a.72.72,0,0,0,.25-1A.21.21,0,0,1,624.9,254.83Z" style="fill:#464a5f"/><path d="M619.93,258.75l-2.28-3.25a.32.32,0,0,0-.45-.09h0l-3.31,2.25a.33.33,0,0,0-.1.45h0l2.09,3.21a.33.33,0,0,0,.45.11h0l3.53-2.18a.35.35,0,0,0,.08-.48Z" style="fill:#464a5f"/><path d="M615.34,261.92l-2.28-3.26a.35.35,0,0,0-.47-.08l-3.34,2.24a.36.36,0,0,0-.09.47l2.1,3.22a.34.34,0,0,0,.46.1l3.52-2.19a.33.33,0,0,0,.14-.44A.21.21,0,0,0,615.34,261.92Z" style="fill:#464a5f"/><path d="M610.19,265.5l-2.28-3.25a.33.33,0,0,0-.46-.08l-3.34,2.24a.34.34,0,0,0-.1.47l2.09,3.21a.34.34,0,0,0,.46.1l3.53-2.18a.32.32,0,0,0,.15-.43Z" style="fill:#464a5f"/><path d="M605.21,269,603,265.7a.34.34,0,0,0-.46-.09h0l-3.34,2.26a.33.33,0,0,0-.09.46l2.09,3.21a.34.34,0,0,0,.46.1l3.53-2.18a.34.34,0,0,0,.11-.45Z" style="fill:#464a5f"/><path d="M637.06,239.11l-1.83-2.62a.72.72,0,0,0-1-.18l-2.72,1.83a.73.73,0,0,0-.2,1l1.69,2.59a.73.73,0,0,0,1,.21l2.86-1.8a.73.73,0,0,0,.21-1Z" style="fill:#464a5f"/><path d="M631.87,242.71,630,240.09a.73.73,0,0,0-1-.19l-2.72,1.84a.72.72,0,0,0-.2,1l1.68,2.59a.73.73,0,0,0,1,.22l2.87-1.81a.73.73,0,0,0,.21-1Z" style="fill:#464a5f"/><path d="M626.68,246.3l-1.86-2.61a.74.74,0,0,0-1-.18l-2.66,1.82a.73.73,0,0,0-.2,1l1.68,2.59a.73.73,0,0,0,1,.21l2.87-1.8a.72.72,0,0,0,.17-1Z" style="fill:#464a5f"/><path d="M621.48,249.9l-1.84-2.62a.73.73,0,0,0-1-.18l-2.72,1.83a.73.73,0,0,0-.2,1l1.69,2.59a.72.72,0,0,0,1,.22l2.88-1.8a.74.74,0,0,0,.21-1Z" style="fill:#464a5f"/><path d="M616.52,253.82l-2.28-3.25a.33.33,0,0,0-.47-.09h0l-3.34,2.25a.34.34,0,0,0-.09.46l2.09,3.22a.34.34,0,0,0,.47.1h0l3.52-2.19a.33.33,0,0,0,.13-.45Z" style="fill:#464a5f"/><path d="M611.92,257l-2.28-3.25a.32.32,0,0,0-.45-.09h0l-3.32,2.24a.35.35,0,0,0-.09.47l2.09,3.21a.34.34,0,0,0,.46.1l3.53-2.18a.34.34,0,0,0,.1-.47Z" style="fill:#464a5f"/><path d="M606.78,260.57l-2.29-3.26a.33.33,0,0,0-.46-.08l-3.33,2.25a.33.33,0,0,0-.1.46l2.09,3.22a.34.34,0,0,0,.46.1l3.53-2.19a.33.33,0,0,0,.13-.45Z" style="fill:#464a5f"/><path d="M601.79,264l-2.28-3.25a.33.33,0,0,0-.47-.09h0l-3.33,2.25a.33.33,0,0,0-.1.45h0l2.1,3.22a.32.32,0,0,0,.45.1h0l3.52-2.19a.34.34,0,0,0,.12-.47Z" style="fill:#464a5f"/><path d="M600.22,272.41l-2.28-3.26a.35.35,0,0,0-.47-.08l-3.34,2.24a.35.35,0,0,0-.09.47l2.09,3.22a.35.35,0,0,0,.46.1l3.53-2.19a.33.33,0,0,0,.14-.44A.21.21,0,0,0,600.22,272.41Z" style="fill:#464a5f"/><path d="M595.24,275.86,593,272.61a.32.32,0,0,0-.46-.09h0l-3.34,2.25a.34.34,0,0,0-.1.46l2.1,3.21a.33.33,0,0,0,.46.11h0l3.52-2.19a.33.33,0,0,0,.15-.44Z" style="fill:#464a5f"/><path d="M603.06,255.2l-2.15-3.07a.46.46,0,0,0-.62-.1l-3.17,2.12a.45.45,0,0,0-.13.62l2,3a.46.46,0,0,0,.62.13l3.32-2.09a.45.45,0,0,0,.18-.61Z" style="fill:#464a5f"/><path d="M598.07,258.65l-2.15-3.06a.45.45,0,0,0-.62-.12h0l-3.15,2.13a.44.44,0,0,0-.12.61l2,3a.47.47,0,0,0,.62.14l3.33-2.1a.45.45,0,0,0,.12-.63Z" style="fill:#464a5f"/><path d="M593.08,262.11,590.9,259a.44.44,0,0,0-.61-.11l-3.16,2.12a.46.46,0,0,0-.13.62l2,3a.44.44,0,0,0,.62.13l3.33-2.09a.44.44,0,0,0,.18-.6Z" style="fill:#464a5f"/><path d="M588.17,265.66l-2.28-3.26a.35.35,0,0,0-.47-.08l-3.34,2.24a.35.35,0,0,0-.08.47l2.09,3.22a.35.35,0,0,0,.46.1l3.53-2.19a.34.34,0,0,0,.12-.46Z" style="fill:#464a5f"/><path d="M647.18,232l-1.95-2.82a.73.73,0,0,0-1-.17l-7.76,5.4a.74.74,0,0,0-.19,1l1.87,2.87a.74.74,0,0,0,1,.2h0L647,233A.72.72,0,0,0,647.18,232Z" style="fill:#464a5f"/><path d="M596.79,267.36l-2.42-3.42a.33.33,0,0,0-.46-.08h0l-8.32,5.84a.33.33,0,0,0-.09.46l2.28,3.51a.33.33,0,0,0,.46.1h0l8.47-5.92A.36.36,0,0,0,596.79,267.36Z" style="fill:#464a5f"/><path d="M623.27,241.21,621.09,238a.35.35,0,0,0-.47-.09l-18.48,12.46a.33.33,0,0,0-.1.45h0l2.28,3.5a.33.33,0,0,0,.46.1h0l18.43-12.71A.33.33,0,0,0,623.27,241.21Z" style="fill:#464a5f"/><path d="M623.36,230.07l-9.83-14.28a1.82,1.82,0,0,0-2.52-.48l-27.07,18.18a1.84,1.84,0,0,0-.49,2.54h0l10,14.69a1.83,1.83,0,0,0,2.53.49h0l26.87-18.6a1.8,1.8,0,0,0,.47-2.52Z" style="opacity:0.10000000149011612;isolation:isolate"/><path d="M623.81,230.16,614,215.88a1.84,1.84,0,0,0-2.53-.48l-27,18.19a1.83,1.83,0,0,0-.51,2.53h0l10,14.68a1.83,1.83,0,0,0,2.53.49h0l26.89-18.6a1.8,1.8,0,0,0,.45-2.52Z" style="fill:#d4d4d6"/><path d="M684.75,253.24l-20.85-7L597,292.74l20.7,6.74a3.78,3.78,0,0,0,3.34-.49l63.87-44.41a.73.73,0,0,0-.19-1.34Z" style="fill:#f72585"/></g></g></svg>