<svg xmlns="http://www.w3.org/2000/svg" viewBox="0 0 981.34 682"><g id="Layer_2" data-name="Layer 2"><g id="Layer_4" data-name="Layer 4"><rect x="139.07" y="273.59" width="117.41" height="35.35" rx="6.66" style="fill:#f5f5f5"/><rect x="261.53" y="308.94" width="117.41" height="35.35" rx="6.66" style="fill:#6c63ff;opacity:0.10000000149011612;isolation:isolate"/><rect x="384.62" y="344.29" width="117.41" height="35.35" rx="6.66" style="fill:#f5f5f5"/><rect x="139.07" y="220.57" width="117.41" height="35.35" rx="6.66" style="fill:#f5f5f5"/><rect x="261.53" y="255.92" width="117.41" height="35.35" rx="6.66" style="fill:#6c63ff;opacity:0.10000000149011612;isolation:isolate"/><rect x="384.62" y="291.27" width="117.41" height="35.35" rx="6.66" style="fill:#f5f5f5"/><rect x="520.97" y="273.59" width="117.41" height="35.35" rx="6.66" style="fill:#f5f5f5"/><rect x="643.43" y="308.94" width="117.41" height="35.35" rx="6.66" style="fill:#f5f5f5"/><rect x="766.52" y="344.29" width="117.41" height="35.35" rx="6.66" style="fill:#f5f5f5"/><rect x="520.97" y="220.57" width="117.41" height="35.35" rx="6.66" style="fill:#f5f5f5"/><rect x="643.43" y="255.92" width="117.41" height="35.35" rx="6.66" style="fill:#f5f5f5"/><rect x="766.52" y="291.27" width="117.41" height="35.35" rx="6.66" style="fill:#f5f5f5"/><rect x="139.07" y="149.24" width="117.41" height="35.35" rx="6.66" style="fill:#f5f5f5"/><rect x="261.53" y="184.59" width="117.41" height="35.35" rx="6.66" style="fill:#6c63ff;opacity:0.10000000149011612;isolation:isolate"/><rect x="384.62" y="220.57" width="117.41" height="35.35" rx="6.66" style="fill:#f5f5f5"/><rect x="139.07" y="96.21" width="117.41" height="35.35" rx="6.66" style="fill:#f5f5f5"/><rect x="261.53" y="131.56" width="117.41" height="35.35" rx="6.66" style="fill:#6c63ff;opacity:0.10000000149011612;isolation:isolate"/><rect x="384.62" y="166.91" width="117.41" height="35.35" rx="6.66" style="fill:#f5f5f5"/><rect x="520.97" y="149.24" width="117.41" height="35.35" rx="6.66" style="fill:#f5f5f5"/><rect x="643.43" y="184.59" width="117.41" height="35.35" rx="6.66" style="fill:#f5f5f5"/><rect x="766.52" y="220.57" width="117.41" height="35.35" rx="6.66" style="fill:#f5f5f5"/><rect x="520.97" y="96.21" width="117.41" height="35.35" rx="6.66" style="fill:#f5f5f5"/><rect x="643.43" y="131.56" width="117.41" height="35.35" rx="6.66" style="fill:#f5f5f5"/><rect x="766.52" y="166.91" width="117.41" height="35.35" rx="6.66" style="fill:#f5f5f5"/><ellipse cx="490.67" cy="592.75" rx="490.67" ry="89.25" style="fill:#f5f5f5"/><polygon points="215.28 288.21 174.02 541.17 360.6 521.43 352.53 499.9 206.76 512.01 240.85 287.76 215.28 288.21" style="fill:#f72585"/><polygon points="166.84 0.9 418.01 0 490.67 549.87 238.61 583.96 166.84 0.9" style="fill:#f72585"/><polygon points="194.21 22.36 396.93 22.36 467.8 533.66 258.79 562.36 194.21 22.36" style="fill:#fff"/><path d="M385.4,510.54c1.27,2.44,2.22,5.08,3.88,7.28,4.84,6.48,14,7.49,20.94,11.71a1.93,1.93,0,0,1,.81.79c.32.75-.38,1.53-1.06,2-5.23,3.67-12.09,3.75-18.48,3.71a24.61,24.61,0,0,1-6.4-.61c-3.38-.9-6.28-3.26-9.62-4.22a25.45,25.45,0,0,0-5.28-.74l-7-.48a16.44,16.44,0,0,1-5.46-1,5.53,5.53,0,0,1-3.44-4.08c-.2-1.49.44-2.94.81-4.39.9-3.44.62-7.61,3.3-10a10.39,10.39,0,0,1,3.73-1.79,117.6,117.6,0,0,1,14.9-4C381.17,504,383.56,507,385.4,510.54Z" style="fill:#3f3d56"/><path d="M306.15,530c.18,1.91.24,4.1-1.15,5.43a6.12,6.12,0,0,1-3,1.35c-6.63,1.54-14,1.65-19.79-2a5.39,5.39,0,0,1-1.56-1.33,4.94,4.94,0,0,1-.79-2.47c-.21-2.54.57-5,1.28-7.49A132.16,132.16,0,0,0,285,505.76c.07-.49,16.92,2.69,18,4.36,1.41,2.07,1.42,7,1.8,9.47Q305.65,524.75,306.15,530Z" style="fill:#3f3d56"/><path d="M368.89,296.52l4.49,41.71c.89,8.52,1.83,17.08,1.21,25.63-.71,9.87-3.48,19.74-2.31,29.52.46,3.8,1.5,7.53,1.65,11.36a62.79,62.79,0,0,1-.38,7.63c-2,25.3,4.38,50.41,8,75.53a32.93,32.93,0,0,1,.38,9.4c-.47,3.19-1.4,7.37,1.43,8.88l-26.62,9.65c-3.4-4.26-1.15-10.89-1.8-16.3-.59-4.87-3.26-9.21-4.69-13.91-1.29-4.21-1.56-8.65-2-13-2.32-23.83-9.45-47-11.12-70.94a32.89,32.89,0,0,0-.9-6.84c-.9-3-2.69-5.56-4-8.35-2-4.19-3-8.78-4-13.32l-5.7-26.69c-5.76,8.58-5.53,19.74-6.67,30-1.59,14.35-5.16,28.46-8.07,42.63a85.1,85.1,0,0,0-1.51,9.24c-.76,8.32.74,16.71-.06,25-.9,9.62-4.94,19-4,28.64.53,5.33,2.58,10.37,4,15.54s2.06,10.83,0,15.76a48.43,48.43,0,0,0-23.07-2.55c-8.54-8.75-10.06-20.95-10.64-33.19s.82-24.51-.7-36.63c-.45-3.59-1.15-7.09-1.27-10.67-.37-11.47,5.14-22.21,7.89-33.36a70.66,70.66,0,0,0,.69-30.63c-1.35-6.7-3.66-13.21-4.49-20-1.12-9.51.78-19.1,2.69-28.5,1.29-6.35,2.56-12.69,4-19,1.56-6.78,3.42-13.69,7.59-19.24,6.68-8.87,18.53-12.81,29.6-11.94s21.42,5.9,30.57,12.18A114.89,114.89,0,0,1,368.89,296.52Z" style="fill:#192534"/><path d="M339.13,136.84a7.45,7.45,0,0,0-1,2.63c-.23,1.84.89,3.53,1.79,5.14a28.07,28.07,0,0,1,2.63,6.54,8.85,8.85,0,0,1-.78,7.51c-1.73,3.34-4.3,6.42-7.79,7.81a13.7,13.7,0,0,1-8.42.35,25.66,25.66,0,0,1-7.71-3.66,23.76,23.76,0,0,1-5.27-4.58,31.71,31.71,0,0,1-3.64-6.28c-1.87-3.9-3.76-8.07-3.42-12.35a4.41,4.41,0,0,1,.21-1.14,6.21,6.21,0,0,1,1.21-1.79,23.46,23.46,0,0,0,5.49-16.28l13.07,3c2.87.66,5.75,1.31,8.6,2.13,2.33.67,5.92,1.61,7.43,3.69S340.16,134.94,339.13,136.84Z" style="fill:#fbbebe"/><circle cx="332.13" cy="110.86" r="23.75" style="fill:#fbbebe"/><path d="M328.31,158.78c1-2.2,3.17-3.59,5.16-5s4-3.15,4.37-5.55a4,4,0,0,1,.4-1.56c.76-1.14,2.57-.57,3.66.27,2.64,2.06,4.43,5,6.18,7.82a66,66,0,0,1,5.78,10.93c2.53,6.65,2.83,13.9,3.11,21,.25,6.46.49,13-1.08,19.28-1,4-2.69,7.81-2.79,11.89-.29,14.83-5.44,29-5.8,43.83a114.77,114.77,0,0,0,.64,12.84l.85,9.62q-19.56-1.12-39-3.43a74.6,74.6,0,0,0-2.8-13,282.13,282.13,0,0,1-9.07-53.59c-.69-9.61-1.4-19.19-2.47-28.77-1-8.71-2.84-17.48-1.71-26.17a35.89,35.89,0,0,1,3.68-11.32,6,6,0,0,1,4.9-4.09,37.52,37.52,0,0,1,6.17-.73,4.24,4.24,0,0,1,1.5.15,4.66,4.66,0,0,1,2.06,2A37.22,37.22,0,0,0,328.31,158.78Z" style="fill:#f2f2f2"/><path d="M317.29,156.88c1.67,2.38,5.21,3,6.75,5.38a14,14,0,0,1,1.17,3.2c1,3,2.85,5.62,4,8.55,1.67,4.22,1.72,8.88,1.74,13.41a44.64,44.64,0,0,1-.83,10.76c-.54,2.22-1.42,4.33-2.06,6.52a31.59,31.59,0,0,0-1.2,11.48,4.77,4.77,0,0,0,.64,2.38,5.14,5.14,0,0,0,2.3,1.56c2.63,1.15,5.38,2.34,8.25,2.07a3,3,0,0,0,1.64-.55,3.56,3.56,0,0,0,.81-1.07l1.79-3c1.63-2.77,3.32-5.87,2.69-9a17.93,17.93,0,0,0-2-4.64,54,54,0,0,1-2.93-7.24c-2.86-8.22-5.75-16.56-6.4-25.25a22.15,22.15,0,0,1,1.08-9.79,28,28,0,0,1,3.15-5.47,2.33,2.33,0,0,0-2.52-.85,14.85,14.85,0,0,0-2.61,1.09c-2.64,1.11-5.56.71-8.22-.06-1-.3-2.69-1.34-3.77-1.27C320.36,155.06,317.36,157,317.29,156.88Z" style="fill:#4cc9f0"/><path d="M338.29,156.78c-.54-.43-1.37-.83-1.85-.33a2.43,2.43,0,0,0-.34.73c-.46,1.26-1.83,1.88-3.08,2.36s-2.59.75-3.35-.17a2,2,0,0,1,.12-2.4,7.39,7.39,0,0,1,2-1.65A19.22,19.22,0,0,0,339.58,143a5.86,5.86,0,0,1,2.14,3.7c.3,1.43.33,2.9.63,4.33.44,2,1.41,4,1.64,6a30.64,30.64,0,0,1,0,3.32,20.24,20.24,0,0,0,.38,3.21C342.27,161.37,340.79,158.76,338.29,156.78Z" style="fill:#f2f2f2"/><path d="M320.14,150.69c-.9-.86-1.8-1.66-2.69-2.53a34.9,34.9,0,0,1-8.68-13.77c-1.15.9-2.41,2.08-2.44,3.59a5.48,5.48,0,0,0,1.19,2.91,45.4,45.4,0,0,1,6.57,17.59,5.24,5.24,0,0,1,4.53-2.41c1.42,0,7.78,3.77,8.24,2.82C327.53,157.4,321.21,151.7,320.14,150.69Z" style="fill:#f2f2f2"/><path d="M340.17,143.55a74.37,74.37,0,0,0,30.12,18.23,6.79,6.79,0,0,1,3,1.55,6.2,6.2,0,0,1,1.27,2.78c2.18,8.55,2.92,17.41,3.65,26.21a14.55,14.55,0,0,1-.09,4.37c-.53,2.36-2.2,4.26-3.84,6-5.15,5.52-11,11.29-11.9,18.79a28.34,28.34,0,0,1-.51,4.3c-.45,1.67-1.44,3.14-2.05,4.77-3,8,3.77,17.67-.35,25.11a45.69,45.69,0,0,1,4.54,13.69,17.8,17.8,0,0,0,1.22,5.28c1.23,2.56,3.76,4.19,5.75,6.28,6.08,6.22,6.82,15.75,7.18,24.44.23,4.9.15,10.52-3.59,13.73-2.16,1.88-5.11,2.49-7.94,2.95-3.75.63-7.84,1.08-11.17-.78-2.39-1.32-4-3.65-5.56-5.89-2.95-4.28-5.9-8.55-8.69-12.94-4.41-6.91-8.57-14.81-7.3-22.92-.36,8.29-2.11,16.65-6.18,23.88s-10.63,13.27-18.59,15.66-17.25.7-23.18-5.12a31.32,31.32,0,0,1-4.95-6.66,65.41,65.41,0,0,1-7.3-18.58c-.38-1.69-.67-3.59.18-5.1.41-.72,1-1.28,1.45-2,1.41-2.42.05-5.46-1.32-7.91-2.09.19-3.59-2.27-3.4-4.36s1.44-3.92,2.33-5.84c2.6-5.63,2-12.19.77-18.26s-3.13-12.11-3-18.31c.16-6.55-4.56-12.46-8.16-17.94-2-3.08-4.35-6-6.1-9.19a29.65,29.65,0,0,1-2.35-22.21,57.66,57.66,0,0,1,4.92-11l3-5.56a9.16,9.16,0,0,1,6.28-5.38l20.48-8.07a31.18,31.18,0,0,0,7.39-3.7c2.5-1.88,4.37-4.48,6.75-6.49a3.8,3.8,0,0,1,2.69-1.18c1.92.17,2.6,2.6,2.8,4.49.45,4.23,3.59,7.82,4.66,11.94,5.77,22.74,18,43.71,21.35,66.92,3.77-9,7.54-18.11,12.37-26.64a22,22,0,0,0,1.91-3.86,16.46,16.46,0,0,0,.63-6c-.24-5.84-1.79-11.55-3.33-17.19C344,158.23,342.24,151.15,340.17,143.55Z" style="fill:#4361ee"/><path d="M379.2,213c.39,3.82.78,7.65,1.49,11.43.82,4.37,2.08,8.64,3.32,12.91a33.69,33.69,0,0,0,2.61,6.93,9.09,9.09,0,0,1,.95,2c.44,1.8-.56,3.59-1,5.39-1.29,5.38,2.58,11.36.14,16.32-.73,1.51-2,2.76-2.5,4.37-.57,1.86,0,3.84.3,5.76.76,5.38-1.08,10.85-2.89,16L378.54,303c-2.81-5.24-5.66-10.54-9.55-15-1.39-1.61-2.91-3.11-4.19-4.82a34.06,34.06,0,0,1-4.49-8.73,75.92,75.92,0,0,1-4.63-23.07,15.57,15.57,0,0,1,.76-6.64,34.86,34.86,0,0,1,2-3.59c2.4-4.33,2.9-9.46,2.85-14.42s-.57-9.92,0-14.84A34.13,34.13,0,0,1,364.87,200a16.63,16.63,0,0,1,4.87-6.07,8.77,8.77,0,0,1,5.38-1.75c2.94.17,2.26,2.69,2.52,5.12Z" style="fill:#4361ee"/><path d="M247.25,200.82q-2.75,8.07-4.95,16.29-2.15,8.07-3.85,16.24a34.54,34.54,0,0,0-1,7.3,32.34,32.34,0,0,0,1.46,8.44c5.77,20.82,16.31,40,28.16,58.08A52.59,52.59,0,0,1,279,296.28a2.59,2.59,0,0,0,.9-.9,2.38,2.38,0,0,0-.29-2.09c-3.27-6.71-8.45-12.63-10.09-19.92-.68-3-.71-6.19-1.48-9.2-1-3.9-3.22-7.47-3.73-11.47-.55-4.36.9-9.12-1.15-13,4.17-1.63,6.59-5.92,8.35-10a54.89,54.89,0,0,0,4-13.2,39.72,39.72,0,0,0-4.85-25.25A40.61,40.61,0,0,0,262.6,181c-1.07-1-3.59-3.71-5.14-3.68-2.07,0-2.73,3.39-3.33,4.9C251.74,188.42,249.37,194.58,247.25,200.82Z" style="fill:#4361ee"/><path d="M284.41,301.22c.27.2.57.47.5.79s-.33.41-.56.54a7,7,0,0,0-2.59,3.5,97,97,0,0,0-3.89,10.31,45.21,45.21,0,0,0-7-8.21c-2-1.88-4.34-3.67-5.43-6.22,0-.07,4.7-3.54,5.13-3.92,1.32-1.17,3-4.43,4.34-5.15,1.55-.8,3,2.36,4.19,3.64A35.73,35.73,0,0,0,284.41,301.22Z" style="fill:#fbbebe"/><path d="M357.35,107.15a4.37,4.37,0,0,0-1.11-3.24,4.22,4.22,0,0,0-2.69-.75c-5.23-.17-10.64.71-15.57-1-3.25-1.15-6-3.38-9.19-4.76s-7.22-1.75-9.77.57c-1.94,1.8-2.47,4.55-3.14,7.09a41.53,41.53,0,0,1-7.75,15.36c-2.43-.76-4.17-2.93-5.29-5.21-3.81-7.76-1.94-17,.77-25.27.9-2.77,1.9-5.5,2.89-8.23l2.19-6a11.78,11.78,0,0,0,7.5-3.73l.94,2.29a12,12,0,0,0,6.73-2.38c.75,1.42,2.69,1.8,4.26,1.34s2.92-1.34,4.49-1.8c4.17-1.34,8.62.73,13,1a51.55,51.55,0,0,1,5.56.17c5.16.83,8.81,5.69,10.39,10.68,1.05,3.32,1.92,7.4,5.2,8.57.07,1.26-2.16,1.5-2.35,2.7a2.18,2.18,0,0,0,.27,1.14l3,6.44a7.39,7.39,0,0,1-4.34-.21C362,105,357.49,109.58,357.35,107.15Z" style="fill:#192534"/><path d="M509.63,121.18a119.15,119.15,0,0,1,3.59,15c.65,3.8,1,8-1.16,11.2,8.31-12.49,17-25.36,29.6-33.43a27.06,27.06,0,0,1-7-20.84c.07-.76-10.36,3.18-11.16,3.63-3.66,2-7,4.56-10.58,6.74-1.85,1.13-9.54,3.78-9.62,5.39,0,1,3.06,4.19,3.64,5.27A41.41,41.41,0,0,1,509.63,121.18Z" style="fill:#fbbebe"/><path d="M548.23,592.76A13.91,13.91,0,0,0,534,591.68c-4.06,2.1-6.8,6.07-10.49,8.77-6.35,4.61-14.74,5-22.18,7.47-2,.66-4.07,1.65-4.9,3.59a6.33,6.33,0,0,0,.36,5,13,13,0,0,0,6.16,6.34c3.33,1.6,7.17,1.67,10.87,1.72l32.11.37c9.87.12,19.8.24,29.6,1.47,2.29.28,4.77.6,6.79-.52,3.28-1.8,3.66-6.34,3.4-10.08a92.53,92.53,0,0,0-6.27-27.63c-.39-1-.9-2.09-2-2.26a3.17,3.17,0,0,0-2.13.68c-9.06,5.38-20.54,8.42-30.17,4.11" style="fill:#fff"/><path d="M564.37,387.58c-3.59,20.84-1.25,42.25,2.79,63a109.31,109.31,0,0,0,2.93,12.23c1.44,4.58,3.39,9,4.75,13.58,3.44,11.66,3,24.13,2.44,36.3l-2.35,55.39c-.19,4.65-.37,9.4,1,13.83.56,1.79,1.25,4-.17,5.25a4,4,0,0,1-1.9.72,29.25,29.25,0,0,1-18.83-2.82l-.64-56c-.2-17.25-.4-34.57-3.06-51.6-2.11-13.55-5.77-26.91-6-40.62-.25-14.35,3.27-28.52,6.85-42.43.77-3,3.59-5.16,5.91-7.17a7.07,7.07,0,0,1,2.87-1.74C562.05,385.24,563.7,386.67,564.37,387.58Z" style="fill:#3f3d56"/><path d="M564.37,387.58c-3.59,20.84-1.25,42.25,2.79,63a109.31,109.31,0,0,0,2.93,12.23c1.44,4.58,3.39,9,4.75,13.58,3.44,11.66,3,24.13,2.44,36.3l-2.35,55.39c-.19,4.65-.37,9.4,1,13.83.56,1.79,1.25,4-.17,5.25a4,4,0,0,1-1.9.72,29.25,29.25,0,0,1-18.83-2.82l-.64-56c-.2-17.25-.4-34.57-3.06-51.6-2.11-13.55-5.77-26.91-6-40.62-.25-14.35,3.27-28.52,6.85-42.43.77-3,3.59-5.16,5.91-7.17a7.07,7.07,0,0,1,2.87-1.74C562.05,385.24,563.7,386.67,564.37,387.58Z" style="opacity:0.10000000149011612;isolation:isolate"/><path d="M497,322.46c-1.33,5.46,1.49,11.12,1.17,16.74-.18,3.4-1.51,6.79-.89,10.12s3,5.85,4.28,8.91a24.31,24.31,0,0,1,1.45,8c.37,6.71.07,13.45-.18,20.13-.42,11.22-.74,22.49.74,33.61a105.29,105.29,0,0,0,7.78,27.94,49.28,49.28,0,0,1,2.9,7.52,54.4,54.4,0,0,1,1,7.31,74.36,74.36,0,0,0,6.35,23.06c2.28,5,6.28,9,7.54,14.27,1.2,5.08.4,10.43,1.27,15.57.63,3.81,2.18,7.42,3,11.19,1.12,4.87,1.09,9.92,1.65,14.89,1.62,14.35,8.14,28.7,4.25,42.62-.78,2.8-2,5.65-1.45,8.5.27,1.4.95,2.78.65,4.17-.25,1.18-1.17,2.1-1.63,3.22-.9,2.1,0,4.59,1.65,6.22a17.63,17.63,0,0,0,5.83,3.44c6.61,2.83,13.45,5.7,20.63,5.64a5.69,5.69,0,0,0,2.54-.47c1.29-.67,1.93-2.14,2.47-3.48l3.68-9.1c.45-1.1.9-2.39.28-3.42a6.35,6.35,0,0,0-1.54-1.43c-3-2.5-2.3-7.18-1.51-10.94a159.75,159.75,0,0,0,3.34-29.33c.39-19.66-2.85-39.21-6.08-58.61-1.12-6.74-2.25-13.52-4.48-20s-5.53-12.67-5-19.38c.58-7.25-1.31-14.85,0-22s3.38-14.15,4.72-21.29c1.73-9.27,2.16-18.71,2.69-28.11.22-3.84.51-7.81,2.31-11.22,1.05-2,2.57-3.69,3.75-5.62,3-5,3.51-11.23,6.41-16.33,1.37-2.41,3.26-4.54,4.27-7.12a20.09,20.09,0,0,0,1.09-6.33,75,75,0,0,0-.89-16.19,105.42,105.42,0,0,0-49.34-11.45c-6.56.11-13.19.77-19.34,3C508.48,318.93,503.14,322,497,322.46Z" style="fill:#3f3d56"/><path d="M533.73,606.57c-2.64,3.28-2.46,8-4.15,11.84-2,4.69-6.6,7.7-10.92,10.43l-26.91,17c-1.48.9-3.05,2-3.59,3.67a5.88,5.88,0,0,0,.13,3.22,14,14,0,0,0,9.4,9.55,27.42,27.42,0,0,0,7.28.74l12.1.16a70.22,70.22,0,0,0,11-.43c3.36-.48,6.62-1.44,10-2,6.07-1.1,12.31-1,18.4-2.07a95.15,95.15,0,0,0,11-2.85c4.4-1.31,8.87-2.69,12.64-5.3a6.52,6.52,0,0,0,2.43-2.62c.64-1.48.29-3.17-.07-4.74l-5.78-25.39a15,15,0,0,0-2.26-5.93c-1.28-1.7-3.59-2.83-5.59-2.1a11.89,11.89,0,0,0-2.32,1.39c-3,2-6.75,2.27-10.25,1.66-2.26-.4-5.25-1-7.07-2.52-1.38-1.14-1.8-2.9-3-4.19a8.41,8.41,0,0,0-11.91-.16A7.45,7.45,0,0,0,533.73,606.57Z" style="fill:#fff"/><circle cx="516.28" cy="85.28" r="32.41" style="fill:#fbbebe"/><path d="M491.28,87.18c3.1-1.74,3.1-6.76,6.28-8.43s6.78,1.23,8.82,4.16a38.4,38.4,0,0,1,6,14.23c.29,1.46.56,3,1.65,4.06a6.36,6.36,0,0,0,3.93,1.28q6.15.61,12.31,1.11c4.57.37,9.4.67,13.55-1.3a9.82,9.82,0,0,0,4.07-3.37,15,15,0,0,0,1.74-4.56c2.15-8.15,4.31-16.4,4.49-24.84.07-3.48-.23-7.08-1.91-10.13-1-1.8-2.41-3.36-2.82-5.33s.9-4.49,2.94-4.27a12,12,0,0,1-5.38-1c-1.62-.9-2.82-2.83-2.25-4.59-4.56.59-7.88-3.92-11.43-6.83a3.09,3.09,0,0,0-2.17-.9,8.28,8.28,0,0,0-1.79.69c-1.8.63-3.67-.56-5.51-1.08-4.93-1.38-11.2,1.95-14.86-1.64.35,2.29-2.46,3.83-4.78,3.78s-4.7-.9-6.88-.12a4.51,4.51,0,0,1-2.57,6.42l1.09,2.37a6.08,6.08,0,0,0-4.71,4.41c-1.2,4.71-.9,11.4-.61,16.24C490.67,69.65,492.74,86.38,491.28,87.18Z" style="fill:#192534"/><path d="M518.93,127.05c-16.28,18.31-20.42,44.08-23.89,68.34l-5.12,35.83c-1.32,9.29-2.69,18.59-3.84,27.91-.81,6.38-1.56,12.85-.69,19.22.7,5,2.37,9.87,3.77,14.7a138.37,138.37,0,0,1,5.38,39c1.09-3.19,4.85-4.48,8.15-5.2a131.72,131.72,0,0,1,82.4,8.8c4.53-12.69,3.68-26.58,4.94-40,1.8-19.13,8-37.67,9.81-56.77.67-7.11.75-14.26.82-21.41.06-5.25.11-10.55-1-15.69-1.21-5.69-3.79-11-6.45-16.15A422.83,422.83,0,0,0,568.71,144q-6.76-10.11-14.11-19.83-3.72-4.92-7.6-9.74c-2.5-3.11-3.59-5.81-7.56-4C531.93,114,524.4,120.91,518.93,127.05Z" style="fill:#4cc9f0"/><path d="M528.26,279.44a89.19,89.19,0,0,1-11.9-.38c-2.93-.29-5.93-.72-8.79,0a9,9,0,0,0-3.42,1.68,2.58,2.58,0,0,0-.21,3.63,2.54,2.54,0,0,0,1.67.85l3.07.27c1.95.17,4,.37,5.49,1.79a3.44,3.44,0,0,1,1.11,2.17c.19,2.09-1.62,3.23-3.24,4.1a25.64,25.64,0,0,0-6.34,4.21,8.8,8.8,0,0,0-2.63,5.38,1,1,0,0,0,1,1.08,1,1,0,0,0,.52-.12c3.59-1.79,5.93-7.11,9.87-6.22a16,16,0,0,0-8.67,6.66,4,4,0,0,0,5.38,5.68,16,16,0,0,0,1.69-1.12,41.12,41.12,0,0,0,7.11-7.39c-2.87,6.05-5.77,13.14-2.47,19.16a1.9,1.9,0,0,0,1.79,1.06c1-.11,1.35-1.09,1.52-1.95.54-2.77.67-5.69,2-8.16,3.16-5.72,10.95-6.28,16.88-9.07,7.11-3.3,12-10.41,13.95-18a14,14,0,0,0,.35-6.84c-1.32-5.1-7.62-6.28-11.67-3.81C537.4,277.26,534.52,279.24,528.26,279.44Z" style="fill:#fbbebe"/><path d="M522,179c6.28,9.7,17.17,15.16,26.52,22a22.42,22.42,0,0,1,5.87,5.58c2.36,3.64,2.69,8.27,2.2,12.56-.61,5.66-2.43,11.1-4.23,16.5l-3.92,11.71c-2.48,7.43-5,15-9.78,21.25-1.21,1.59-2.62,3.28-2.56,5.27a6.81,6.81,0,0,0,1.15,3.22,21.58,21.58,0,0,0,13.71,9.79,10.48,10.48,0,0,0,5.16,0c2.42-.72,4.24-2.69,5.93-4.56,8.07-8.9,16.14-17.94,22-28.39,5.69-10.2,9.1-21.52,12.24-32.75a69.35,69.35,0,0,0,2.69-12.67c.66-8.07-1.45-16.15-4.92-23.44s-8.22-13.9-13.13-20.31a141.07,141.07,0,0,0-15.38-17.65c-9.76-9.12-21.7-14.49-34.76-9.31-9.22,3.66-12.68,11.29-13.5,21.07A32,32,0,0,0,522,179Z" style="opacity:0.10000000149011612;isolation:isolate"/><path d="M525.23,176.57c6.28,9.7,17.19,15.16,26.53,22a22.46,22.46,0,0,1,5.84,5.62c2.36,3.64,2.69,8.26,2.2,12.56-.62,5.66-2.43,11.1-4.24,16.5l-3.92,11.66c-2.49,7.43-5,15-9.78,21.25-1.2,1.59-2.61,3.28-2.55,5.28a6.58,6.58,0,0,0,1.14,3.2,21.58,21.58,0,0,0,13.71,9.8,10.52,10.52,0,0,0,5.17,0c2.42-.7,4.23-2.69,5.93-4.54,8.07-8.92,16.14-17.94,22-28.39,5.7-10.2,9.11-21.53,12.25-32.76a68.53,68.53,0,0,0,2.69-12.67c.66-8.07-1.45-16.15-4.91-23.45s-8.22-13.89-13.13-20.31a142,142,0,0,0-15.42-17.55C559,135.63,547,130.25,534,135.44c-9.23,3.66-12.68,11.28-13.51,21.07A32.05,32.05,0,0,0,525.23,176.57Z" style="fill:#4cc9f0"/><path d="M723.58,498.43a32.57,32.57,0,0,1-.72,7c-.09.43-.19.9-.28,1.27-2.55,10.21-9.74,17.69-18.31,18.16h-.9c-9.07,0-16.74-7.82-19.27-18.59-.07-.29-.13-.58-.19-.9a32.57,32.57,0,0,1-.72-7c0-14.6,9-26.42,20.18-26.42S723.58,483.86,723.58,498.43Z" style="fill:#3f3d56"/><path d="M723.58,498.33a32.57,32.57,0,0,1-.72,7c-.09.43-.19.89-.28,1.23h-.9a38.6,38.6,0,0,1-6.6-.86,41.13,41.13,0,0,1-5.89,1.34,15.83,15.83,0,0,1-4.61.15H703a19.33,19.33,0,0,1-5.53-.09,39.86,39.86,0,0,1-8.67-2.15,42,42,0,0,1-4.68,1.26c-.07-.29-.14-.58-.2-.9a33.91,33.91,0,0,1-.72-7c0-14.6,9-26.42,20.19-26.42S723.58,483.76,723.58,498.33Z" style="opacity:0.10000000149011612;isolation:isolate"/><path d="M766.64,449.12a40.79,40.79,0,0,0-4.4-18.49L738.51,438l20.83-12.25a41,41,0,0,0-30.82-17.57,39.78,39.78,0,0,0-3.2-4.23l-34.09,10.61,28-16.44A41,41,0,0,0,654.61,420l29.2,33.61-31.68-22.91a41,41,0,0,0,36.72,72.39,41.21,41.21,0,0,0,26.26.73A41.06,41.06,0,0,0,764,472.55a40.6,40.6,0,0,0,1-8.79c0-.89,0-1.79-.09-2.69A40.65,40.65,0,0,0,766.64,449.12Z" style="fill:#7209b7"/><path d="M765.93,456.72a109.38,109.38,0,0,0-38-.48c-14.26,2.36-28.82,7.54-42.76,3.76-8.18-2.23-15.25-7.38-23.24-10.24a44.06,44.06,0,0,0-24-1.43A41,41,0,0,0,688.8,503.1a41.24,41.24,0,0,0,26.27.73A41.07,41.07,0,0,0,765,463.76c0-.89,0-1.79-.09-2.69A40.55,40.55,0,0,0,765.93,456.72Z" style="fill:#560789"/></g></g></svg>