<svg xmlns="http://www.w3.org/2000/svg" xmlns:xlink="http://www.w3.org/1999/xlink" viewBox="0 0 1962.9 898.66"><defs><linearGradient id="linear-gradient" x1="-20642.08" y1="527.79" x2="-21050.21" y2="527.79" gradientTransform="translate(21928.09 0)" gradientUnits="userSpaceOnUse"><stop offset="0" stop-color="#828184"/><stop offset="1" stop-color="#fff"/></linearGradient><linearGradient id="linear-gradient-2" x1="-20642.08" y1="675.64" x2="-21050.21" y2="675.64" xlink:href="#linear-gradient"/><linearGradient id="linear-gradient-3" x1="1349.26" y1="1135.15" x2="1381.06" y2="628.58" gradientTransform="matrix(0.46, 0.89, -0.89, 0.46, 1552.86, -934.02)" gradientUnits="userSpaceOnUse"><stop offset="0" stop-color="#848385"/><stop offset="0.1" stop-color="#919092"/><stop offset="0.72" stop-color="#e0e0e0"/><stop offset="1" stop-color="#fff"/></linearGradient><linearGradient id="linear-gradient-4" x1="416.99" y1="1843.06" x2="679.27" y2="1427.78" gradientTransform="translate(611.03 -999.84) rotate(-4.44)" gradientUnits="userSpaceOnUse"><stop offset="0" stop-color="#848385"/><stop offset="0.18" stop-color="#a5a5a6"/><stop offset="0.43" stop-color="#ccc"/><stop offset="0.66" stop-color="#e8e8e8"/><stop offset="0.85" stop-color="#f9f9f9"/><stop offset="1" stop-color="#fff"/></linearGradient><linearGradient id="linear-gradient-5" x1="7749.73" y1="-406.88" x2="8129.38" y2="-406.88" gradientTransform="matrix(-0.97, 0.26, 0.26, 0.97, 7993.04, -948.09)" gradientUnits="userSpaceOnUse"><stop offset="0" stop-color="#848385"/><stop offset="1" stop-color="#fff"/></linearGradient><linearGradient id="linear-gradient-6" x1="-1614.39" y1="868.04" x2="-1977.16" y2="554.66" gradientTransform="translate(2178.67)" xlink:href="#linear-gradient-5"/><linearGradient id="linear-gradient-7" x1="-965.05" y1="770.94" x2="-2014.21" y2="770.94" gradientTransform="translate(2178.67)" xlink:href="#linear-gradient-5"/><linearGradient id="linear-gradient-8" x1="675.23" y1="215.5" x2="969.83" y2="215.5" gradientUnits="userSpaceOnUse"><stop offset="0" stop-color="#ea6200"/><stop offset="1" stop-color="#ffc045"/></linearGradient><clipPath id="clip-path"><path d="M361.47,260.56h778.66c5.61,0,8.67,4.81,10.21,10.2l138.82,486.39c1.54,5.39-4.6,10.21-10.2,10.21H474.16c-5.61,0-8.94-4.74-10.2-10.21L351.26,270.76c-1.26-5.46,4.59-10.2,10.21-10.2" style="fill:none;clip-rule:evenodd"/></clipPath><linearGradient id="linear-gradient-9" x1="969.91" y1="1205.64" x2="788.79" y2="368.02" gradientUnits="userSpaceOnUse"><stop offset="0" stop-color="#1e9df8"/><stop offset="1" stop-color="#b9e4ff"/></linearGradient><clipPath id="clip-path-2"><path d="M340.68,619H291.13a29.09,29.09,0,0,0-28.65,23.86h0c-4.46,21.73-2.48,69.55,12.91,86.59l17.45-.22L359.35,716V625.74A29.13,29.13,0,0,0,340.68,619" style="fill:none;clip-rule:evenodd"/></clipPath><linearGradient id="linear-gradient-10" x1="308.68" y1="692.4" x2="308.68" y2="605.49" gradientUnits="userSpaceOnUse"><stop offset="0" stop-color="#022fa0"/><stop offset="0.68" stop-color="#197bdd"/><stop offset="1" stop-color="#24a1fb"/></linearGradient><clipPath id="clip-path-3"><path d="M288,619.12c-13,1.42-23.57,12.35-25.78,26.32h0c-1.46,7.94-2.23,19-2.05,31H288Z" style="fill:none;clip-rule:evenodd"/></clipPath><linearGradient id="linear-gradient-11" x1="273.99" y1="657.2" x2="273.99" y2="612.13" xlink:href="#linear-gradient-10"/><clipPath id="clip-path-4"><path d="M359.35,625.74c11.9,10.62,16.93,19,21.17,34.43l-7.33,5.29-6.35.38-7.49-.24Z" style="fill:none;clip-rule:evenodd"/></clipPath><linearGradient id="linear-gradient-12" x1="369.93" y1="652.39" x2="369.93" y2="620.84" xlink:href="#linear-gradient-10"/><clipPath id="clip-path-5"><path d="M769.89,407.54c-21.38-3.6-38.22,9.52-37.61,29.3s18.47,38.74,39.86,42.34,38.23-9.52,37.61-29.3S791.29,411.14,769.89,407.54Z" style="fill:none"/></clipPath><clipPath id="clip-path-6"><path d="M902.56,511.56c-18.29-3.08-32.7,8.14-32.17,25.06s15.8,33.15,34.09,36.23,32.71-8.14,32.18-25.07S920.87,514.65,902.56,511.56Z" style="fill:none"/></clipPath><clipPath id="clip-path-7"><path d="M632.61,457.49c-17.28-2.91-30.89,7.69-30.39,23.68s14.92,31.31,32.21,34.22,30.89-7.69,30.39-23.68S649.91,460.41,632.61,457.49Z" style="fill:none"/></clipPath><clipPath id="clip-path-8"><path d="M767.76,556c-13.79-2.32-24.66,6.14-24.26,18.9s11.91,25,25.71,27.32,24.66-6.14,24.27-18.9S781.56,558.29,767.76,556Z" style="fill:none"/></clipPath><clipPath id="clip-path-9"><path d="M971.88,579.28c-8.8,38.62,3,129.64,7.45,201l-.69-.06s-.54,6.16-5.28,8.74-13,4.6-15.78,7.27c-2,1.93-9.74,12.87,17.91,12.14,19.65-.51,24.34-1.88,26.44-5.07.3-.44,16.34-150.07,18.38-162.38,3.51,15.68,43.24,149.42,43.23,149.5-.33,2.37-3.47,8.65-7,12.56-1.07,3.84-3.64,10.58,15.41,10.42s15.14-5,17.18-8.07c-8.46-79.5-22-207.61-26.31-228.76l-1.19-1.1c-3.39-136.08-75.7-101-69.19-18.63.73,9.31-17.32,9.57-20.59,22.4" style="fill:none;clip-rule:evenodd"/></clipPath><clipPath id="clip-path-10"><path d="M893.54,487.84l-8.39,20.9,210.39,90.4c7.46,3.21,17.6-1.75,20.63-9.3s-.72-18.57-8.33-21.43Z" style="fill:none"/></clipPath><linearGradient id="linear-gradient-13" x1="1162.31" y1="601.81" x2="830.16" y2="484.16" xlink:href="#linear-gradient-8"/><clipPath id="clip-path-11"><path d="M717.72,396.84a92,92,0,1,1-20,67.54,91.73,91.73,0,0,1,20-67.54M875.29,512a5.45,5.45,0,0,0,2,1.41,5.55,5.55,0,0,0,7.21-3.07l9.26-23.08a5.56,5.56,0,0,0-3.08-7.21,5.34,5.34,0,0,0-1.17-.32,103.39,103.39,0,1,0-20,40Q872.63,515.95,875.29,512Z" style="fill:none;clip-rule:evenodd"/></clipPath><linearGradient id="linear-gradient-14" x1="817.24" y1="660.05" x2="779.72" y2="384.5" gradientUnits="userSpaceOnUse"><stop offset="0" stop-color="#002990"/><stop offset="0.22" stop-color="#0a4bae"/><stop offset="0.58" stop-color="#1879d8"/><stop offset="0.85" stop-color="#2196f1"/><stop offset="1" stop-color="#24a1fb"/></linearGradient><linearGradient id="linear-gradient-15" x1="409.5" y1="150.87" x2="519.08" y2="150.87" xlink:href="#linear-gradient-8"/><linearGradient id="linear-gradient-16" x1="427.09" y1="291.15" x2="528.79" y2="291.15" gradientUnits="userSpaceOnUse"><stop offset="0" stop-color="#031542"/><stop offset="0.11" stop-color="#051c4c"/><stop offset="0.29" stop-color="#093066"/><stop offset="0.52" stop-color="#115191"/><stop offset="0.8" stop-color="#1b7dcb"/><stop offset="1" stop-color="#24a1fb"/></linearGradient><linearGradient id="linear-gradient-17" x1="470.46" y1="231.37" x2="472.29" y2="236.86" xlink:href="#linear-gradient-16"/><linearGradient id="linear-gradient-18" x1="418.84" y1="248.29" x2="583.93" y2="248.29" xlink:href="#linear-gradient-16"/><linearGradient id="Áåçûìÿííûé_ãðàäèåíò_265" x1="1112.23" y1="392.22" x2="1111.45" y2="391.43" gradientUnits="userSpaceOnUse"><stop offset="0" stop-color="#000326"/><stop offset="0.13" stop-color="#00072d"/><stop offset="0.33" stop-color="#001141"/><stop offset="0.56" stop-color="#002262"/><stop offset="0.82" stop-color="#003a8f"/><stop offset="0.99" stop-color="#004bb0"/></linearGradient><linearGradient id="linear-gradient-19" x1="1105.41" y1="611.89" x2="1148.89" y2="425.21" xlink:href="#linear-gradient-16"/></defs><g style="isolation:isolate"><g id="Layer_2" data-name="Layer 2"><g id="Layer_1-2" data-name="Layer 1"><path d="M732.19,701c-17.68-10.63-31.19-11-40.76-28S669,657.5,662.49,668.22s1.17,30.49,22.5,35.72S732.19,701,732.19,701Z" style="fill:#0894a3"/><path d="M741.2,702.68a2.87,2.87,0,0,0-1.46-5.54c-28.32,5.82-55.72-14.61-56-14.82a2.87,2.87,0,1,0-3.46,4.58c1.2.91,29.78,22.2,60.62,15.86A1.67,1.67,0,0,0,741.2,702.68Z" style="fill:#3fcaea"/><path d="M704.47,639.6c-15.29-11.91-33.82-23.22-50.08-22.1s-30.61-5.92-22.78-21.17,33.3-13.94,51.62,4.77S704.47,639.6,704.47,639.6Z" style="fill:#0894a3"/><path d="M883.37,766.8a2.87,2.87,0,0,0-1.44-5.54c-34.62,6.83-111.55-2.93-154.84-88.73-41.9-83-74.24-73.15-75.61-72.65a2.87,2.87,0,0,0,1.8,5.44h0c.5-.14,29.57-7.7,68.68,69.79C766.81,764,847,774,883,766.89A1.78,1.78,0,0,0,883.37,766.8Z" style="fill:#3fcaea"/><path d="M1389.4,514.3s16.81-.74,27.88-20c11.26-19.58,1.08-35.06,1.08-35.06s-18,8.47-25.62,25.26C1384.35,503.17,1389.4,514.3,1389.4,514.3Z" style="fill:#86e0ef"/><path d="M1375.44,596.27a3,3,0,0,0,1,0,2.86,2.86,0,0,0,2.3-3.34c-.1-.55-10.88-57.32,29-106.19,1-1.23,2-1.89.81-2.9s-2.19.35-3.19,1.58c-41.65,51-32.73,106.17-32.29,108.55A2.88,2.88,0,0,0,1375.44,596.27Z" style="fill:#3fcaea"/><path d="M996.49,547s-24.31-3.14-28.27-31.45C964.59,489.56,987,479,987,479s16.94,14.89,11.2,35.25C991.49,538.1,996.49,547,996.49,547Z" style="fill:#86e0ef"/><path d="M1084.38,577.42s10.15-17.21-4.45-37.82c-15.15-21.36-37-18.57-37-18.57a64.77,64.77,0,0,0,14.6,34.27C1072.11,572.87,1084.38,577.42,1084.38,577.42Z" style="fill:#86e0ef"/><path d="M1088.76,606.1a3.19,3.19,0,0,0,.36-1c5.26-31-17.6-58.27-18.55-59.44s-2.22-2-3.45-1,.06,2.16,1.05,3.39c.22.27,20.11,27.66,15.28,56.1a2.88,2.88,0,0,0,5.31,1.94Z" style="fill:#3fcaea"/><path d="M1157.77,746a2.85,2.85,0,0,0,.36-1c5.86-36.33-6.93-116.06-97.31-157.8-79.49-36.71-76.15-69.91-76.1-70.24.25-1.55.29-3.37-1.26-3.63s-1.91,1.16-2.2,2.7-7,37.51,77.16,76.38c87.25,40.3,99.67,116.83,94,151.67a2.87,2.87,0,0,0,5.31,1.92Z" style="fill:#3fcaea"/><path d="M874.83,581.55c23.6-55.55,4.31-110.92-20.52-107.36C816.94,479.56,838.92,552.59,874.83,581.55Z" style="fill:#3ca4dc"/><path d="M945.37,673.76c-5.12-8.45-10.58-16.67-16.3-24.7,31.56-36.07,32.59-81.82,12.69-86.63-25.23-6.09-33.84,34.59-26.26,68.71a404.67,404.67,0,0,0-63.68-63.28,6.46,6.46,0,0,0-2.16-1.12c-37.42-24.88-87.14-17-92,9.33-4.86,26.58,45.94,60.06,122,34.33a387.85,387.85,0,0,1,66.28,91l13.24-2.76C954.91,690.17,950.29,681.85,945.37,673.76Z" style="fill:#3ca4dc"/><path d="M862.82,716.6c-11,26.81-.27,57.11,15.61,83H1082.7c-3.25-20.33-12.14-44.53-31.88-70.78C995.06,654.74,888.57,654,862.82,716.6Z" style="fill:#80c9ef"/><path d="M930.4,799.6c-37.67-66.62-113-90.42-149.07-53.15-16.32,16.87-15.27,36.29-8.57,53.15Z" style="fill:#3ca4dc"/><path d="M1198.32,655.77c51.74,2.05,82.63,76.83,58.31,138.44a48.32,48.32,0,0,1-2.53,5.39H1061.31c-36.11-34.28-94.82-117.07-59.41-143.83C1038.76,627.92,1106.62,668.7,1144,715,1151.81,684.7,1165.92,654.49,1198.32,655.77Z" style="fill:#3ca4dc"/><g style="opacity:0.5;mix-blend-mode:color-burn"><path d="M874.83,581.55c23.6-55.55,4.31-110.92-20.52-107.36C816.94,479.56,838.92,552.59,874.83,581.55Z" style="fill:url(#linear-gradient)"/><path d="M1198.32,655.77c-32.4-1.28-46.51,28.93-54.37,59.24-37.33-46.31-105.19-87.09-142.05-59.24-8.15,6.16-11.31,15.3-10.9,26.13a132.32,132.32,0,0,0-47.09-10.5q-7-11.43-14.84-22.34c31.56-36.07,32.59-81.82,12.69-86.63-25.23-6.09-33.84,34.59-26.26,68.71a404.67,404.67,0,0,0-63.68-63.28,6.46,6.46,0,0,0-2.16-1.12c-37.42-24.88-87.14-17-92,9.33-4.86,26.58,45.94,60.06,122,34.33a385.34,385.34,0,0,1,49.07,61.52c-29.8,3.07-55.11,18.21-66,44.68a60.12,60.12,0,0,0-4.31,18.67c-29.13-11-58.44-8.17-77.18,11.18-16.32,16.87-15.27,36.29-8.57,53.15H1254.1a48.32,48.32,0,0,0,2.53-5.39C1281,732.6,1250.06,657.82,1198.32,655.77Z" style="fill:url(#linear-gradient-2)"/></g><path d="M1517.22,486.11s23.89-1,30.18-28.13c5.77-24.9-15.11-37.08-15.11-37.08s-17.75,13-13.93,33.28C1522.85,477.93,1517.22,486.11,1517.22,486.11Z" style="fill:#86e0ef"/><path d="M1429.19,508.12s-8.38-17.6,7.59-36.36c16.56-19.45,37.51-14.85,37.51-14.85a63.28,63.28,0,0,1-17.15,32C1441.51,504.76,1429.19,508.12,1429.19,508.12Z" style="fill:#86e0ef"/><path d="M1422.47,535.61a2.91,2.91,0,0,1-.27-1c-2.43-30.61,22.12-55.11,23.15-56.16s2.33-1.76,3.44-.68-.24,2.09-1.32,3.2c-.23.24-21.92,25.15-19.68,53.19a2.8,2.8,0,0,1-5.32,1.43Z" style="fill:#3fcaea"/><path d="M1343.35,665.56a2.85,2.85,0,0,1-.27-1c-2.56-35.8,16.74-112.17,108.16-144.94,80.41-28.81,80-61.35,80-61.68-.11-1.53,0-3.3,1.54-3.42s1.75,1.3,1.9,2.82,3.57,37-81.56,67.55c-88.26,31.64-106.92,104.93-104.46,139.28a2.8,2.8,0,0,1-5.32,1.4Z" style="fill:#3fcaea"/><path d="M1214.77,494.53s14.17-8.28,15-29.93c.81-22-15-30.74-15-30.74s-11.74,15.52-10.63,33.45C1205.34,487.22,1214.77,494.53,1214.77,494.53Z" style="fill:#86e0ef"/><path d="M1240,571.62a3.05,3.05,0,0,0,.89-.47,2.8,2.8,0,0,0,.47-3.93c-.34-.43-35.46-44.52-23.24-104.85.31-1.52.9-2.56-.61-2.87s-1.73,1.3-2,2.82c-12.76,62.95,20,106.51,21.49,108.36A2.8,2.8,0,0,0,1240,571.62Z" style="fill:#3fcaea"/><path d="M1216.87,810l4.77,3.4a385.24,385.24,0,0,1,32.24-39.54,446.49,446.49,0,0,1,58.2,21.4l2.4-5.34a450.18,450.18,0,0,0-56.09-20.83,385.69,385.69,0,0,1,41.53-37.26,460.55,460.55,0,0,1,50.25,28.24l3.19-4.92a467.14,467.14,0,0,0-48.23-27.29,387.55,387.55,0,0,1,42.34-27.56,469.53,469.53,0,0,1,40.8,31.2l3.81-4.45a476.78,476.78,0,0,0-38.87-29.91,388.34,388.34,0,0,1,39.58-18.57c11.88,10.58,23.3,21.8,33.94,33.38l4.31-4c-10.11-11-20.92-21.68-32.15-31.81a389.14,389.14,0,0,1,37.79-12.28c10.28,11.57,20,23.69,29,36l4.73-3.45c-8.53-11.71-17.74-23.21-27.42-34.24q18.56-4.66,37.62-7.48c7.83,11.11,15.24,22.62,22,34.22l5-3c-6.37-10.89-13.28-21.7-20.57-32.18q16.21-2.11,32.67-2.85c6.13,10.8,11.88,21.89,17.09,33l5.31-2.5c-4.86-10.32-10.17-20.63-15.81-30.72q14.6-.4,29.32.32c4.89,10.73,9.43,21.7,13.49,32.63l5.5-2c-3.76-10.11-7.94-20.25-12.41-30.21,5.24.35,10.49.79,15.73,1.35v-.08c15.79,1.6,45.14,8.49,47.33,9.32a2.88,2.88,0,0,1-1.67-3.12l5.78,1-.61-2.32c-.69-.86-.81-1-7.77-2.69-4.19-1-9.29-2.14-14.33-3.19-8.14-1.69-23.08-4.61-31.76-5.08h0q-6-.58-12.09-1c5.4-9.13,11.15-18.18,17.18-27l-4.83-3.31c-6.68,9.73-13,19.78-18.92,29.89q-15-.75-29.89-.34c4.79-10.18,10-20.31,15.54-30.18l-5.11-2.87c-6.09,10.88-11.8,22.06-17,33.28q-16.74.74-33.26,2.88c4.15-11.79,8.81-23.57,13.9-35.09l-5.36-2.36c-5.55,12.58-10.61,25.47-15,38.35a389.1,389.1,0,0,0-38.29,7.58c3.21-14.11,7.1-28.26,11.57-42.14l-5.58-1.8c-4.84,15-9,30.34-12.36,45.6A392.53,392.53,0,0,0,1397,670.61c1.59-14.88,3.89-29.91,6.85-44.74l-5.74-1.14c-3.2,16-5.63,32.24-7.25,48.28a395.7,395.7,0,0,0-40.24,18.84c-.31-16.32.19-32.9,1.5-49.37l-5.84-.46a511.54,511.54,0,0,0-1.45,53,391.48,391.48,0,0,0-34.42,21.7c-2.89,2-5.74,4.13-8.58,6.25a510.49,510.49,0,0,1-5.82-56l-5.85.28a516.55,516.55,0,0,0,6.39,59.68,392.22,392.22,0,0,0-42.14,37.74,521,521,0,0,1-15.08-59.18l-5.75,1.11a522.73,522.73,0,0,0,16.24,62.92A391.63,391.63,0,0,0,1216.87,810Z" style="fill:#c1e6f4"/><path d="M1596.64,589.77a11.67,11.67,0,0,0-8.25-1.47c-6.05.86-10.69,4.75-14.05,8.34a55,55,0,0,0-10.66,17.17c-3.45,8.38-5.91,18-3.08,26.84.79,2.48,2,1.62,4.2.79a34.78,34.78,0,0,0,5.1-2.36,68.14,68.14,0,0,0,8.79-6.16c9.5-7.56,19.39-17,22.41-28.1C1602.33,600.26,1601.63,593,1596.64,589.77Z" style="fill:#7ad1e5"/><path d="M1675.27,677c-.59,2.64-2.56,4.85-6.39,6.29-6.6,2.47-14.87,1.11-21.79-.37a175.2,175.2,0,0,1-28.73-9.32c-12.78-5.22-26.63-11.18-36.07-21.18-2.63-2.79-.55-3.26,2.36-4.64a40,40,0,0,1,7.36-2.67,77.15,77.15,0,0,1,15.75-2c18.28-.87,40,2.63,55.59,13.84C1669.78,661.47,1676.8,670.47,1675.27,677Z" style="fill:#7ad1e5"/><path d="M1361.28,819.19c-.74,2.93-2.74,5.21-6.63,6.45-6.68,2.13-15.26-.21-22.59-2.62a171.84,171.84,0,0,1-30.53-14c-13.47-7.76-28.23-16.87-35.35-31.55-2-4.09.61-4.41,4.38-5.75a44.88,44.88,0,0,1,9.2-2.29,74,74,0,0,1,17.91.06c20.16,2,41,10,54.25,25.23C1357.41,800.91,1363.09,812,1361.28,819.19Z" style="fill:#7ad1e5"/><path d="M1392.46,788.75c-1.12,2.6-3.3,4.45-7.11,5.07-6.53,1.06-14.16-2.29-20.58-5.55a156,156,0,0,1-26.15-17.34c-11.27-9.12-23.49-19.72-28-34.2-1.23-4,1.17-3.93,4.8-4.58a42.93,42.93,0,0,1,8.73-.71,70.54,70.54,0,0,1,16.41,2.71c18.23,4.73,36.37,15,46.6,30.75C1391.45,771.36,1395.17,782.38,1392.46,788.75Z" style="fill:#7ad1e5"/><path d="M1422.82,761.53c-1.35,2.19-3.58,3.6-7.12,3.72-6.06.22-12.51-3.63-17.85-7.28a132.82,132.82,0,0,1-21.09-18.54c-8.85-9.47-18.26-20.43-20.39-33.76-.57-3.7,1.52-3.3,4.8-3.4a38.86,38.86,0,0,1,7.79.5,65,65,0,0,1,14.18,4.43c15.57,6.4,30.57,17.49,37.9,32.58C1424.08,746,1426.1,756.16,1422.82,761.53Z" style="fill:#7ad1e5"/><path d="M1455.56,743.25c-1.52,1.87-3.78,2.93-7.1,2.67-5.71-.47-11.28-4.73-15.81-8.68a119.78,119.78,0,0,1-17.39-19.47c-7.06-9.74-14.42-20.93-14.82-33.41-.1-3.47,1.77-2.85,4.8-2.55a35.1,35.1,0,0,1,7.1,1.37,61.33,61.33,0,0,1,12.57,5.7c13.63,7.66,26.33,19.48,31.48,34.16C1458.53,729.06,1459.27,738.65,1455.56,743.25Z" style="fill:#7ad1e5"/><path d="M1490.26,733.28c-1.7,1.64-4,2.41-7.22,1.78-5.51-1.09-10.44-5.82-14.39-10.14A115.27,115.27,0,0,1,1454,704.18c-5.73-10.19-11.57-21.82-10.55-33.89.3-3.35,2-2.53,4.93-1.9a35,35,0,0,1,6.71,2.13,60.62,60.62,0,0,1,11.51,6.92c12.32,8.92,23.33,21.74,26.7,36.45C1494.73,719.94,1494.38,729.26,1490.26,733.28Z" style="fill:#7ad1e5"/><path d="M1521.76,720.22c-1.68,1.28-3.86,1.74-6.7.9-4.88-1.45-8.86-6-12-10.21a97.25,97.25,0,0,1-11-19.54c-4.07-9.47-8-20.21-5.91-30.66.6-2.89,2-2,4.52-1.17a32,32,0,0,1,5.7,2.52,56,56,0,0,1,9.5,7.15c10,9,18.71,21.15,20.42,34.32C1527,708.94,1525.89,717.07,1521.76,720.22Z" style="fill:#7ad1e5"/><path d="M1552.09,713.89a6.8,6.8,0,0,1-6.32.23c-4.43-1.75-7.72-6.28-10.23-10.33a86.38,86.38,0,0,1-8.4-18.73c-2.88-9-5.51-19.08-2.64-28.37.81-2.57,2-1.64,4.24-.65a29.67,29.67,0,0,1,5,2.81,51.4,51.4,0,0,1,8.08,7.34c8.43,9,15.42,20.83,15.91,32.94C1558,704.11,1556.2,711.39,1552.09,713.89Z" style="fill:#7ad1e5"/><path d="M1581.42,713.25a6.69,6.69,0,0,1-6.11-.34c-4.11-2-6.9-6.61-9-10.67a81.27,81.27,0,0,1-6.45-18.45c-2-8.73-3.62-18.52-.09-27,1-2.37,2.1-1.37,4.1-.25a29.56,29.56,0,0,1,4.52,3.09,49.65,49.65,0,0,1,7.09,7.65c7.3,9.28,13,21,12.54,32.54C1587.85,704.51,1585.58,711.25,1581.42,713.25Z" style="fill:#7ad1e5"/><path d="M1226.69,647c-4.38,1.17-8.89,4.16-13,9.71-7,9.56-8.07,20.88-7.79,30,.39,13,4,24.8,8.83,35.46,6.66,14.75,16.42,29.22,31.4,35.62,4.16,1.8,4.46-.86,6-4.85a71.56,71.56,0,0,0,3-9.7,148.6,148.6,0,0,0,2.81-19.23c2-21.85,3.17-46.6-6.56-64.45C1247.45,652.17,1237.53,644.06,1226.69,647Z" style="fill:#7ad1e5"/><path d="M1291.69,611.79c-4.12.42-8.57,2.47-13,6.91-7.53,7.66-9.94,17.77-10.85,26-1.31,11.85.39,23.14,3.41,33.58,4.1,14.45,11,29.14,23.8,37.3,3.55,2.28,4.18-.09,6.13-3.49a64.77,64.77,0,0,0,4.08-8.38,132,132,0,0,0,5.1-17.12c4.71-19.63,8.86-42.1,2.22-59.82C1309.88,619.58,1301.87,610.76,1291.69,611.79Z" style="fill:#7ad1e5"/><path d="M1354,593.42c-3.61-.15-7.68,1.09-11.94,4.42-7.34,5.74-10.52,14.28-12.23,21.41a78.41,78.41,0,0,0-.87,29.87c1.9,13.21,6.14,27,16.35,35.92,2.83,2.49,3.68.48,5.79-2.24a54,54,0,0,0,4.58-6.84,113.31,113.31,0,0,0,6.46-14.39c6.38-16.67,12.4-36,8.47-52.35C1369,602.51,1362.91,593.78,1354,593.42Z" style="fill:#7ad1e5"/><path d="M1410.56,581.05c-3.27-.55-7.09.12-11.31,2.68-7.27,4.4-11.08,11.84-13.4,18.17a73.16,73.16,0,0,0-4.08,27.26c.26,12.34,2.55,25.54,10.88,34.92,2.3,2.63,3.32.89,5.56-1.36a49,49,0,0,0,5-5.73,99.72,99.72,0,0,0,7.52-12.45c7.68-14.56,15.21-31.6,13.34-47.09C1423.23,591.1,1418.63,582.41,1410.56,581.05Z" style="fill:#7ad1e5"/><path d="M1464.69,571.91c-3.08-.89-6.84-.68-11.17,1.3-7.47,3.41-12,10.14-14.9,16a71.25,71.25,0,0,0-6.94,25.79c-1.12,11.91-.41,24.88,6.57,34.89,1.93,2.79,3.09,1.24,5.51-.68a48.1,48.1,0,0,0,5.43-4.94,97.7,97.7,0,0,0,8.64-11.14c9-13.16,18.15-28.73,18-43.87C1475.79,583,1472.3,574.13,1464.69,571.91Z" style="fill:#7ad1e5"/><path d="M1513.73,576.76c-2.58-1.07-5.83-1.23-9.73.09-6.73,2.27-11.2,7.71-14.28,12.51a63.77,63.77,0,0,0-8.43,21.83c-2.11,10.28-2.78,21.69,2.33,31.13,1.41,2.63,2.59,1.39,4.88,0a40.94,40.94,0,0,0,5.23-3.78,82.84,82.84,0,0,0,8.59-8.9c9.1-10.63,18.38-23.43,19.56-36.68C1522.35,587.48,1520.09,579.4,1513.73,576.76Z" style="fill:#7ad1e5"/><path d="M1556.78,582.91a12.28,12.28,0,0,0-8.79-.76c-6.26,1.48-10.76,6-14,10.1a58.47,58.47,0,0,0-9.54,19c-2.82,9.13-4.47,19.42-.67,28.46,1.05,2.52,2.23,1.5,4.45.41a36.14,36.14,0,0,0,5.09-3,73.73,73.73,0,0,0,8.6-7.31c9.2-8.84,18.68-19.67,20.84-31.61C1563.68,593.38,1562.3,585.85,1556.78,582.91Z" style="fill:#7ad1e5"/><path d="M1675.27,677c1.53-6.49-5.49-15.49-11.92-20-15.58-11.21-37.31-14.71-55.59-13.84a77.15,77.15,0,0,0-15.75,2,39.44,39.44,0,0,0-7.24,2.62c-3.59-.52-7-.92-9.73-1.07q-6-.58-12.09-1c.91-1.53,1.83-3,2.76-4.58a32,32,0,0,0,4.19-2,68.14,68.14,0,0,0,8.79-6.16c9.5-7.56,19.39-17,22.41-28.1,1.23-4.56.53-11.8-4.46-15.05a11.67,11.67,0,0,0-8.25-1.47c-6.05.86-10.69,4.75-14.05,8.34a55,55,0,0,0-10.66,17.17c-3.24,7.85-5.59,16.75-3.55,25.14-1.27,2.1-2.52,4.19-3.75,6.3q-15-.75-29.89-.34c.8-1.7,1.63-3.4,2.46-5.1a36.36,36.36,0,0,0,4.42-2.61,73.73,73.73,0,0,0,8.6-7.31c9.2-8.84,18.68-19.67,20.84-31.61.87-4.9-.51-12.43-6-15.37a12.28,12.28,0,0,0-8.79-.76c-6.26,1.48-10.76,6-14,10.1a58.47,58.47,0,0,0-9.54,19c-2.66,8.6-4.27,18.24-1.27,26.89-1.12,2.31-2.23,4.64-3.31,7q-16.74.74-33.26,2.88c.69-2,1.42-4,2.15-5.93a41.28,41.28,0,0,0,4.92-3.59,82.84,82.84,0,0,0,8.59-8.9c9.1-10.63,18.38-23.43,19.56-36.68.47-5.44-1.79-13.52-8.15-16.16-2.58-1.07-5.83-1.23-9.73.09-6.73,2.27-11.2,7.71-14.28,12.51a63.77,63.77,0,0,0-8.43,21.83c-2,9.81-2.7,20.64,1.68,29.82-1,2.64-1.91,5.27-2.82,7.91a389.1,389.1,0,0,0-38.29,7.58c.55-2.39,1.14-4.78,1.72-7.17l.18-.15a48.1,48.1,0,0,0,5.43-4.94,97.7,97.7,0,0,0,8.64-11.14c9-13.16,18.15-28.73,18-43.87-.07-6.21-3.56-15.1-11.17-17.32-3.08-.89-6.84-.68-11.17,1.3-7.47,3.41-12,10.14-14.9,16a71.25,71.25,0,0,0-6.94,25.79c-1.09,11.55-.43,24.09,6,34-.73,3.08-1.47,6.15-2.15,9.23A392.53,392.53,0,0,0,1397,670.61c.27-2.53.59-5.08.9-7.62l.27-.27a49,49,0,0,0,5-5.73,99.72,99.72,0,0,0,7.52-12.45c7.68-14.56,15.21-31.6,13.34-47.09-.8-6.35-5.4-15-13.47-16.4-3.27-.55-7.09.12-11.31,2.68-7.27,4.4-11.08,11.84-13.4,18.17a73.16,73.16,0,0,0-4.08,27.26c.25,12,2.44,24.81,10.23,34.14-.39,3.24-.77,6.48-1.1,9.71a395.7,395.7,0,0,0-40.24,18.84c-.06-2.79-.05-5.61-.06-8.41.16-.21.32-.43.49-.64a54,54,0,0,0,4.58-6.84,113.31,113.31,0,0,0,6.46-14.39c6.38-16.67,12.4-36,8.47-52.35-1.64-6.71-7.69-15.44-16.61-15.8-3.61-.15-7.68,1.09-11.94,4.42-7.34,5.74-10.52,14.28-12.23,21.41a78.41,78.41,0,0,0-.87,29.87c1.86,13,6,26.49,15.78,35.39,0,3.52,0,7,.14,10.53a391.48,391.48,0,0,0-34.42,21.7c-2.89,2-5.74,4.13-8.58,6.25-.51-3.14-1-6.29-1.42-9.46.25-.43.5-.9.78-1.39a64.77,64.77,0,0,0,4.08-8.38,132,132,0,0,0,5.1-17.12c4.71-19.63,8.86-42.1,2.22-59.82-2.75-7.24-10.76-16.06-20.94-15-4.12.42-8.57,2.47-13,6.91-7.53,7.66-9.94,17.77-10.85,26-1.31,11.85.39,23.14,3.41,33.58,4.07,14.33,10.91,28.9,23.51,37.1q.82,5.8,1.78,11.57a392.22,392.22,0,0,0-42.14,37.74c-1-3.27-2-6.57-3-9.87.23-.62.47-1.3.75-2a71.56,71.56,0,0,0,3-9.7,148.6,148.6,0,0,0,2.81-19.23c2-21.85,3.17-46.6-6.56-64.45-4-7.29-13.94-15.4-24.78-12.51-4.38,1.17-8.89,4.16-13,9.71-7,9.56-8.07,20.88-7.79,30,.39,13,4,24.8,8.83,35.46,6.66,14.74,16.4,29.2,31.37,35.61,1.2,4,2.43,8,3.71,11.91a391.63,391.63,0,0,0-33,40.41l4.77,3.4a385.24,385.24,0,0,1,32.24-39.54c4.16,1.21,8.3,2.5,12.43,3.83,7.16,14.53,21.83,23.59,35.22,31.3a171.84,171.84,0,0,0,30.53,14c7.33,2.41,15.91,4.75,22.59,2.62,3.89-1.24,5.89-3.52,6.63-6.45,1.81-7.15-3.87-18.28-9.36-24.5-13.27-15.2-34.09-23.26-54.25-25.23a74,74,0,0,0-17.91-.06,44.88,44.88,0,0,0-9.2,2.29l-1.84.63c-3.43-1.11-6.87-2.2-10.33-3.23a385.69,385.69,0,0,1,41.53-37.26q5.5,2.65,10.93,5.47c4.62,14.18,16.65,24.64,27.77,33.63a156,156,0,0,0,26.15,17.34c6.42,3.26,14,6.61,20.58,5.55,3.81-.62,6-2.47,7.11-5.07,2.71-6.37-1-17.39-5.26-23.85-10.23-15.77-28.37-26-46.6-30.75a70.54,70.54,0,0,0-16.41-2.71,42.93,42.93,0,0,0-8.73.71l-1.38.23c-3-1.53-5.95-3-8.95-4.52a387.55,387.55,0,0,1,42.34-27.56q4.59,3.13,9.1,6.37c2.42,12.88,11.56,23.53,20.19,32.76A132.82,132.82,0,0,0,1397.85,758c5.34,3.65,11.79,7.5,17.85,7.28,3.54-.12,5.77-1.53,7.12-3.72,3.28-5.37,1.26-15.55-1.78-21.75-7.33-15.09-22.33-26.18-37.9-32.58a65,65,0,0,0-14.18-4.43,38.86,38.86,0,0,0-7.79-.5l-.67,0q-3.63-2.61-7.29-5.15a388.34,388.34,0,0,1,39.58-18.57q3.9,3.48,7.73,7.06c.85,12,7.93,22.74,14.74,32.14a119.78,119.78,0,0,0,17.39,19.47c4.53,4,10.1,8.21,15.81,8.68,3.32.26,5.58-.8,7.1-2.67,3.71-4.6,3-14.19.83-20.21-5.15-14.68-17.85-26.5-31.48-34.16a61.33,61.33,0,0,0-12.57-5.7,35.1,35.1,0,0,0-7.1-1.37l-.28,0c-2-1.88-4-3.76-6.07-5.6a389.14,389.14,0,0,1,37.79-12.28q3.4,3.84,6.73,7.75c-.5,11.59,5.09,22.72,10.61,32.53a115.27,115.27,0,0,0,14.63,20.74c3.95,4.32,8.88,9.05,14.39,10.14,3.21.63,5.52-.14,7.22-1.78,4.12-4,4.47-13.34,3.06-19.39-3.37-14.71-14.38-27.53-26.7-36.45a60.62,60.62,0,0,0-11.51-6.92,35,35,0,0,0-6.71-2.13l-.12,0c-1.74-2.05-3.47-4.1-5.24-6.11q18.56-4.66,37.62-7.48,2.65,3.78,5.24,7.62c-1.39,9.91,2.34,20,6.19,29a97.25,97.25,0,0,0,11,19.54c3.12,4.16,7.1,8.76,12,10.21,2.84.84,5,.38,6.7-.9,4.13-3.15,5.28-11.28,4.56-16.69-1.71-13.17-10.38-25.35-20.42-34.32a56,56,0,0,0-9.5-7.15,32.15,32.15,0,0,0-5.25-2.36c-1.31-2-2.63-3.9-4-5.84q16.21-2.11,32.67-2.85,2.12,3.74,4.17,7.52c-2,8.77.44,18.15,3.13,26.53a86.38,86.38,0,0,0,8.4,18.73c2.51,4.05,5.8,8.58,10.23,10.33a6.8,6.8,0,0,0,6.32-.23c4.11-2.5,5.86-9.78,5.63-14.76-.49-12.11-7.48-23.91-15.91-32.94a51.4,51.4,0,0,0-8.08-7.34,28.09,28.09,0,0,0-4.21-2.44c-1-1.88-2-3.77-3.09-5.64q14.6-.4,29.32.32c1.14,2.51,2.25,5,3.36,7.55-2.6,8.06-1.08,17.06.77,25.15a81.27,81.27,0,0,0,6.45,18.45c2.08,4.06,4.87,8.64,9,10.67a6.69,6.69,0,0,0,6.11.34c4.16-2,6.43-8.74,6.62-13.47.5-11.5-5.24-23.26-12.54-32.54a49.65,49.65,0,0,0-7.09-7.65,28,28,0,0,0-3.62-2.53q-1.21-2.8-2.46-5.59c5.24.35,10.49.79,15.73,1.35v-.08c1.61.16,3.37.38,5.22.64,9.41,9.4,22.73,15.13,35.07,20.18a175.2,175.2,0,0,0,28.73,9.32c6.92,1.48,15.19,2.84,21.79.37C1672.71,681.81,1674.68,679.6,1675.27,677Z" style="mix-blend-mode:color-burn;fill:url(#linear-gradient-3)"/><path d="M1252.85,464.94c-50.42,14.32-64.93,74.15-69,102.24L1297,705.09c41.33-23.46,81.87-59,103.83-103.09,42.43-85.15,38.16-229.78-30.6-241.3S1319.34,446,1252.85,464.94Z" style="fill:#67dfe5"/><path d="M1234.21,625.41c4.26-4.4,8-8.45,11.43-12.34a1.8,1.8,0,0,0,0-2.39l-49.92-58.32a1.78,1.78,0,0,1-.44-1.42,1.88,1.88,0,0,1,.79-1.29,2.22,2.22,0,0,1,1.56-.41,2.12,2.12,0,0,1,1.39.73l48.69,56.87a2.11,2.11,0,0,0,1.38.71l.26,0a2.11,2.11,0,0,0,1.63-.74c17.3-20.56,34.16-44.84,50.13-72.16a1.77,1.77,0,0,0-.11-2l-41.38-55.91a1.85,1.85,0,0,1,.54-2.7,2.27,2.27,0,0,1,1.45-.31,2.09,2.09,0,0,1,1.49.83L1302,527.16a2.09,2.09,0,0,0,1.46.82,2.29,2.29,0,0,0,.37,0,2.11,2.11,0,0,0,1.72-1,813.67,813.67,0,0,0,43.51-89.75,1.8,1.8,0,0,0-.11-1.58l-21.29-36.86a1.77,1.77,0,0,1-.16-1.47,1.92,1.92,0,0,1,1-1.15,2.25,2.25,0,0,1,1.25-.22,2.13,2.13,0,0,1,1.6,1l17.84,30.88a2.06,2.06,0,0,0,1.57,1,1.79,1.79,0,0,0,.4,0,2,2,0,0,0,1.8-1.24c11.78-29.41,17.78-48.92,17.83-49.1a2.14,2.14,0,0,1,2.3-1.39,1.7,1.7,0,0,1,.31.06,1.92,1.92,0,0,1,1.44,2.38c-.06.23-7.25,23.5-21,56.95a2.25,2.25,0,0,0-.08.24,2.21,2.21,0,0,1-.21.49c-6.77,16.36-13.88,32.27-21.23,47.45a1.79,1.79,0,0,0,.27,2,2.11,2.11,0,0,0,1.37.71,2.22,2.22,0,0,0,.63,0l81.51-13.87a2.37,2.37,0,0,1,.65,0,2,2,0,0,1,1.8,1.58,1.84,1.84,0,0,1-.33,1.45,2.18,2.18,0,0,1-1.36.81l-87.22,14.84a2,2,0,0,0-1.5,1.08c-7,14.12-14.4,27.85-21.9,40.79,0,.09-.09.19-.13.28a1.75,1.75,0,0,1-.29.52,2.2,2.2,0,0,0-.17.25c-8.32,14.3-17,27.94-25.73,40.53a1.78,1.78,0,0,0-.08,1.93,2.08,2.08,0,0,0,1.57,1h.22l109.75,1.78h.17a2,2,0,0,1,1.84,2,2,2,0,0,1-2.15,1.9l-114.92-1.85a2.16,2.16,0,0,0-1.77.85,413,413,0,0,1-37.77,45.44Z" style="fill:#fff"/><path d="M1370.2,360.7c-68.75-11.51-50.86,85.33-117.35,104.24-50.42,14.32-64.93,74.15-69,102.24L1297,705.09c41.33-23.46,81.87-59,103.83-103.09C1443.23,516.85,1439,372.22,1370.2,360.7Z" style="mix-blend-mode:color-burn;fill:url(#linear-gradient-4)"/><path d="M507.56,649.43s13.31-3.39,19-20.61c5.74-17.52-5-28.19-5-28.19s-13,9.77-16.27,24.44C501.67,641.37,507.56,649.43,507.56,649.43Z" style="fill:#86e0ef"/><path d="M510,717.26a2.4,2.4,0,0,0,.82-.17,2.35,2.35,0,0,0,1.29-3.06c-.17-.42-18.24-44,5.54-89.69.6-1.15,1.31-1.85.16-2.45s-1.69.65-2.28,1.8c-24.81,47.68-8.5,90.29-7.76,92.11A2.34,2.34,0,0,0,510,717.26Z" style="fill:#3fcaea"/><path d="M435.59,540s9.47-17.63-7.44-33.72c-15.49-14.74-33.15-4.88-33.15-4.88s1.83,18.33,18.06,24.19C432.09,532.48,435.59,540,435.59,540Z" style="fill:#86e0ef"/><path d="M414,612.82s-16.24-1.45-23-20.93c-7-20.22,5.24-33.35,5.24-33.35a52.91,52.91,0,0,1,15.8,26C416.83,602.51,414,612.82,414,612.82Z" style="fill:#86e0ef"/><path d="M431,629.36a2.41,2.41,0,0,1-.81-.23c-23.1-11.27-30.31-39.38-30.63-40.56s-.28-2.43,1-2.77,1.4,1.06,1.74,2.3c.08.28,8.8,26.5,30,36.81a2.35,2.35,0,0,1-1.24,4.45Z" style="fill:#3fcaea"/><path d="M491,741.64a2.29,2.29,0,0,1-.84-.23c-26.89-13.38-73.72-59.78-58.45-139.6,13.42-70.2-10.19-83.77-10.43-83.89-1.15-.57-2.38-1.41-1.82-2.56s1.68-.72,2.84-.17,28.22,13.17,14,87.5c-14.74,77.06,30.14,121.69,55.94,134.52a2.34,2.34,0,0,1-1.25,4.43Z" style="fill:#3fcaea"/><path d="M172.09,810.05c-16.83-.19-26.52,5.11-40.27-2.91s-22.19-1.61-22.33,8.62,13.41,21,30.59,15.87S172.09,810.05,172.09,810.05Z" style="fill:#0894a3"/><path d="M179.15,807.53a2.34,2.34,0,0,0-3.32-3.3C158.29,820,130.55,817,130.27,816.91a2.35,2.35,0,1,0-.54,4.66c1.22.14,30.14,3.34,49.24-13.86Z" style="fill:#3fcaea"/><path d="M127.24,778.27c-15.69-2.08-33.41-2.39-44.4,5.12s-24,8.47-24.78-5.51,17.69-23.56,38.32-18S127.24,778.27,127.24,778.27Z" style="fill:#0894a3"/><path d="M305.74,794a2.34,2.34,0,0,0-3.31-3.31c-21.56,19.1-79.76,44-145.68,1.45C93,751,74.27,771.27,73.52,772.18A2.34,2.34,0,0,0,77,775.27h0c.29-.31,17.64-17.64,77.17,20.79,68.29,44.07,128.85,18,151.33-1.88Z" style="fill:#3fcaea"/><path d="M375.62,825.23c-2.66,4-5,7.33-7.91,8.91-12.31,7.1-31,5.37-38.61-3.72-4-4.73-4.38-10.37-1.14-15.95A26.29,26.29,0,0,1,338.13,805c9.53-4.78,35.44-5.23,45.19-5.4.39,0,.71-.2,1.05-.21-1,5.83-3.87,15.18-8.75,25.85Zm-32-62.38c-7.47-9.9-7.35-20.47-4.09-26.1a11.33,11.33,0,0,1,2.43-3c6-5,16-1.47,25,8.77,7,8.13,13.57,29.55,16.25,39.43C372.88,779.31,349.75,771.79,343.6,762.85Zm-63.05,49.09c-13.3,4.59-30.05-.15-35.16-10a12,12,0,0,1,.28-12.09c2.61-4.51,7.86-8.25,14.29-10.23,10.5-2.83,35.3,1.76,44.64,3.48h.06c-1,2-2.36,4.75-4.07,7.69C293.87,802.44,286.77,809.92,280.55,811.94Zm-5.14-70.67c-3.29-7.39-3.2-15.32.22-21.22a13.56,13.56,0,0,1,5.83-5.58c7.31-3.38,16.12,1.87,21.91,13,4.42,8.74,5,29.35,4.86,39C299.23,762.07,279.17,750.71,275.41,741.27Zm-74.17,33.61c-13.72,2.07-29-5.52-32.08-15.93a11.2,11.2,0,0,1,1-9.2c2.94-5.07,9.94-8.7,18.14-9.47,11-.64,33.77,8.21,42.82,11.76C225.27,759.06,211.82,773.44,201.24,774.88Zm11.17-68a22.39,22.39,0,0,1,2.35-15.56,16.08,16.08,0,0,1,10.63-8c8.37-1.58,15.86,5.08,18.61,16.5,1.73,7.67-1.53,24-5.26,37.26C231.05,731.15,213.93,716.4,212.41,706.86Zm-54-44.41a20.68,20.68,0,0,1,2.75-9.85c3.54-6.1,10.06-9.86,16.6-9.58,9.24.43,15.16,8.09,15.1,19.43-.21,6.26-5.45,18.74-14.41,34.35C172.07,689.78,157.81,672.1,158.44,662.45Zm-25.68,63.33c-14.32-.63-28.46-11.21-29.68-22.21a10.74,10.74,0,0,1,1.29-6.75c3.27-5.65,12-8.52,22.11-7.34,11.48,1.78,32.44,14.76,40.91,20C160,715.15,143.82,726.38,132.76,725.78Zm16-104.12c-5.1,8.8-16.3,20.43-21.36,25.58-5-8-16.09-28.83-13.11-38a20,20,0,0,1,1.92-4.51A21.46,21.46,0,0,1,140,595.13c9.55,2.67,13.82,11.37,10.93,22a23.32,23.32,0,0,1-2.1,4.49Zm-75,43.68c-14.85-3.77-28-17.82-27.12-28.94a10.26,10.26,0,0,1,1.33-4.46c3.64-6.29,14.94-7.88,26.73-3.85,11.81,4.56,30.92,22,38.48,28.9C96.36,664.47,82.15,667.51,73.85,665.34Zm16.7-54c-9.93-4.55-32.78-16.76-39.6-28.64-5.53-9.2-6.72-19.25-3-25.6A10.37,10.37,0,0,1,54.8,552c10.21-2.37,24.32,6.17,31.39,18.9,4.64,9.31,4.44,30.87,4.36,40.08Z" style="fill:#76d8dd"/><path d="M437.73,794.23a2.41,2.41,0,0,0,.2-1.8,4.11,4.11,0,0,0-3.87-3.16,376.89,376.89,0,0,1-38.76-.55l-.55,0-.43-.35A344.44,344.44,0,0,1,353,748.19c-1.16-1.36-3.1-1.78-4.23-.92a2,2,0,0,0-.49.55,2.85,2.85,0,0,0,.59,3.21,346,346,0,0,0,33.31,33.49l4,3.53-5.31-.56a378.11,378.11,0,0,1-62.65-12l-.55-.15-.35-.45a315.36,315.36,0,0,1-28.79-45,3.46,3.46,0,0,0-4.08-1.75,2.13,2.13,0,0,0-1.05.88,2.46,2.46,0,0,0,.06,2.39,319.25,319.25,0,0,0,23.13,37.42l3,4.18-4.9-1.57a406.5,406.5,0,0,1-58.29-24l-.53-.27-.25-.55a284,284,0,0,1-17-47.72,3.46,3.46,0,0,0-3.7-2.44,2.18,2.18,0,0,0-1.72,1,2.26,2.26,0,0,0-.21,1.7,290.77,290.77,0,0,0,13.55,39.58l1.91,4.53-4.3-2.38A406.88,406.88,0,0,1,184,708.18l-.49-.38-.13-.61a240.79,240.79,0,0,1-6.08-48.83,3.42,3.42,0,0,0-3.22-3,2.55,2.55,0,0,0-2.5,1.11,2,2,0,0,0-.26,1.06A244.36,244.36,0,0,0,175.83,698l.9,4.63-3.65-3a397.66,397.66,0,0,1-42.39-40.38l-.43-.48v-.64a196.08,196.08,0,0,1,5.18-48.54c.33-1.35-.86-2.9-2.61-3.39a3,3,0,0,0-3.44,1,1.78,1.78,0,0,0-.19.5,194.73,194.73,0,0,0-4.78,39.91l-.1,4.51-2.91-3.45c-6.76-8-13.45-16.68-19.88-25.71l-.08-.12-.06-.13a3.37,3.37,0,0,0-.25-.45,348.68,348.68,0,0,1-30.95-52.66,4.14,4.14,0,0,0-4.62-2A2.54,2.54,0,0,0,64,568.67a2,2,0,0,0,0,1.85,362.71,362.71,0,0,0,28.67,49.05l.12.17.08.2a2.87,2.87,0,0,0,.3.58c7.46,10.7,15.62,21.28,24.26,31.43l3.39,4-5.08-1.22A396.9,396.9,0,0,1,68.24,640a2.92,2.92,0,0,0-3.57,1,2.53,2.53,0,0,0-.14.29A2.17,2.17,0,0,0,64.6,643a3.19,3.19,0,0,0,1.8,1.63A402.49,402.49,0,0,0,126,662.11l.54.11.37.41a409.89,409.89,0,0,0,43.39,41.07l3.89,3.18-5-.16a373.92,373.92,0,0,1-46.32-4.36,2.53,2.53,0,0,0-2.64,1.16,2.1,2.1,0,0,0-.29.85,2.77,2.77,0,0,0,2.4,2.94,377.41,377.41,0,0,0,58,4.68h.58l.45.34a416.32,416.32,0,0,0,51.32,33.35l4.24,2.34-4.77.83a354.72,354.72,0,0,1-44.72,4.86,2.42,2.42,0,0,0-2,1.19,2.35,2.35,0,0,0-.31,1.38,2.72,2.72,0,0,0,2.82,2.44,374.91,374.91,0,0,0,40.72-4c4.88-.76,10-1.68,15.18-2.74l.58-.11.53.26a411.71,411.71,0,0,0,59.58,24.43l4.5,1.44-4.38,1.76A316,316,0,0,1,262,793.34a2.32,2.32,0,0,0-1.48,1.08,2.44,2.44,0,0,0-.21,1.91,2.82,2.82,0,0,0,2.93,2,2.63,2.63,0,0,0,.39-.06,317.06,317.06,0,0,0,53.16-17.54l.56-.25.58.17a398.55,398.55,0,0,0,64.38,12.49l4.5.5-3.7,2.59a257,257,0,0,1-39.25,22.38,2.11,2.11,0,0,0-.95.87,2.59,2.59,0,0,0,0,2.53,3.22,3.22,0,0,0,2.67,1.7,2.64,2.64,0,0,0,1.11-.21,255.81,255.81,0,0,0,49.08-28.73l.51-.39.64,0a369.63,369.63,0,0,0,39.07.72A1.88,1.88,0,0,0,437.73,794.23Z" style="fill:#b6e9ef"/><path d="M46.73,636.39a10.26,10.26,0,0,1,1.33-4.46C51.7,625.64,63,624,74.79,628.08c9.94,3.83,25,16.76,34.07,24.89q3.45.9,6.88,1.73l5.08,1.22-3.39-4c-8.64-10.15-16.8-20.73-24.26-31.43a2.87,2.87,0,0,1-.3-.58l-.08-.2-.12-.17c-2.44-3.52-4.8-7.09-7.11-10.67-11.17-5.63-28.76-16-34.61-26.22-5.53-9.2-6.72-19.25-3-25.6A10.37,10.37,0,0,1,54.8,552c10.21-2.37,24.32,6.16,31.39,18.9,4,8,4.4,25.13,4.39,35.6q5,8,10.55,15.75a3.37,3.37,0,0,1,.25.45l.06.13.08.12c6.43,9,13.12,17.68,19.88,25.71l2.91,3.45.1-4.51c0-1.75.09-3.49.17-5.22-5.38-9.66-12.74-25.43-10.25-33.11a19.82,19.82,0,0,1,1.92-4.51A21.46,21.46,0,0,1,140,595.12c9.55,2.67,13.82,11.37,10.93,22a23.32,23.32,0,0,1-2.1,4.49c-4.22,7.28-12.62,16.5-18.26,22.38q-.36,6.91-.29,14.06v.64l.43.48a397.66,397.66,0,0,0,42.39,40.38l3.65,3-.9-4.63c-.35-1.79-.67-3.56-1-5.33-7-8.36-16.94-22.09-16.41-30.18a20.68,20.68,0,0,1,2.75-9.85c3.54-6.1,10.06-9.86,16.6-9.58,9.24.43,15.16,8.08,15.1,19.43-.19,5.75-4.65,16.78-12.32,30.64.78,4.65,1.69,9.35,2.76,14.1l.13.61.49.37a405.81,405.81,0,0,0,50.21,32.76l4.3,2.38-1.91-4.53q-1.1-2.62-2.15-5.23c-8.45-7-20.71-18.68-22-26.69a22.39,22.39,0,0,1,2.35-15.56,16.08,16.08,0,0,1,10.63-8c8.37-1.58,15.86,5.08,18.61,16.5,1.56,6.91-.93,20.82-4.17,33.22,1.82,4.54,3.75,9.09,5.83,13.64l.25.54.53.27a406.5,406.5,0,0,0,58.29,24l4.9,1.57-3-4.18q-1.72-2.43-3.41-4.87c-9.94-5.39-24.65-14.68-27.82-22.63-3.29-7.39-3.2-15.32.22-21.22a13.56,13.56,0,0,1,5.83-5.58c7.31-3.38,16.12,1.87,21.91,13,3.85,7.6,4.76,24.2,4.86,34.73q4.39,6.36,9.14,12.61l.35.45.55.16a378.11,378.11,0,0,0,62.65,12l5.31.56-4-3.53c-1.54-1.35-3.06-2.72-4.57-4.09-11.45-3.46-28.84-10-34-17.58-7.47-9.9-7.35-20.47-4.09-26.1a11.33,11.33,0,0,1,2.43-3c6-5,16-1.47,25,8.77,6.1,7.08,11.86,24.23,15,35.07q6,5.45,12.38,10.71l.43.35.55,0a376.89,376.89,0,0,0,38.76.55,4.11,4.11,0,0,1,3.87,3.15,2.44,2.44,0,0,1-.2,1.81,1.9,1.9,0,0,1-1.66.92,372.32,372.32,0,0,1-39.07-.72l-.64,0-.51.39c-3.92,3-8,5.83-12.28,8.62-1.4,6.25-4,15.17-7.95,21.84h0c-2.66,4-5,7.33-7.91,8.9-12.31,7.11-31,5.45-38.61-3.65-4-4.73-4.38-10.41-1.14-16A26.31,26.31,0,0,1,338.13,805c8.15-4.09,28.23-5,40-5.33q2.55-1.68,5-3.41l3.7-2.6-4.5-.49A397.5,397.5,0,0,1,318,780.63l-.58-.16-.56.25q-6.68,2.91-13.74,5.56c-.73,1.4-1.56,2.93-2.5,4.55-6.72,11.6-13.82,19.08-20,21.1-13.3,4.59-30.05-.15-35.16-10a12,12,0,0,1,.28-12.09c2.61-4.51,7.86-8.25,14.29-10.23,8.72-2.34,27.29.42,38.69,2.41q3-1.12,5.88-2.29l4.38-1.76-4.5-1.44a412.84,412.84,0,0,1-59.58-24.43l-.53-.26-.58.11c-5.1,1-10.1,1.94-14.9,2.7-6.58,7.47-18.21,18.9-27.58,20.18-13.72,2.07-29-5.52-32.08-15.93a11.23,11.23,0,0,1,1-9.21c2.94-5.07,9.94-8.69,18.14-9.46,9.22-.54,26.59,5.55,37.33,9.63q3.24-.49,6.43-1l4.77-.83-4.24-2.34a416.32,416.32,0,0,1-51.32-33.35l-.45-.35h-.58c-5.17,0-10.39-.14-15.63-.38-8.16,5.92-22,14.7-31.83,14.17-14.32-.63-28.46-11.21-29.68-22.21a10.74,10.74,0,0,1,1.29-6.75c3.27-5.65,12-8.52,22.11-7.34,9.64,1.49,25.93,10.86,35.93,17q3.36.16,6.71.27l5,.16-3.89-3.18a409,409,0,0,1-43.39-41.08l-.37-.4-.54-.11q-8-1.67-16-3.71c-15.46,6.45-28.38,9-36.14,6.94C59,661.56,45.82,647.51,46.73,636.39Z" style="mix-blend-mode:color-burn;fill:url(#linear-gradient-5)"/><path d="M327.35,577.38a125,125,0,0,0-20.48-46.85c-11.92-16.34-25.08-25.62-39.14-27.61l-.11,0a35.28,35.28,0,0,0-6.88-.34c-14.62.67-28.36,10.07-37.71,25.79-11.85,19.58-15.77,47.59-10.21,73.09A299.77,299.77,0,0,0,248,692.15a303.3,303.3,0,0,0,61.44,74.24,299.51,299.51,0,0,0,176.32,73.78l-.35-7.57,0-.55-4.71-101.94-.14-3.13-.24-5.08A184.85,184.85,0,0,1,327.35,577.38Z" style="fill:#4ac4d8"/><path d="M412.88,810.3a2.32,2.32,0,0,1-2.2-1.59,2.27,2.27,0,0,1,.12-1.77,2.29,2.29,0,0,1,1.35-1.17,260.19,260.19,0,0,0,48.71-22,1.7,1.7,0,0,0-.53-3.15,244.67,244.67,0,0,1-34.9-9.57,1.62,1.62,0,0,0-.38-.09.43.43,0,0,1,0,.07,1.75,1.75,0,0,1-.78.79c-15.33,6.22-31.32,10-48.25,13.92-4,.95-8.11,1.9-12.21,2.9l-.2,0c-1.52,0-2.39-1.77-2.53-2.73a3.32,3.32,0,0,1,.44-2.09A2.53,2.53,0,0,1,363,782.7,252.09,252.09,0,0,0,414.2,770a1.75,1.75,0,0,0,.07-3.24A244.86,244.86,0,0,1,382.73,751a1.7,1.7,0,0,0-.87-.24,1.22,1.22,0,0,0-.32,0,244.58,244.58,0,0,1-37.71,4.66c-3.88.19-7.86.28-11.83.28s-8.28-.1-12.41-.29a2.34,2.34,0,0,1-2.21-2.44,2.34,2.34,0,0,1,2.22-2.21c4.14.18,8.24.28,12.26.28s7.87-.09,11.72-.27a244.42,244.42,0,0,0,28.47-3,1.7,1.7,0,0,0,.66-3.1,248.69,248.69,0,0,1-27.55-21.16,1.67,1.67,0,0,0-1.12-.43l-3.79,0a249.94,249.94,0,0,1-57.79-6.91c-1.25-.3-2-2.34-1.72-3.59.24-1,1.12-2.58,2.15-2.58h0c.25,0,.43.82.6.86A247.72,247.72,0,0,0,335.32,718a1.6,1.6,0,0,0,1.6-.85,1.56,1.56,0,0,0-.37-1.78c-2.23-2.17-4.45-4.37-6.59-6.62a248.87,248.87,0,0,1-16.41-19.11,1.69,1.69,0,0,0-1.06-.62,246.1,246.1,0,0,1-59.24-18.31,2.48,2.48,0,0,1-1.17-3.2,2.38,2.38,0,0,1,2-1.49h0a2.41,2.41,0,0,1,1,.33,243.91,243.91,0,0,0,49.64,16.4,1.45,1.45,0,0,0,.35.07,1.74,1.74,0,0,0,1.43-.75,1.69,1.69,0,0,0,0-1.9,245.31,245.31,0,0,1-17.83-29.7,1.72,1.72,0,0,0-.92-.82,242.42,242.42,0,0,1-54.86-29.49,2.31,2.31,0,0,1-.94-1.51,5.2,5.2,0,0,1,.4-2.69c.42-.59,1.07-1.94,1.79-1.94h0c.59,0,1.05,1.11,1.44,1.39a242.19,242.19,0,0,0,45.77,26.19c.2.09.43.37.66.37a1.64,1.64,0,0,0,1.21-.39,1.59,1.59,0,0,0,.34-1.83,244.21,244.21,0,0,1-12-32.81,1.66,1.66,0,0,0-.73-1,233,233,0,0,1-38.39-30.09,2.3,2.3,0,0,1-.72-1.63,5.17,5.17,0,0,1,.66-2.59c.41-.43,1-1.65,1.57-1.65h0c.71,0,1.28,1.17,1.71,1.59A235.08,235.08,0,0,0,266,596.81c.28.19.61.53,1,.53a1.78,1.78,0,0,0,1-.18,1.6,1.6,0,0,0,.69-1.74,254.51,254.51,0,0,1-6.37-52.72c0-1.25,1-3.32,2.19-3.32h0c.74,0,1.32,1.22,1.76,1.64a3.68,3.68,0,0,1,.7,2.14,241,241,0,0,0,6.37,51.45,1.84,1.84,0,0,0,1.41,1.41c.1,0,.18.09.26.09a1.7,1.7,0,0,0,1.47-.84c6.25-11,13.35-22.14,21.09-31.59.57-.7,1.3-1.64,1.69-1.64h0c.64,0,1.15,1,1.56,1.33a3.3,3.3,0,0,1,.84,2,2.74,2.74,0,0,1-.51,1.9,220,220,0,0,0-24.69,37.7,1.86,1.86,0,0,0-.12,1.31,240.88,240.88,0,0,0,11.81,32,1.7,1.7,0,0,0,3.16-.13,215.34,215.34,0,0,1,21-44.22,2.37,2.37,0,0,1,1.87-1.2h0a2.47,2.47,0,0,1,1.33.47,2.39,2.39,0,0,1,.74,3.26,212.07,212.07,0,0,0-23.12,51.11,1.8,1.8,0,0,0,.11,1.29,243.31,243.31,0,0,0,17.44,28.85,1.71,1.71,0,0,0,1.4.73,1.72,1.72,0,0,0,1.68-1.45A211.48,211.48,0,0,1,326.2,630.1a2.18,2.18,0,0,1,2.05-1.39h0a2.46,2.46,0,0,1,.94.09,2.19,2.19,0,0,1,1.28,1.2,2.24,2.24,0,0,1,0,1.76,210.07,210.07,0,0,0-13.22,54.13,1.68,1.68,0,0,0,.35,1.22,244.53,244.53,0,0,0,22.43,25,1.66,1.66,0,0,0,1.19.49,1.76,1.76,0,0,0,.7-.16,1.68,1.68,0,0,0,1-1.62,216.66,216.66,0,0,1,3.49-49c.2-1.06,1.1-2.52,2.18-2.52h.06c.21,0,.34.65.47.67A2.67,2.67,0,0,1,351,663.1a209.23,209.23,0,0,0-2.91,55.74,1.88,1.88,0,0,0,.58,1.22,244.11,244.11,0,0,0,26.86,20.62,1.67,1.67,0,0,0,.94.3,1.75,1.75,0,0,0,1-.29,1.69,1.69,0,0,0,.68-1.79,211.69,211.69,0,0,1-5.76-48.72c0-1.24,1-2.8,2.22-2.8h0c.71,0,1.3.72,1.74,1.16a2.94,2.94,0,0,1,.68,1.89,206.16,206.16,0,0,0,7.75,55.44,1.86,1.86,0,0,0,.77,1.07,241.74,241.74,0,0,0,30.78,15.43,1.86,1.86,0,0,0,.66.14,1.74,1.74,0,0,0,1.23-.52,1.72,1.72,0,0,0,.31-1.88,203.9,203.9,0,0,1-15.23-46.52,2.33,2.33,0,0,1,.35-1.74c.35-.52.88-1.26,1.49-1.37.11,0,.23-.44.35-.44h0a2.73,2.73,0,0,1,2.38,2.27,201.36,201.36,0,0,0,18.66,53.35,1.8,1.8,0,0,0,.94.92A239.14,239.14,0,0,0,461.66,776a3.06,3.06,0,0,0,.32.05,1.69,1.69,0,0,0,1.37-2.71,197.7,197.7,0,0,1-24.82-42.93,2.32,2.32,0,0,1,0-1.79c.23-.57.68-2.26,1.26-2.5.27-.11.53-1.43.79-1.43h0c1,0,1.88,1.81,2.24,2.67a198.1,198.1,0,0,0,29.72,49.49l.2.57c.26.34.27.5.44.52.81.12,1.69.31,2.56.42,1.45.18,2.87.4,3.95.6a.87.87,0,0,1,.7.82l.14,3a.88.88,0,0,1-.85.9l-.19,0c-1-.23-2.75-.43-4.42-.63-1.1-.13-2.21-.26-3.18-.4l-.21,0a1.62,1.62,0,0,0-.64.27,260,260,0,0,1-57.48,27.31,1.74,1.74,0,0,1-.58.12Z" style="fill:#f5f5f5"/><path d="M485.4,832.6l0-.55-4.71-101.94-.14-3.13-.24-5.08A184.85,184.85,0,0,1,327.35,577.38a125,125,0,0,0-20.48-46.85c-11.92-16.34-25.08-25.62-39.14-27.61l-.11,0a35.28,35.28,0,0,0-6.88-.34c-14.62.67-28.36,10.07-37.71,25.79-11.85,19.58-15.77,47.59-10.21,73.09A299.77,299.77,0,0,0,248,692.15a303.3,303.3,0,0,0,61.44,74.24,299.51,299.51,0,0,0,176.32,73.78Z" style="mix-blend-mode:color-burn;fill:url(#linear-gradient-6)"/><path d="M312.24,764.8c-11.48,27.93-.28,58.58,16.28,86.58h213c-3.4-21.34-12.67-46.67-33.25-74C450.13,700.25,339.08,699.6,312.24,764.8Z" style="fill:#7fcbf1"/><path d="M382.7,851.38C343.42,782,264.89,757.23,227.27,796c-17,17.56-15.93,36.67-9,55.34Z" style="fill:#3ca7de"/><path d="M662.08,701c53.94,2.13,86.15,80.29,60.79,144.45-.76,1.95-1.65,3.24-2.63,5.91h-201c-37.66-36-98.87-122.2-62-150.06,38.43-29,109.2,13.31,148.12,61.53C613.57,731.28,628.29,699.68,662.08,701Z" style="fill:#3ca7de"/><path d="M660.38,701.3c-33.8-1.34-48.51,30.12-56.7,61.69C564.75,714.77,494,672.3,455.56,701.3c-8.5,6.42-11.79,15.93-11.37,27.2-54.42-22.89-114.8-9.65-133.65,36.13a62.59,62.59,0,0,0-4.5,19.45c-30.38-11.48-61-9-80.48,11.14-17,17.55-15.93,37.49-8.94,54.82H718.54c1-2.66,1.87-3.14,2.63-5.1C746.53,780.79,714.32,703.43,660.38,701.3Z" style="mix-blend-mode:color-burn;fill:url(#linear-gradient-7)"/><path d="M1001.1,835.82c531.19,0,961.8,14.07,961.8,31.42s-430.61,31.42-961.8,31.42S39.28,884.59,39.28,867.24s430.62-31.42,961.82-31.42" style="fill:#bcecff;fill-rule:evenodd"/><path d="M1067.81,206.82a20.44,20.44,0,1,1-27.93,7.5,20.44,20.44,0,0,1,27.93-7.5m-95.56,32.73,5.76,3.33,1.49-2.59,3.5-.08a6.82,6.82,0,0,1,6.71,4.82,70.74,70.74,0,0,0,7.06,16,6.83,6.83,0,0,1-.93,8.21l-5.05,5.29a6.88,6.88,0,0,0,.23,9.73l10.15,9.67c1.12,1.07,5.65,4.15,7.09,4.31,2.06.24,1.08-2.92,2.63-4.54l5.05-5.31a6.83,6.83,0,0,1,8.15-1.32,69.63,69.63,0,0,0,16.29,6.29,6.81,6.81,0,0,1,5.13,6.46l.18,7.33c.08,3.79,5.79,8.39,11.24,9.82l9.81-3.45a6.87,6.87,0,0,0,6.7-7l-.18-7.32a6.81,6.81,0,0,1,4.82-6.69,70.48,70.48,0,0,0,16-7.08,6.83,6.83,0,0,1,8.2.94l5.31,5a6.87,6.87,0,0,0,9.72-.21L1127,281a6.89,6.89,0,0,0-.24-9.73l-5.29-5.05a6.81,6.81,0,0,1-1.33-8.15,70.24,70.24,0,0,0,6.29-16.29,6.8,6.8,0,0,1,6.47-5.12l7.32-.18a6.88,6.88,0,0,0,6.7-7l-.33-14a6.87,6.87,0,0,0-7-6.7l-7.31.17a6.82,6.82,0,0,1-6.71-4.81,70.62,70.62,0,0,0-7.06-16,6.81,6.81,0,0,1,.93-8.21l5.06-5.3a6.87,6.87,0,0,0-.24-9.71L1114,155.18a6.88,6.88,0,0,0-9.72.23l-5,5.31a6.83,6.83,0,0,1-8.15,1.32,70.9,70.9,0,0,0-16.29-6.3,6.81,6.81,0,0,1-5.13-6.46l5.16-5.73c-.09-3.79-8.57-8.38-12.37-8.29l-14,.33a6.89,6.89,0,0,0-6.71,7l.18,7.31a6.83,6.83,0,0,1-4.82,6.71,70.3,70.3,0,0,0-16,7.06,6.82,6.82,0,0,1-8.21-.92l-1.32-3c-5-3.95-11.08-4.6-13.7-1.85l-9.67,10.14a6.89,6.89,0,0,0,.23,9.73l5.3,5A6.83,6.83,0,0,1,995.1,191a70.54,70.54,0,0,0-6.3,16.28,6.8,6.8,0,0,1-6.46,5.14l-7.31.18a6.85,6.85,0,0,0-6.71,7l.33,14A6.86,6.86,0,0,0,972.25,239.55Zm79.8,22.65a38.07,38.07,0,1,1,42.89-45A38,38,0,0,1,1052.05,262.2Z" style="fill:#306bff;fill-rule:evenodd"/><path d="M830.59,180.73A34.49,34.49,0,1,1,789,206.19a34.5,34.5,0,0,1,41.59-25.46m-138.94,98.6L702.56,282l1.18-4.9,5.62-1.81a11.52,11.52,0,0,1,13.16,4.6,118.85,118.85,0,0,0,19,22.44A11.49,11.49,0,0,1,744,316l-5.64,11a11.61,11.61,0,0,0,5,15.63l21,10.79c2.33,1.2,11.13,4,13.53,3.59,3.46-.61.35-5.24,2.08-8.62l5.64-11a11.5,11.5,0,0,1,12.55-6,117.79,117.79,0,0,0,29.36,2.41,11.44,11.44,0,0,1,11.37,8l3.8,11.76c1.95,6.09,13.38,10.8,22.88,10.51l14.21-10.27a11.57,11.57,0,0,0,7.48-14.58l-3.78-11.75a11.49,11.49,0,0,1,4.59-13.14,118.86,118.86,0,0,0,22.45-19.07,11.5,11.5,0,0,1,13.72-2.4l11,5.62a11.58,11.58,0,0,0,15.61-5l10.8-21a11.62,11.62,0,0,0-5-15.62l-11-5.64a11.49,11.49,0,0,1-6-12.55,118.74,118.74,0,0,0,2.4-29.36,11.46,11.46,0,0,1,8-11.37l11.75-3.79a11.6,11.6,0,0,0,7.49-14.59L962,157a11.6,11.6,0,0,0-14.59-7.49l-11.75,3.78a11.51,11.51,0,0,1-13.14-4.58,118.44,118.44,0,0,0-19.06-22.45,11.49,11.49,0,0,1-2.4-13.74l5.63-11a11.56,11.56,0,0,0-5-15.6l-21-10.81a11.61,11.61,0,0,0-15.61,5l-5.64,11a11.47,11.47,0,0,1-12.55,6,120.33,120.33,0,0,0-29.37-2.41,11.46,11.46,0,0,1-11.38-8L811.73,75c-2-6.1-17.87-9.46-24-7.51l-22.51,7.24a11.6,11.6,0,0,0-7.49,14.59l3.77,11.75a11.51,11.51,0,0,1-4.59,13.15,118.85,118.85,0,0,0-22.44,19,11.5,11.5,0,0,1-13.73,2.43l-3.55-4.19c-10-4-20.12-2.13-23,3.56l-10.8,21a11.61,11.61,0,0,0,5,15.63l11,5.62a11.51,11.51,0,0,1,6,12.57,118.62,118.62,0,0,0-2.4,29.34,11.48,11.48,0,0,1-8,11.4l-11.74,3.78A11.57,11.57,0,0,0,675.79,249L683,271.55A11.59,11.59,0,0,0,691.65,279.33Zm139.9-1.5a64.2,64.2,0,1,1,47.88-93.28A64.12,64.12,0,0,1,831.55,277.83Z" style="fill-rule:evenodd;fill:url(#linear-gradient-8)"/><path d="M329,232h794.52c19.49,0,30.27,16.64,35.43,35.43l148.77,542c5.16,18.8-15.94,35.44-35.43,35.44H450.79c-19.48,0-31.15-16.42-35.43-35.44l-121.83-542C289.25,248.45,309.47,232,329,232" style="fill:#3dabf9;fill-rule:evenodd"/><path d="M352.38,232H1146.9c19.49,0,30.28,16.64,35.43,35.43l148.78,542c5.16,18.8-15.95,35.44-35.43,35.44H474.22c-19.49,0-31.16-16.42-35.43-35.44L317,267.46c-4.27-19,15.94-35.43,35.43-35.43" style="fill:#102b6e;fill-rule:evenodd"/><g style="clip-path:url(#clip-path)"><rect x="350" y="260.56" width="940.7" height="506.8" style="fill:url(#linear-gradient-9)"/></g><path d="M437.35,802.08H1504.82V830.3a28.31,28.31,0,0,1-28.23,28.22h-1011a28.3,28.3,0,0,1-28.22-28.22Z" style="fill:#3dabf9;fill-rule:evenodd"/><path d="M1038.63,802.08H1830.7V830.3a28.3,28.3,0,0,1-28.22,28.22H1066.85a28.3,28.3,0,0,1-28.22-28.22Z" style="fill:#128ee7;fill-rule:evenodd"/><path d="M462.94,812.65c6.41,0,11.6,6.5,11.6,14.52s-5.19,14.52-11.6,14.52-11.61-6.5-11.61-14.52,5.2-14.52,11.61-14.52" style="fill:#102b6e;fill-rule:evenodd"/><rect x="674.4" y="822.46" width="145.71" height="15.84" style="fill:#102b6e"/><rect x="834.37" y="822.46" width="37.22" height="15.84" style="fill:#102b6e"/><rect x="516.01" y="822.39" width="7.4" height="36.14" style="fill:#102b6e"/><rect x="531.34" y="822.39" width="7.4" height="36.14" style="fill:#102b6e"/><rect x="546.68" y="822.39" width="7.4" height="36.14" style="fill:#102b6e"/><rect x="562.01" y="822.39" width="7.4" height="36.14" style="fill:#102b6e"/><rect x="577.34" y="822.39" width="7.4" height="36.14" style="fill:#102b6e"/><rect x="592.68" y="822.39" width="7.4" height="36.14" style="fill:#102b6e"/><rect x="608.01" y="822.39" width="7.4" height="36.14" style="fill:#102b6e"/><rect x="608.01" y="822.39" width="7.4" height="36.14" style="fill:#102b6e"/><rect x="623.34" y="822.39" width="7.4" height="36.14" style="fill:#102b6e"/><rect x="623.34" y="822.39" width="7.4" height="36.14" style="fill:#102b6e"/><rect x="638.67" y="822.39" width="7.4" height="36.14" style="fill:#102b6e"/><path d="M405.77,281.89H978.45c23.46,0,32.65,36.69,3.56,36.69H405.77a18.4,18.4,0,0,1-18.34-18.34h0a18.4,18.4,0,0,1,18.34-18.34m572.68,1.31H405.77a17.07,17.07,0,0,0-17,17h0a17.07,17.07,0,0,0,17,17H982C1009.34,317.27,1000.2,283.2,978.45,283.2Z" style="fill:#00a0e8"/><path d="M976.89,282.55H927.51l8.2,35.38h49.44C1005.53,317.93,1007.88,282.55,976.89,282.55Z" style="fill:#00a0e8;fill-rule:evenodd"/><path d="M976.89,282.55H927.51l8.2,35.38h49.44C1005.53,317.93,1007.88,282.55,976.89,282.55Z" style="fill:none;stroke:#00a0e8;stroke-miterlimit:22.925600000000003;stroke-width:0.216px"/><path d="M1103.57,286.53h-57.74a2.23,2.23,0,0,0-2.23,2.23h0a2.23,2.23,0,0,0,2.23,2.22h57.74a2.23,2.23,0,0,0,2.23-2.22h0a2.23,2.23,0,0,0-2.23-2.23" style="fill:#00a0e8;fill-rule:evenodd"/><path d="M1105.78,296.55H1048a2.23,2.23,0,0,0-2.23,2.23h0A2.23,2.23,0,0,0,1048,301h57.74a2.23,2.23,0,0,0,2.23-2.22h0a2.23,2.23,0,0,0-2.23-2.23" style="fill:#00a0e8;fill-rule:evenodd"/><g style="clip-path:url(#clip-path-2)"><rect x="258.02" y="618.98" width="101.33" height="110.45" style="fill:url(#linear-gradient-10)"/></g><g style="clip-path:url(#clip-path-3)"><rect x="259.99" y="619.12" width="28.01" height="57.31" style="fill:url(#linear-gradient-11)"/></g><path d="M318.26,656.22H306.77V668a6.34,6.34,0,0,0,6.32,6.33h5.17a6.34,6.34,0,0,0,6.32-6.33V656.22Z" style="fill:#1a47b6;fill-rule:evenodd"/><path d="M289.86,676.54l-29.7-.21s-1.23,14.16,7.73,18.32,19.21,3.61,19.21,3.61h65.21s-5.51-8.4-14.93-9.1-8.57-.43-8.57-.43-9.26-9.09-19.44-10.5-19.51-1.69-19.51-1.69" style="fill:#f4b1b1;fill-rule:evenodd"/><rect x="281.93" y="739.43" width="85.37" height="6.01" style="fill:#1643b4"/><path d="M376.38,832.15H277.13a2,2,0,0,0,0,4.08h99.25a2,2,0,0,0,0-4.08" style="fill:#1643b4;fill-rule:evenodd"/><path d="M299.11,745.14,273.55,868.22h3.07l25.71-123.81Zm55.3,0L380,868.22h-3.07l-25.7-123.81Z" style="fill:#1643b4;fill-rule:evenodd"/><path d="M394.28,711.43H301.67a16.31,16.31,0,0,0-3.07.29h0c-25.85-.13-29.06,16.61-30.88,34.85l-10.43,104.8h35.1l11.44-111h90.32c9.15,0,16.77-3.11,16.77-12.25a16.69,16.69,0,0,0-16.63-16.64" style="fill:#070742;fill-rule:evenodd"/><polygon points="284.32 851.37 292.38 851.37 303.82 740.32 381.48 740.32 384.19 734.7 295.52 734.7 284.32 851.37" style="fill:#070742;fill-rule:evenodd"/><path d="M377.7,853.08l-42.16-24a4.48,4.48,0,0,1-2-5.58,4.81,4.81,0,0,1,.44-.84l14.3-21.17a28.31,28.31,0,0,1,5,1,4.91,4.91,0,0,0,4.73-1.06,2.37,2.37,0,0,0,.27-.28c3.39-3.71,10.31-1.57,9.07,3.23-.15.63-.32,1.22-.5,1.79,0,.14-.09.28-.13.41-.33,1-.67,1.9-1,2.68l0,0a29.51,29.51,0,0,1-1.5,3.13c.15,1,.29,2,.43,3,.07.49.13,1,.2,1.45.14,1,.28,2,.43,3,.07.46.13.9.21,1.35.17,1.06.35,2.08.56,3,.09.45.19.88.3,1.31.87,3.52,2.18,6.32,4.57,8.16,4.21,3.22,11.39,8,11.19,16.73a3.07,3.07,0,0,1-.06.53,3,3,0,0,1-4.4,2" style="fill:#010528"/><path d="M385.41,716.29a22.75,22.75,0,0,0-9.19,8.22c-7.61,11.56-41.29,88-41.29,88H374.7l28.05-62c1.2-2.64,7.17-13.66,7.73-18.67,1.77-16.14-11.63-21.71-25.07-15.54" style="fill:#070742;fill-rule:evenodd"/><path d="M370.69,734.7c-12.15,24.21-35.76,77.77-35.76,77.77h11.72l37.54-77.76Z" style="fill:#070742;fill-rule:evenodd"/><path d="M341.75,596.89c4.75,8.48-3.41,20.32-13.47,19.46l0,2.7,5.48,7.81-5.4,8-5.62,2.05-13.58-3.5V609.78a7.2,7.2,0,0,1-1.52-.67c-1.53-.93-2.12-3.2-1.72-5.55a37.69,37.69,0,0,1,.95-4.1l3,1.2c-2.83-6.95-6.7-10.8.58-14.66s21.95-3.57,21.95-3.57l6.66,2.23c.29,6.46-.61,6.34,2.69,12.23" style="fill:#f4b1b1;fill-rule:evenodd"/><path d="M329.76,616.39a12.25,12.25,0,0,1-1.48,0,34.58,34.58,0,0,1-12.17-2.5,12.8,12.8,0,0,0,6.66,7.12,21.92,21.92,0,0,0,8.51,2.33l-3-4.25,0-2.7Z" style="fill:#ea9191;fill-rule:evenodd"/><g style="clip-path:url(#clip-path-4)"><rect x="359.35" y="625.74" width="21.17" height="40.1" style="fill:url(#linear-gradient-12)"/></g><path d="M322.56,650.62a1.49,1.49,0,1,0,1.49,1.49,1.49,1.49,0,0,0-1.49-1.49m0-8.63a1.49,1.49,0,1,0,1.49,1.48A1.49,1.49,0,0,0,322.56,642Zm5.74-23c5.16,8.81-.47,15.07-5.54,17.9-7.15-4.65-13.58-9.17-13.58-17.9,0,0-2.47,0-4.07,3.87-2.64,6.34,1.79,20.58,1.79,20.58s5-6.42,9.1-6.77a14.5,14.5,0,0,1,6.81.9c5.28-3.88,8.88,1.15,12.41,4.83,1.12-9.39,1-16.14-6.05-23.41Z" style="fill:#fff;fill-rule:evenodd"/><path d="M370.23,686.74c4.86.61,6.2.61,6.2.61s16.07-3.57,14.94-30.07,2.18-30.51,1.41-32.55a14.09,14.09,0,0,0-1.07-2.44L389.57,627c0-.71-4.22-16-5.17-10.34-.45,2.71,1.68,5.85.86,10.34,0,0-4.39-7.17-5.17-6.89s-.53,1.78-.28,2.31,2.87,8,2.87,8-4.72-5.21-5.14-5.28c-1.08-.18-2,1.35-1.38,2.12L381,633s-3.94-2.16-4.65-2.16-.91.7-.53,1.3c.21.31,3.68,2.54,4.31,4.31a12.4,12.4,0,0,1,.43,4.15c-.44,11.45-7.26,19.61-10.72,23.54a5.16,5.16,0,0,1-2.28,1.69l-8.17-.24c.95,5.46,6,20.53,10.88,21.14" style="fill:#f4b1b1;fill-rule:evenodd"/><path d="M357.49,642H282.72a5.24,5.24,0,0,0-5.25,5.19l-.13,45.91a5.23,5.23,0,0,0,5.24,5.19h74.78a5.24,5.24,0,0,0,5.24-5.19l.14-45.91a5.24,5.24,0,0,0-5.25-5.19" style="fill:#fff;fill-rule:evenodd"/><path d="M320,665.76a3.88,3.88,0,1,0,3.87,3.88,3.88,3.88,0,0,0-3.87-3.88" style="fill:#cbcbcb;fill-rule:evenodd"/><path d="M257,866.11c.37,6.66,24,4.37,27.73,2.37,1.46-.77,2.07-2.26,2.18-4.06.19-2.87-.89-6.54-1.81-9.42-1.51-4.69-1.3-4.6-2.35-7.81,0,0,.27-5.21-7.46-7.2s-10.56,11-11.88,13.48c-1.21,2.29-5.91,5.42-6.39,11a9.45,9.45,0,0,0,0,1.6" style="fill:#010528"/><path d="M276.41,695.4H381.86a47,47,0,0,1,46.92,46.83v126h-4.93v-126a42.08,42.08,0,0,0-42-41.92H276.41a42.1,42.1,0,0,0-42,41.92v126h-4.93v-126a47,47,0,0,1,46.93-46.83" style="fill:#1643b4;fill-rule:evenodd"/><path d="M232.41,695.4H425.85a2.93,2.93,0,0,1,2.93,2.92h0a2.93,2.93,0,0,1-2.93,2.92H232.41a2.93,2.93,0,0,1-2.93-2.92h0a2.93,2.93,0,0,1,2.93-2.92" style="fill:#1643b4;fill-rule:evenodd"/><path d="M1195.93,632.54s-.36-9.33,2.21-10.45,12.39-.1,12.39-.1a4.28,4.28,0,0,1,2.92,4.16c.22,3.5.22,6.39.22,6.39h-3.32s.26-5.17-.33-5.89-9.79-.25-9.79-.25-1.26,0-1.31,2.67,0,3.47,0,3.47Z" style="fill:#092978;fill-rule:evenodd"/><path d="M1197.38,623.61c.35.13,1.91-3.35,1.72-2.38l-1.73,8.58s2.38.7,3.62-.48l1.23-1.18-.28,2.93a1.59,1.59,0,0,0,2.12-.31,1.38,1.38,0,0,1,2-.31l1,1.59c2.26-.15,2.15-3,3.46-1,.81,1.22,1.54,1.2,2.18-.52a16.68,16.68,0,0,0,.68-4.36c.6-4.21-.21-10.68-2.52-12.64-1.51-1.27-7.64-.87-9.54-.07-1.07.45-9.23,8-3.92,10.15" style="fill:#f4b1b1;fill-rule:evenodd"/><path d="M1399.91,160.75h0a2.23,2.23,0,0,0,2.22,2.22h7.48v7.48a2.22,2.22,0,0,0,4.44,0V163h7.48a2.22,2.22,0,1,0,0-4.44h-7.48v-7.48a2.22,2.22,0,0,0-4.44,0v7.48h-7.48a2.23,2.23,0,0,0-2.22,2.22" style="fill:#219ef8;fill-rule:evenodd"/><path d="M132.73,215a12.37,12.37,0,0,1,17.48,0h0a12.4,12.4,0,0,1,0,17.49h0a12.37,12.37,0,0,1-17.5-17.5Zm8.74-10.51a19.19,19.19,0,0,0-13.62,5.64h0a19.25,19.25,0,1,0,27.22,27.22h0a19.25,19.25,0,0,0,0-27.23h0A19.18,19.18,0,0,0,141.47,204.46Z" style="fill:#f18e00"/><path d="M5.74,324a6.75,6.75,0,0,1,9.54,0h0a6.76,6.76,0,0,1,0,9.54h0A6.75,6.75,0,0,1,5.73,324Zm4.77-5.74a10.48,10.48,0,0,0-7.43,3.08h0a10.5,10.5,0,1,0,14.85,14.85h0a10.53,10.53,0,0,0,0-14.86h0A10.48,10.48,0,0,0,10.51,318.3Z" style="fill:#f18e00"/><path d="M1219.52,117.21a8.82,8.82,0,0,1,12.46,0h0a8.82,8.82,0,0,1,0,12.46h0a8.82,8.82,0,0,1-12.47-12.47Zm6.23-7.49a13.68,13.68,0,0,0-9.7,4h0a13.72,13.72,0,1,0,19.4,19.4h0a13.7,13.7,0,0,0,0-19.39h0A13.71,13.71,0,0,0,1225.75,109.72Z" style="fill:#f18e00"/><path d="M239.67,349.25h0a2.5,2.5,0,0,0-2.49,2.5v21.83a2.5,2.5,0,0,0,5,0V351.75a2.51,2.51,0,0,0-2.5-2.5" style="fill:#219ef8;fill-rule:evenodd"/><path d="M226.26,362.66h0a2.51,2.51,0,0,0,2.5,2.5h21.83a2.5,2.5,0,0,0,0-5H228.76a2.51,2.51,0,0,0-2.5,2.5" style="fill:#219ef8;fill-rule:evenodd"/><path d="M1328.51,29.44a11.7,11.7,0,0,0-16.54,0h0A11.71,11.71,0,0,0,1312,46h0a11.7,11.7,0,0,0,16.55-16.55Zm-8.27-10a18.15,18.15,0,0,1,12.88,5.34h0a18.21,18.21,0,1,1-25.75,25.76h0a18.19,18.19,0,0,1,0-25.75h0A18.15,18.15,0,0,1,1320.24,19.49Z" style="fill:#f18e00"/><path d="M1318.05,254.06h0a2.23,2.23,0,0,0,2.22,2.22h7.48v7.48a2.22,2.22,0,0,0,4.44,0v-7.48h7.48a2.22,2.22,0,0,0,0-4.44h-7.48v-7.48a2.22,2.22,0,1,0-4.44,0v7.48h-7.48a2.23,2.23,0,0,0-2.22,2.22" style="fill:#219ef8;fill-rule:evenodd"/><path d="M966.67,94.47h0a2.22,2.22,0,0,0,2.22,2.21h7.48v7.48a2.22,2.22,0,1,0,4.44,0V96.68h7.48a2.22,2.22,0,1,0,0-4.43h-7.48V84.76a2.22,2.22,0,0,0-4.44,0v7.49h-7.48a2.22,2.22,0,0,0-2.22,2.22" style="fill:#219ef8;fill-rule:evenodd"/><path d="M830.64,20.05a8.82,8.82,0,0,0-12.46,0h0a8.82,8.82,0,0,0,0,12.46h0a8.82,8.82,0,0,0,12.47-12.47Zm-6.23-7.49a13.68,13.68,0,0,1,9.7,4h0A13.72,13.72,0,1,1,814.71,36h0a13.7,13.7,0,0,1,0-19.39h0A13.71,13.71,0,0,1,824.41,12.56Z" style="fill:#f18e00"/><path d="M241.07,187.71h0a2.51,2.51,0,0,0-2.5,2.5V212a2.5,2.5,0,0,0,5,0V190.21a2.51,2.51,0,0,0-2.49-2.5" style="fill:#219ef8;fill-rule:evenodd"/><path d="M227.65,201.13h0a2.51,2.51,0,0,0,2.5,2.49H252a2.5,2.5,0,0,0,0-5H230.15a2.51,2.51,0,0,0-2.5,2.5" style="fill:#219ef8;fill-rule:evenodd"/><path d="M411.72,350.37,500,747.62a4,4,0,0,0,3.9,3.13h742.47a4,4,0,0,0,3.87-5l-105-396.92a4,4,0,0,0-3.86-3l-725.79-.33A4,4,0,0,0,411.72,350.37Z" style="fill:#e4f5fb;fill-rule:evenodd"/><polygon points="817.92 380.16 866.32 610.95 725.05 611.55 676.65 380.76 817.92 380.16" style="fill:#231f20;opacity:0.1"/><polygon points="828.01 386.23 876.41 617.02 735.14 617.62 686.74 386.83 828.01 386.23" style="fill:#fff"/><polygon points="834.77 497.76 836.29 505.01 733.45 505.32 731.93 498.07 834.77 497.76" style="fill:#bcbec0"/><polygon points="837.88 512.58 839.4 519.83 736.55 520.14 735.03 512.89 837.88 512.58" style="fill:#e6e7e8"/><polygon points="840.99 527.39 842.51 534.65 739.66 534.96 738.14 527.7 840.99 527.39" style="fill:#e6e7e8"/><polygon points="844.1 542.21 845.62 549.47 742.77 549.77 741.25 542.53 844.1 542.21" style="fill:#e6e7e8"/><polygon points="847.2 557.03 848.72 564.28 745.88 564.59 744.36 557.34 847.2 557.03" style="fill:#e6e7e8"/><path d="M769.89,407.54c-21.38-3.6-38.22,9.52-37.61,29.3s18.47,38.74,39.86,42.34,38.23-9.52,37.61-29.3S791.29,411.14,769.89,407.54Z" style="fill:#10abd9"/><polygon points="845.16 581.55 848.49 585.34 853.33 586.22 851 589.88 852.31 594.45 847.55 592.93 843.52 594.88 842.9 590.28 839.11 586.91 843.48 585.59 845.16 581.55" style="fill:#ff8d1a"/><polygon points="823.03 581.38 826.35 585.16 831.19 586.04 828.87 589.71 830.17 594.28 825.42 592.76 821.38 594.71 820.77 590.11 816.97 586.74 821.35 585.41 823.03 581.38" style="fill:#ff8d1a"/><polygon points="800.89 581.2 804.22 584.99 809.06 585.87 806.73 589.54 808.04 594.11 803.28 592.59 799.25 594.53 798.63 589.93 794.84 586.57 799.21 585.24 800.89 581.2" style="fill:#ff8d1a"/><polygon points="778.76 581.03 782.08 584.82 786.92 585.7 784.6 589.36 785.9 593.94 781.15 592.41 777.12 594.36 776.5 589.76 772.7 586.39 777.08 585.07 778.76 581.03" style="fill:#ff8d1a"/><polygon points="756.63 580.86 759.95 584.65 764.79 585.52 762.46 589.19 763.77 593.76 759.01 592.24 754.98 594.19 754.37 589.58 750.57 586.22 754.95 584.89 756.63 580.86" style="fill:#bcbec0"/><g style="clip-path:url(#clip-path-5)"><path d="M751.06,428.68c3,11.23,14.05,21.4,24.75,22.73s17-6.69,14-17.92-12.9-17-23.6-18.36S748.09,417.45,751.06,428.68Z" style="fill:#0d0d72"/><path d="M794.49,474.27l14.59,23.81,5.58-4.16S798.84,460,790.07,458.74l3.07,17.44Z" style="fill:#f1f2f2"/><path d="M770.92,454.39l-12.75,2.29,4.16,15.39,1.17,8.68L767.06,510s34.59,10.79,43,3c0,0-7.2-30.34-10.5-36.92s-9.36-17.38-9.36-17.38Z" style="fill:#32475c"/><path d="M767.14,481.39l-3.6,15.55-8.2-3.18s-3.92-34.31,2.88-37.09l3.41,4.69C766.51,468.07,768.53,475.4,767.14,481.39Z" style="fill:#f1f2f2"/><path d="M778.13,461.83h0a8.59,8.59,0,0,1-6.75-5.77l-4-15.23c-.75-2.81,1.08-4.8,4-4.43h0a8.59,8.59,0,0,1,6.75,5.77l4,15.23C782.92,460.21,781.1,462.2,778.13,461.83Z" style="fill:#eac3a7"/><path d="M786.52,429.83c4.62,9.78,5.66,23.46-1.47,24s-18.2-4.79-22.82-14.57-.55-16.86,6.58-17.41S781.9,420,786.52,429.83Z" style="fill:#f0d0b4"/><path d="M764.27,438.94c1.24,2.42,1,4.52-.44,4.7s-3.69-1.65-4.93-4.07-1-4.53.44-4.7S763,436.52,764.27,438.94Z" style="fill:#f0d0b4"/><path d="M762,429.94a19.17,19.17,0,0,0,2.41,9.69l-1.33.05s-4.91-7.56-5.2-10.25" style="fill:#0d0d72"/><polygon points="779.22 461.66 775.48 463.78 779.34 469.66 782.81 470.09 783.6 464.57 779.22 461.66" style="fill:#32475c"/><polygon points="782.68 469.28 779.07 469.12 782.22 501.13 790.38 511.89 793.87 501.77 782.68 469.28" style="fill:#32475c"/><polygon points="781.63 455.08 785.94 458.15 784.01 466.14 779.11 461.69 781.63 455.08" style="fill:#fff"/><polygon points="770.65 453.22 765.81 455.12 775.6 465.54 779.38 461.81 770.65 453.22" style="fill:#fff"/></g><polygon points="939.25 484.98 980.66 682.41 859.8 682.92 818.39 485.49 939.25 484.98" style="fill:#231f20;opacity:0.1"/><polygon points="952.28 493.33 993.69 690.77 872.83 691.28 831.43 493.85 952.28 493.33" style="fill:#fff"/><polygon points="958.07 588.74 959.37 594.95 871.38 595.21 870.08 589.01 958.07 588.74" style="fill:#bcbec0"/><polygon points="960.73 601.42 962.03 607.62 874.04 607.88 872.74 601.68 960.73 601.42" style="fill:#e6e7e8"/><polygon points="963.38 614.09 964.69 620.3 876.7 620.56 875.4 614.36 963.38 614.09" style="fill:#e6e7e8"/><polygon points="966.04 626.77 967.34 632.98 879.36 633.24 878.06 627.03 966.04 626.77" style="fill:#e6e7e8"/><polygon points="968.7 639.45 970 645.65 882.02 645.91 880.72 639.71 968.7 639.45" style="fill:#e6e7e8"/><path d="M902.56,511.56c-18.29-3.08-32.7,8.14-32.17,25.06s15.8,33.15,34.09,36.23,32.71-8.14,32.18-25.07S920.87,514.65,902.56,511.56Z" style="fill:#ff6968"/><polygon points="966.96 660.42 969.8 663.66 973.94 664.41 971.95 667.55 973.07 671.46 969 670.16 965.55 671.83 965.02 667.89 961.77 665 965.52 663.87 966.96 660.42" style="fill:#ff8d1a"/><polygon points="948.02 660.28 950.86 663.51 955 664.26 953.01 667.4 954.13 671.31 950.06 670.01 946.62 671.68 946.09 667.74 942.84 664.86 946.58 663.72 948.02 660.28" style="fill:#ff8d1a"/><polygon points="929.09 660.13 931.93 663.37 936.07 664.12 934.08 667.25 935.2 671.16 931.13 669.87 927.68 671.53 927.15 667.59 923.9 664.71 927.65 663.58 929.09 660.13" style="fill:#bcbec0"/><polygon points="910.15 659.98 912.99 663.22 917.13 663.97 915.14 667.11 916.26 671.02 912.19 669.72 908.75 671.38 908.22 667.44 904.97 664.57 908.71 663.43 910.15 659.98" style="fill:#bcbec0"/><polygon points="891.22 659.83 894.06 663.07 898.2 663.82 896.21 666.96 897.33 670.87 893.26 669.57 889.81 671.24 889.28 667.3 886.03 664.42 889.78 663.28 891.22 659.83" style="fill:#bcbec0"/><g style="clip-path:url(#clip-path-6)"><path d="M886.53,534.87c2.92,10,10.71,16.06,20.09,17s14.62-6.4,11.7-16.35-11.76-14.88-21.14-15.8S883.61,524.92,886.53,534.87Z" style="fill:#000446"/><path d="M923.59,571.79,937,592.69l4.75-3.85S927,558.93,919.28,558l3.19,15.5Z" style="fill:#f1f2f2"/><path d="M902.44,554.64,891.37,557l4.08,13.64,1.28,7.72,3.95,26s30.51,8.77,37.66,1.65c0,0-7.17-26.9-10.23-32.7s-8.68-15.29-8.68-15.29Z" style="fill:#e6e7e8"/><path d="M899.92,578.83l-2.7,14L890,590.17s-4.42-30.54,1.43-33.18l3.12,4.1C899,567,901,573.45,899.92,578.83Z" style="fill:#f1f2f2"/><path d="M908.94,561.1h0a7.6,7.6,0,0,1-6.06-5l-4-13.49c-.73-2.49.81-4.32,3.41-4.06h0a7.59,7.59,0,0,1,6.06,5l4,13.49C913.08,559.53,911.55,561.35,908.94,561.1Z" style="fill:#eac3a7"/><path d="M915.34,532.32c4.32,8.62,5.62,20.8-.59,21.47s-16-3.82-20.34-12.44-1-15,5.24-15.71S911,523.7,915.34,532.32Z" style="fill:#f0d0b4"/><path d="M896.18,541c1.15,2.12,1,4-.25,4.2s-3.27-1.38-4.42-3.51-1-4,.25-4.21S895,538.87,896.18,541Z" style="fill:#f0d0b4"/><path d="M893.93,533a17.51,17.51,0,0,0,2.38,8.58l-1.16.08s-4.5-6.62-4.83-9" style="fill:#000446"/><polygon points="909.89 560.92 906.69 562.9 910.23 568.05 913.27 568.35 913.8 563.4 909.89 560.92" style="fill:#e6e7e8"/><polygon points="913.13 567.63 909.98 567.58 913.66 596.08 921.1 605.48 923.84 596.37 913.13 567.63" style="fill:#e6e7e8"/><polygon points="911.81 554.98 915.66 557.62 914.21 564.8 909.79 560.95 911.81 554.98" style="fill:#fff"/><polygon points="902.16 553.6 898 555.41 906.84 564.47 910.04 561.04 902.16 553.6" style="fill:#fff"/><path d="M894,534.4s10.13-7.88,23.92,1.33c0,0-4.11-14.27-16-12.46-14.14,2.15-11.85,8.46-11.85,8.46" style="fill:#000446"/></g><polygon points="668.26 433.38 707.38 619.91 593.2 620.39 554.08 433.86 668.26 433.38" style="fill:#231f20;opacity:0.1"/><polygon points="679.58 440.27 718.71 626.8 604.53 627.28 565.4 440.75 679.58 440.27" style="fill:#fff"/><polygon points="685.05 530.41 686.28 536.27 603.15 536.52 601.92 530.66 685.05 530.41" style="fill:#bcbec0"/><polygon points="687.56 542.39 688.79 548.25 605.66 548.49 604.44 542.63 687.56 542.39" style="fill:#e6e7e8"/><polygon points="690.07 554.36 691.3 560.22 608.18 560.47 606.95 554.61 690.07 554.36" style="fill:#e6e7e8"/><polygon points="692.59 566.33 693.82 572.2 610.69 572.45 609.46 566.59 692.59 566.33" style="fill:#e6e7e8"/><polygon points="695.1 578.32 696.33 584.17 613.2 584.42 611.97 578.56 695.1 578.32" style="fill:#e6e7e8"/><path d="M632.61,457.49c-17.28-2.91-30.89,7.69-30.39,23.68s14.92,31.31,32.21,34.22,30.89-7.69,30.39-23.68S649.91,460.41,632.61,457.49Z" style="fill:#00a79d"/><polygon points="693.45 598.13 696.13 601.19 700.04 601.9 698.17 604.87 699.23 608.56 695.38 607.33 692.12 608.91 691.62 605.19 688.55 602.46 692.09 601.39 693.45 598.13" style="fill:#ff8d1a"/><polygon points="675.56 597.99 678.25 601.05 682.15 601.76 680.28 604.73 681.34 608.42 677.49 607.2 674.23 608.77 673.74 605.05 670.66 602.32 674.2 601.25 675.56 597.99" style="fill:#00a79d"/><polygon points="657.67 597.85 660.36 600.91 664.27 601.62 662.39 604.59 663.45 608.28 659.6 607.06 656.34 608.63 655.85 604.91 652.78 602.19 656.31 601.12 657.67 597.85" style="fill:#00a79d"/><polygon points="639.78 597.72 642.47 600.77 646.38 601.49 644.5 604.45 645.56 608.14 641.71 606.92 638.45 608.49 637.95 604.76 634.89 602.05 638.42 600.97 639.78 597.72" style="fill:#00a79d"/><polygon points="621.89 597.58 624.58 600.64 628.49 601.34 626.61 604.31 627.67 608 623.82 606.78 620.56 608.35 620.06 604.63 616.99 601.9 620.53 600.83 621.89 597.58" style="fill:#bcbec0"/><g style="clip-path:url(#clip-path-7)"><path d="M614,477.16c2.69,10.16,12.71,19.36,22.38,20.56s15.35-6.05,12.66-16.2-11.66-15.41-21.34-16.61S611.27,467,614,477.16Z" style="fill:#000446"/><path d="M653.23,518.39l13.2,21.53,5-3.76s-14.3-30.69-22.24-31.81L652,520.12Z" style="fill:#f1f2f2"/><path d="M631.92,500.42l-11.53,2.07,3.76,13.91,1.06,7.85,3.22,26.47s31.28,9.75,38.91,2.75c0,0-6.51-27.43-9.48-33.38s-8.47-15.72-8.47-15.72Z" style="fill:#10abd9"/><path d="M628.51,524.83l-3.27,14.06L617.83,536s-3.54-31,2.6-33.53l3.09,4.24C627.94,512.78,629.76,519.42,628.51,524.83Z" style="fill:#f1f2f2"/><path d="M638.44,507.14h0a7.77,7.77,0,0,1-6.11-5.22l-3.64-13.76c-.67-2.54,1-4.35,3.66-4h0a7.77,7.77,0,0,1,6.11,5.22l3.64,13.77C642.77,505.68,641.12,507.48,638.44,507.14Z" style="fill:#eac3a7"/><path d="M646,478.21c4.17,8.85,5.11,21.21-1.33,21.71s-16.46-4.33-20.64-13.18-.49-15.25,6-15.74S641.85,469.36,646,478.21Z" style="fill:#f0d0b4"/><path d="M625.91,486.44c1.12,2.19.93,4.1-.4,4.26s-3.34-1.49-4.46-3.68-.94-4.1.4-4.26S624.79,484.25,625.91,486.44Z" style="fill:#f0d0b4"/><path d="M623.85,478.31a17.27,17.27,0,0,0,2.17,8.75l-1.2.05s-4.44-6.83-4.7-9.27" style="fill:#000446"/><polygon points="639.43 506.99 636.04 508.9 639.54 514.22 642.67 514.61 643.38 509.62 639.43 506.99" style="fill:#e6e7e8"/><polygon points="642.55 513.88 639.29 513.74 642.14 542.68 649.52 552.41 652.67 543.26 642.55 513.88" style="fill:#e6e7e8"/><polygon points="641.61 501.04 645.5 503.81 643.76 511.04 639.32 507.02 641.61 501.04" style="fill:#fff"/><polygon points="631.67 499.36 627.3 501.07 636.15 510.49 639.57 507.12 631.67 499.36" style="fill:#fff"/></g><polygon points="796.22 536.71 827.44 685.6 736.3 685.99 705.08 537.1 796.22 536.71" style="fill:#231f20;opacity:0.1"/><polygon points="805.26 542.22 836.48 691.11 745.34 691.49 714.12 542.6 805.26 542.22" style="fill:#fff"/><polygon points="809.62 614.17 810.6 618.84 744.25 619.04 743.27 614.37 809.62 614.17" style="fill:#bcbec0"/><polygon points="811.62 623.73 812.61 628.4 746.26 628.6 745.27 623.93 811.62 623.73" style="fill:#e6e7e8"/><polygon points="813.63 633.28 814.61 637.96 748.26 638.16 747.28 633.48 813.63 633.28" style="fill:#e6e7e8"/><polygon points="815.63 642.84 816.62 647.52 750.27 647.72 749.28 643.04 815.63 642.84" style="fill:#e6e7e8"/><polygon points="817.64 652.4 818.62 657.08 752.27 657.28 751.29 652.6 817.64 652.4" style="fill:#e6e7e8"/><path d="M767.76,556c-13.79-2.32-24.66,6.14-24.26,18.9s11.91,25,25.71,27.32,24.66-6.14,24.27-18.9S781.56,558.29,767.76,556Z" style="fill:#f15a29"/><polygon points="816.32 668.22 818.47 670.66 821.59 671.23 820.09 673.6 820.93 676.54 817.86 675.56 815.26 676.82 814.87 673.85 812.41 671.68 815.24 670.83 816.32 668.22" style="fill:#ff8d1a"/><polygon points="802.04 668.11 804.19 670.55 807.31 671.12 805.81 673.48 806.65 676.43 803.58 675.46 800.98 676.71 800.59 673.74 798.13 671.56 800.96 670.71 802.04 668.11" style="fill:#ff8d1a"/><polygon points="787.76 668 789.91 670.44 793.03 671.01 791.53 673.37 792.37 676.32 789.31 675.34 786.7 676.6 786.31 673.63 783.86 671.46 786.68 670.6 787.76 668" style="fill:#bcbec0"/><polygon points="773.49 667.89 775.63 670.33 778.75 670.9 777.25 673.26 778.1 676.21 775.03 675.23 772.43 676.49 772.03 673.51 769.58 671.35 772.4 670.49 773.49 667.89" style="fill:#bcbec0"/><polygon points="759.21 667.78 761.35 670.22 764.47 670.78 762.97 673.15 763.82 676.1 760.75 675.12 758.14 676.38 757.75 673.4 755.29 671.23 758.12 670.38 759.21 667.78" style="fill:#bcbec0"/><g style="clip-path:url(#clip-path-8)"><path d="M753.69,569.4c2,7.39,9.4,14,16.41,14.84s11.06-4.56,9-12-8.6-11.17-15.62-12S751.65,562,753.69,569.4Z" style="fill:#000446"/><path d="M782.54,599.2l9.76,15.63,3.62-2.8s-10.65-22.3-16.41-23.06l2.16,11.51Z" style="fill:#f1f2f2"/><path d="M766.93,586.24l-8.33,1.61L761.46,598l.85,5.73L764.89,623s22.75,6.87,28.21,1.68c0,0-5-20-7.2-24.32S779.62,589,779.62,589Z" style="fill:#32475c"/><path d="M764.69,604.11l-2.22,10.31-5.4-2s-2.87-22.64,1.56-24.53l2.28,3.08C764.16,595.31,765.55,600.15,764.69,604.11Z" style="fill:#f1f2f2"/><path d="M771.71,591.11h0a5.68,5.68,0,0,1-4.47-3.77l-2.77-10a2.22,2.22,0,0,1,2.61-3h0a5.65,5.65,0,0,1,4.48,3.76l2.77,10C774.84,590,773.67,591.33,771.71,591.11Z" style="fill:#eac3a7"/><path d="M776.93,569.89c3.11,6.43,3.91,15.46-.75,15.88s-12-3-15.08-9.46-.51-11.14,4.16-11.55S773.82,563.46,776.93,569.89Z" style="fill:#f0d0b4"/><path d="M762.44,576.08c.83,1.59.72,3-.25,3.11s-2.43-1.06-3.26-2.65-.73-3,.24-3.11S761.61,574.49,762.44,576.08Z" style="fill:#f0d0b4"/><path d="M760.87,570.15a12.7,12.7,0,0,0,1.66,6.38l-.87.05s-3.29-5-3.5-6.73" style="fill:#000446"/><polygon points="772.43 590.99 770 592.41 772.58 596.27 774.85 596.53 775.32 592.87 772.43 590.99" style="fill:#32475c"/><polygon points="774.76 596 772.4 595.91 774.74 617.04 780.18 624.09 782.37 617.38 774.76 596" style="fill:#32475c"/><polygon points="773.95 586.62 776.11 587.62 776.61 594.75 772.36 591.01 773.95 586.62" style="fill:#fff"/><polygon points="766.74 585.47 765.18 586.11 769.4 594.35 772.54 591.08 766.74 585.47" style="fill:#fff"/><path d="M758.22,569.35s11.93,7.37,23,3.69c0,0-3.35-10.83-14.29-10s-9,6.11-9,6.11" style="fill:#000446"/><path d="M763.89,568.59s7.09,6.72,16.54,7.6c0,0,.37-6.38-8.07-8.77s-8.6,1-8.6,1" style="fill:#000446"/><path d="M761.51,568.33s6.75,7,16.35,8.47c0,0,.86-6.18-7.59-9s-8.88.4-8.88.4" style="fill:#000446"/><path d="M757.44,566.67a33.05,33.05,0,0,0,15.89,9.82s1.68-5.78-6.73-9.42-9.25-.58-9.25-.58" style="fill:#000446"/><polygon points="777.7 610.33 765.18 586.11 760.22 589.43 766.76 596.28 765.5 599.58 777.7 610.33" style="fill:#1b2b38"/><polygon points="777.7 610.33 776.11 587.62 781.31 592.79 778.73 596.57 782.27 600.95 777.7 610.33" style="fill:#1b2b38"/></g><g style="clip-path:url(#clip-path-9)"><path d="M951.9,807.6a7.83,7.83,0,0,1-4.06-2.1v8.1h31.73C970.25,812,961.16,809.51,951.9,807.6Z" style="fill:#070742"/></g><g style="clip-path:url(#clip-path-10)"><rect x="885.15" y="487.84" width="234.05" height="114.51" style="fill:url(#linear-gradient-13)"/></g><g style="clip-path:url(#clip-path-11)"><rect x="683.64" y="349.1" width="211.29" height="211.26" style="fill:url(#linear-gradient-14)"/></g><path d="M994.72,534l-5.1,1.65-11.42-2c-1.28-.58-9.59-2.52-7.38.22,1.55,1.93,6.33,5.1,6.21,5.31-1.52,2.79-17,7-17.15,7.21-2.14,3.52,7.83,1.45,9.54,1.17.45-.07-6.55,3-6.23,3.25a3.47,3.47,0,0,0,3.25,1c2.3-.43,6.12-1.8,6.57-1.47s-6.33,3.23-5.86,3.52a3.07,3.07,0,0,0,2.52.39c2.37-.51,5.82-2,6.4-1.77s-4.39,2-3.83,2.19.56.93,1,.87c12-1.58,11.76-7.71,25.49-9.15,7.63-.8-1.38-11.2-4-12.38" style="fill:#f4b1b1;fill-rule:evenodd"/><path d="M467.15,26.23c-15.78-1.87-24.19,7.89-27.7,15.42s-4.35,16-4.8,24.3-.58,16.7-2.77,24.72c-1.14,4.17-2.84,8.22-3.37,12.51s.31,9.06,3.51,12" style="fill:#000446"/><path d="M482.56,34.5c4.17,8.48,1.11,18.77,3.28,28,.9,3.81,2.68,7.34,4.05,11,2.75,7.36,3.84,15.21,4.91,23,.54,3.91,1,8.12-.79,11.61-2,3.79-6.43,5.87-10.71,5.83a15.38,15.38,0,0,1-13.61-8.9c-1.79-4-1.75-8.51-1.69-12.87.27-18.89.56-37.87,3.87-56.46" style="fill:#000446"/><path d="M555,77.28l-9.83-3.78A2.36,2.36,0,0,0,542,75.42c-.28,2.35-1.82,8.69-3.46,6.47l-.12-.14c-2.3-3.31-5.17-5.09-6.35-5a1.39,1.39,0,0,0-.81,2.37,1.29,1.29,0,0,0,.44.39,3,3,0,0,1,.24.18,19.2,19.2,0,0,1,2.74,3.13,10.71,10.71,0,0,1,1.68,3.34c.41,1.33.71,2.5.94,3.49l-.59,6.55L524.59,129,503.38,106.9S492,132,491.77,132.8c-.18.57,10.64,11.82,17.74,19.13a20.08,20.08,0,0,0,33.93-9.41l9.21-46.24h-.24l1-3.36,3.09-12.83A2.39,2.39,0,0,0,555,77.28Z" style="fill:#f4b1b1"/><path d="M409.5,139.33l4.76-23.06c3.86-21.67,35.16-23.85,35.16-23.85L473.25,92s17.67-2.4,28.59,9.88c11.31,12.7,17.24,19.06,17.24,19.06l-16.46,26.28L491.38,135.6a25.64,25.64,0,0,1,3.38,12c0,7.05-7.35,10.32-7.35,10.32l-1.85,17.91,9.15,17.48-74.89,16.59c1.5-12.57.57-22.18,6.5-31.56l5.8-35Z" style="fill:url(#linear-gradient-15)"/><path d="M523.94,375.31l-5.28.05-17.16.13-9.69.08-1.19-128L427.09,246l37-39.27c1.5.51,59.52,19.49,63.55,27S523.94,375.31,523.94,375.31Z" style="fill:url(#linear-gradient-16)"/><path d="M426.77,246a5.41,5.41,0,0,0,.93-.12l2.65-.47c2.3-.43,5.62-1.09,9.72-2,8.18-1.74,19.44-4.37,31.72-7.9,6.13-1.78,11.93-3.64,17.16-5.45s9.89-3.6,13.73-5.25c1.94-.79,3.67-1.57,5.18-2.26s2.82-1.28,3.86-1.81l2.4-1.22a3.72,3.72,0,0,0,.82-.47,5.55,5.55,0,0,0-.88.34l-2.46,1.09c-1.06.49-2.37,1.06-3.91,1.69s-3.26,1.4-5.2,2.15c-3.87,1.59-8.55,3.27-13.76,5.1s-11,3.6-17.15,5.38c-12.25,3.52-23.48,6.23-31.63,8.09l-9.66,2.19-2.62.61A3.71,3.71,0,0,0,426.77,246Z" style="fill:url(#linear-gradient-17)"/><path d="M528.5,263.52a9.56,9.56,0,0,0,.29-1.87c.15-1.36.32-3.07.54-5.12.2-2.22.44-4.79.69-7.61a34.5,34.5,0,0,0,0-9.42,14.58,14.58,0,0,0-4.74-8.13,24.71,24.71,0,0,0-6.5-4.16c-2-.91-3.66-1.49-4.81-1.89a8.35,8.35,0,0,0-1.83-.52c0,.13,2.51,1,6.42,2.88a25.77,25.77,0,0,1,6.25,4.19,14.17,14.17,0,0,1,4.48,7.77,35.19,35.19,0,0,1,.05,9.22c-.2,2.83-.38,5.4-.54,7.62-.12,2.06-.22,3.78-.29,5.15A8.87,8.87,0,0,0,528.5,263.52Z" style="fill:#455a64"/><path d="M419.4,209.87S525.23,179,534.78,183.52s49.15,115.24,49.15,115.24l-30.36,14.75-38.63-91.95s-75.18,26.8-87.24,24.32S419.4,209.87,419.4,209.87Z" style="fill:url(#linear-gradient-18)"/><path d="M532.35,40.55s8.89-1.7,21.67-13.31S573.09-.08,574.61,0s8.26-2.78,20.12,25.08,6.7,34.11,4.19,34-19.46-5.37-30.17-4.46-24.58,6.08-24.58,6.08Z" style="fill:#102b6e"/><path d="M513.14,55,516,60.83l1.28,2.61A7.49,7.49,0,0,0,526.94,67L546.07,61l-10.32-25.5L516.53,45A7.5,7.5,0,0,0,513.14,55Z" style="fill:#000446"/><path d="M523.81,64.5l5.7,12,3-.76,19.26,16.6,5.82-10.63s-11.51-5.35-13.55-9.57.48-5.08.48-5.08l-5.3-6.39Z" style="fill:#000446"/><path d="M593.7,25.59c6.3,15.09,8.73,28.45,5.41,29.83S588,45.7,581.69,30.61,573,2.16,576.27.78,587.39,10.5,593.7,25.59Z" style="fill:#000446"/><polygon points="511.28 63.25 516.46 61.78 513.46 55.65 509.54 57.94 511.28 63.25" style="fill:#455a64"/><polygon points="541.08 62.87 527.03 71.28 525.4 67.86 541.08 62.87" style="fill:#455a64"/><polygon points="513.46 55.65 516.46 61.78 515.4 62.09 512.99 55.92 513.46 55.65" style="fill:#455a64"/><g style="opacity:0.2"><path d="M545.3,59.06l3.51-1.18"/></g><path d="M517,57.15c.07.16,2.66-.76,5.78-2.07s5.61-2.5,5.54-2.67-2.66.76-5.79,2.06S516.89,57,517,57.15Z" style="fill:#455a64"/><path d="M515.48,53.5c.08.17,2.42-.74,5.24-2s5-2.47,5-2.64-2.42.75-5.24,2S515.4,53.34,515.48,53.5Z" style="fill:#455a64"/><path d="M518.84,61a4.4,4.4,0,0,0,1.62-.31l1.72-.51c.64-.22,1.3-.53,2-.83a22.13,22.13,0,0,0,5-2.59c-.08-.18-2.4.77-5.22,2-.71.3-1.37.63-2,.87s-1.18.44-1.64.64C519.39,60.61,518.82,60.89,518.84,61Z" style="fill:#455a64"/><path d="M580.07,21.89s7.82-4.55,11.73,5.95-4.23,12-4.23,12A69.19,69.19,0,0,1,580.07,21.89Z" style="fill:#102b6e"/><path d="M572.25,9.29a13.06,13.06,0,0,0,.25,2c.2,1.28.49,3.13.92,5.4.3,1.12.62,2.35,1,3.66q.25,1,.54,2c.09.35.19.71.28,1.07s.25.71.37,1.07q.76,2.18,1.61,4.53l.42,1.19c.14.4.34.78.51,1.17.35.79.71,1.58,1.08,2.39l1.07,2.38c.19.39.34.79.55,1.16s.41.74.61,1.11c.81,1.45,1.59,2.86,2.33,4.2.19.33.36.67.56,1l.61.92,1.18,1.75c.76,1.13,1.47,2.18,2.11,3.15,1.42,1.82,2.61,3.26,3.43,4.26a11.51,11.51,0,0,0,1.34,1.5,12.27,12.27,0,0,0-1.13-1.66l-3.27-4.39-2-3.16-1.13-1.76-.6-.92c-.19-.32-.36-.66-.54-1L582,38.15c-.19-.36-.39-.73-.6-1.1s-.35-.77-.54-1.15l-1.06-2.37-1.07-2.37c-.17-.39-.37-.77-.51-1.17l-.43-1.17c-.56-1.56-1.11-3.06-1.63-4.49-.13-.36-.27-.7-.38-1.06s-.2-.71-.29-1.05c-.2-.7-.39-1.37-.57-2-.37-1.3-.72-2.52-1-3.63-.47-2.22-.86-4-1.13-5.33A11.25,11.25,0,0,0,572.25,9.29Z" style="fill:#000446"/><path d="M545.43,74.17a13.05,13.05,0,0,0,.22,5.28c.14.6.53,1.31,1.13,1.22a1.21,1.21,0,0,0,.74-.61,6.45,6.45,0,0,0,1-3.09,10.28,10.28,0,0,0,.3,4.74c.22.71.65,1.5,1.39,1.55s1.38-.84,1.49-1.65a9.34,9.34,0,0,1,.26-2.43,22.09,22.09,0,0,0-.08,4.74,3.78,3.78,0,0,0,.33,1.41,1.47,1.47,0,0,0,1.13.82,1.49,1.49,0,0,0,1.27-.8,4.11,4.11,0,0,0,.39-1.52c.22-1.74.35-3.49.4-5.25" style="fill:#f4b1b1"/><path d="M472.2,91.81c.15-5,.35-9.6.35-9.6S482.61,80.92,483,70.66s-.64-33.92-.64-33.92l-18.53-8.86L447.73,46.33l-.18,45.05a12.32,12.32,0,0,0,12.26,12.37h0A12.32,12.32,0,0,0,472.2,91.81Z" style="fill:#f4b1b1"/><path d="M472.55,82.21a24.52,24.52,0,0,1-13.32-4.34s3.14,7.47,13.15,6.86Z" style="fill:#eaa0a0"/><path d="M483.24,35.59a12.34,12.34,0,0,1-12.19,10.82l2.79-6.14c-2.48,2.89-5,5.85-8.43,7.57s-7.85,1.92-10.74-.54c-.94,2.51-.92,5.29-1.78,7.84s-2.87,13-5.53,12.62c-2.43-.36-4.18-10.92-4.8-13.31-1.73-6.58.41-13.84,4.78-19.06a26.15,26.15,0,0,1,21.5-9.1,18.2,18.2,0,0,1,10,3.5,13.92,13.92,0,0,1,4.92,7.84" style="fill:#000446"/><path d="M483.59,47.88a8.54,8.54,0,0,1-2.87-4.6,25.58,25.58,0,0,1-.68-5.46c0-.53,0-1.22.57-1.36s.91.38,1.15.83a17.72,17.72,0,0,1,1.84,11.12l-.33-.31" style="fill:#000446"/><path d="M443.29,42.42c-5.88,22.12-7.77,45.35-4.77,64.93.31,2-.27,4.15.37,6.1a5.44,5.44,0,0,0,4.31,3.9c1.92.16,4-1,5.66,0,1.25.76,1.56,2.44,2.51,3.56a4.73,4.73,0,0,0,4.95,1.21,8.45,8.45,0,0,0,4.17-3.3c3.66-5.1,3.49-12.08,1.75-18.12s-4.85-11.6-6.72-17.6c-3.48-11.2-2.47-23.23-1.42-34.91.31-3.42.61-6.83.92-10.25" style="fill:#000446"/><path d="M500.09,136.07c4.8-4.89,4.38-5.34,3.72-5.82-1.75-1.28-8.75,8.28-8.41,5.32s9.89-10.67,8-11.93c-2.46-1.65-9.61,8.5-10.28,9.31s-1.84-.15-1.2-.85c.93-1,10.34-11.83,7.94-13.48-1.33-.91-2.69,1.69-2.69,1.69s-8.08,10.79-9.19,10,3.41-7.33,5.09-9.41,1.38-3.71-.13-3.71c-1,0-6.32,6.24-7.93,8.34s-5.94,7.94-6.1,3.27a1.64,1.64,0,0,0,0-.22c0-4.6-1.57-8.14-2.72-8.85a1.58,1.58,0,0,0-2.29,1.7,1.67,1.67,0,0,0,.15.65c.05.1.08.23.12.33a22.7,22.7,0,0,1,.55,4.72,12.57,12.57,0,0,1-.56,4.18c-.49,1.54-1,2.85-1.4,4l-.7.85-39.13,22.12v-18.6s-21.58-.94-22.38-.32c-.54.42-2,18.11,0,29.6a22.93,22.93,0,0,0,38,13.12L481,152.5l.13.09,4.63-3.8.9-1.43,1.07-1A144.66,144.66,0,0,0,500.09,136.07Z" style="fill:#f4b1b1"/><path d="M556.37,312.15c3.4,5.1,1.06,11.23,2.83,14.85,4.06,8.32,6.65.6,19.58,5.75,2.41-1.77,14.08,3.13,21.66-1.63,1.74-1.09,1.8-7.27-3.55-7.76-2.07.21-2.93,1.78-4.89,1.6-4.11-.41-18.44-13.93-21.64-19.61Z" style="fill:#f0b186;fill-rule:evenodd"/><path d="M557.79,319.39c6.4-3.52,22.24,6.89,31.29,9.86,4.39,1.44,6.83-5.06,4.34-4.51,1-.62,4.27-3.61,7.2-5.08,4.12-2.07,5.49,2.57,4.23,6.1-2.81,7.88-6.2,13.63-13.1,14.72a30.2,30.2,0,0,1-4.6.17,18.61,18.61,0,0,1-3.27-.19c-3-.78-6-3.49-9.39-5.1-1.14-.54-1.68-.44-1.83,0,0,1.3,9.94,13.76,12.11,16.12.37.86-1.73,3.26-2.64,3.06L560.93,335a10.15,10.15,0,0,1-3.62-6.32C556.79,325,558,321,557.79,319.39Z" style="fill:#010528;fill-rule:evenodd"/><path d="M534.21,407.46c-8.88,1.16-17.43-8.17-20.37-7.57-9.6-10.07-15.17-4.13-15.39-13.39-.06-2.73,2-6.79,3.05-11l17.16-.13c2.59,8.85,7.76,21.4,10.45,23,1.7,1,3.14-.09,5.12.59C538.88,401.6,536.24,407.19,534.21,407.46Z" style="fill:#f0b186;fill-rule:evenodd"/><path d="M500.34,379c7.29-.53,17.34,15.54,24.33,22,3.39,3.15,8.31-1.75,5.82-2.28,1.19-.15,5.39-1.5,8.67-1.61,4.6-.16,3.91,4.62,1.29,7.31-5.84,6-11.32,9.79-18.05,7.9a28.68,28.68,0,0,1-4.24-1.76,18.63,18.63,0,0,1-2.9-1.53c-2.45-2-4-5.67-6.41-8.56-.81-1-1.34-1.1-1.67-.73-.54,1.19,3.29,16.65,4.28,19.71,0,.94-2.94,2.24-3.68,1.68l-11.1-26.64a10.11,10.11,0,0,1-.65-7.25C497.1,383.66,499.86,380.51,500.34,379Z" style="fill:#010528;fill-rule:evenodd"/><path d="M421.8,63.25c-10.57,8.85-17.11,21.82-12.3,30.85,4.36,8.19,5.61,11.88,2.34,17.06-2.71,4.29-9.07,8.58-1.5,15.5,3.9,3.56,13.43,13.12,32.87,8.17,19-4.83,38.85-21.2,22.88-39.1-16.81-18.84-7-23,2.66-37.82a45.27,45.27,0,0,0,6.84-19c2.68-23.6-35.71-21.79-45.13-6.62C424.67,41.57,430.21,56.22,421.8,63.25Z" style="fill:#000446;fill-rule:evenodd"/><path d="M762.68,435.49s2.3-2.52,2.52-4.16a18.73,18.73,0,0,0,0-3.72s23,8.75,22.42-6.34-16-5-27.88-6.27-.4,19.87-.4,19.87Z" style="fill:#0d0d72"/><path d="M624.62,483.85s1.69-2,1.69-3.05v-3.53s4.17,2.31,7.21,0a5.33,5.33,0,0,0,6.21-1.22s4.63,1.34,6.83-2.69-1.95-6-1.95-6a6.43,6.43,0,0,0-3.66-6.7c-4.5-2.33-6.1,0-6.1,0s-4-3.91-7.32-2.32-2.91,3.05-2.91,3.05-3.43-2.56-7.7,1.34-2.67,6.29-2.67,6.29-5,4,.17,9.63c0,0-1.65,6.23,3.71,7.14C618.13,485.81,618.9,480.31,624.62,483.85Z" style="fill:#000446"/><path d="M1126.39,467.59c14.5,6.77-2.45,19,.13,37.85,2.09,15.3-18.69,68.51-32.44,70.36-9.44,1.27-16.32-1.66-12.88-11,4.35-11.74,16.37-46.46,18.12-51,.76-5.28,11.19-57.57,16.78-60.36,9-4.61,4.05,11.22,10.29,14.14" style="fill:#000446;fill-rule:evenodd"/><path d="M1134.14,446.48h5.91l.77,8.74,5,80.4L1125.74,472l6.7-6.7-5-5,5-13.7c.56,0,1.13-.06,1.7-.06" style="fill:#464878;fill-rule:evenodd"/><path d="M1137.67,446.48c-2.37,17.73,6.13,69.76,8.18,89.14.62-1.53,17.22-75.48,18.84-89.14h-16.12c-3.65,0-7.79-.44-10.9,0" style="fill:#fff;fill-rule:evenodd"/><path d="M1155.18,436.61c-2.9,7.76-5.65,10.64-12.18,11.53v-5.28a22.93,22.93,0,0,0,12.18-6.25" style="fill:#ed8082;fill-rule:evenodd"/><path d="M1141.48,501.61c1.7,13.2,3.59,26.63,4.37,34,2.93-11.45,5.61-24.14,8.09-35.64l-3-31,2.29-4.8-4.3-4.93-4.26,5,2.38,4.62Z" style="fill:#d84c00;fill-rule:evenodd"/><path d="M1112.11,788c3.35-1,7.32-6.32,11.36-10.06a23.46,23.46,0,0,0,8-18.09l25-.16s-.39,9.92.1,18.36,6.48,20.61-1.8,23-21.2-1.08-32.39.06c-9.91,1-25.25,2.64-28.36-1.95-.4-.6-.31-3.56-.27-4.33C1094,788.25,1111.17,788.3,1112.11,788Z" style="fill:#f4b1b1"/><path d="M1112.1,788c3.15-.91,15.62-15,15.62-15,4.25,2.64,7.88,12.77,14.22,5.69,8-8.89,14.51-2,14.58-.6.5,8.44,6.48,20.62-1.79,23s-21.2-1.08-32.39.07c-9.91,1-25.25,2.63-28.35-2-.42-.61-.31-3.57-.29-4.34C1094,788.25,1111.17,788.3,1112.1,788Z" style="fill:#010528"/><path d="M1156.43,759.72s-.1,2.55-.13,6.17c0-2.27,0-4.4,0-6.17Z" style="fill:#001223;opacity:0.4"/><path d="M1093.85,794.1a1.12,1.12,0,0,0,.13.37c3.11,4.59,18.45,2.95,28.36,1.95,11.19-1.14,24.11,2.38,32.39-.06a5.53,5.53,0,0,0,4.17-4.65c.55,4.47,0,8.18-4.17,9.41-8.28,2.44-21.2-1.08-32.39.06-9.91,1-25.25,2.64-28.36-1.95-.4-.6-.31-3.56-.27-4.33A3.53,3.53,0,0,1,1093.85,794.1Z" style="fill:#fff"/><path d="M1157.29,657c-3,13.2,2.9,20.78,2.6,51.29-.4,41.18-.81,62.21-.81,62.21s-19.24,6.62-31.36-3.12c0,0-.1-57.37-2.21-88.54,0,0-6.69-16.75-7.18-27.14s-7.36-75-7.36-82.13l47.18-5.63S1161.65,638,1157.29,657Z" style="fill:#030b28"/><path d="M1075.64,788c3.36-1,9.47-4.68,13.52-8.43,3.76-3.48,5.8-10.61,5.8-19.72l25-.16a121.1,121.1,0,0,0-.8,18.57c.49,8.44,7.37,20.4-.91,22.83s-21.19-1.08-32.39.06c-9.9,1-25.24,2.64-28.35-1.95-.41-.6-.32-3.56-.28-4.33C1057.57,788.25,1074.71,788.3,1075.64,788Z" style="fill:#f4b1b1"/><path d="M1075.64,788c3.14-.91,6.8-5.63,10.58-9.31a2.74,2.74,0,0,0,1.57-1.5v0c1.18-4.45,3.46-4.22,3.46-4.22,4.1,9.08,14.41,9.21,20.68,2.07,3.29-3.74,6-2.91,8-1.29,0,1.44.09,2.9.17,4.31.49,8.44,6.48,20.62-1.79,23s-21.21-1.08-32.4.07c-9.91,1-25.24,2.63-28.35-2-.41-.61-.31-3.57-.28-4.34C1057.56,788.25,1074.7,788.3,1075.64,788Z" style="fill:#010528"/><path d="M1120,759.72s-.1,2.55-.14,6.17c0-2.27,0-4.4,0-6.17Z" style="fill:#001223;opacity:0.4"/><path d="M1057.38,794.1a1.1,1.1,0,0,0,.14.37c3.11,4.59,18.45,2.95,28.35,1.95,11.2-1.14,24.12,2.38,32.39-.06a5.51,5.51,0,0,0,4.17-4.65c.56,4.47,0,8.18-4.17,9.41-8.27,2.44-21.19-1.08-32.39.06-9.9,1-25.24,2.64-28.35-1.95-.41-.6-.32-3.56-.28-4.33A4.18,4.18,0,0,1,1057.38,794.1Z" style="fill:#fff"/><path d="M1137.16,560.69s2,25.56-6.15,39.87-18.11,58.89-14.63,77.42c4.95,26.38,5.85,59.9,5.85,88-7.47,6.81-29.54,0-29.54,0s-.33-36-12.66-91c-1.51-6.7-.24-12.45-1.07-20.06-7.57-69.47,7.23-106.76,7.23-106.76Z" style="fill:#061235"/><path d="M993,532.38c12.76-8,50.13-38.68,59.27-41.43,23-6.93,21.24,13.68,18,20.1-12.91,25.16-69.47,36.46-69.47,36.46C990.55,541.64,993,532.38,993,532.38Z" style="fill:#fff"/><path d="M1096,356.82c10.63,6.84,28.57-3.79,39.39,8.23s1.19,26.07,2.16,37.33,5.74,11.79,5.74,11.79l-26.51,10.17s-.33-4.43-4.12-3.78a18.39,18.39,0,0,1-6.6,0c-11.14-13.64-8.44-21.54-8.22-24.78s-2.81-5.09-3.25-11.37,3.25-15.47,3.25-15.47A9.49,9.49,0,0,1,1096,356.82Z" style="fill:#f4b1b1"/><path d="M1096,356.82c10.63,6.84,28.57-3.79,39.39,8.23,9.32,10.34,3.47,22.21,2.29,32.49a2.44,2.44,0,0,0-1.64.37c-6.32,3.9-16,4.84-17.12,12.74-.34,2.41,2.8,8.58,3.13,11.67l-5.27,2s-.33-4.43-4.12-3.78a18.39,18.39,0,0,1-6.6,0c-11.14-13.64-8.44-21.54-8.22-24.78s-2.81-5.09-3.25-11.37,3.25-15.47,3.25-15.47A9.49,9.49,0,0,1,1096,356.82Z" style="fill:#f4b1b1"/><path d="M1137.59,402.37a31.2,31.2,0,0,0,.47,3.39c-.49-.08-15,1.72-19-3.84-2-2.81-3.59-5.76-5.81-8.51-.36-.44-.71-.85-1-1.22v0a4.4,4.4,0,0,0-.74-.77c-.89-.72-2.41-1.24-3.72,1.89-2,4.76,3.57,14.07,3.57,16s1.44,11.21,1.44,11.21a44,44,0,0,1-6.6,0c-1.58-.31-6.06-9.25-6.06-9.25s4.08-3.54,5.08-5.32-.74-13.23-.74-13.23a.54.54,0,0,1-1.05-.16c-.3-4.14-2.35-7.61-3.53-11.51-.72-2.38-.77-2.86-3-4.41-2-1.35-4.17-2.39-5.52-4.45a11,11,0,0,1-1.48-5.88,11.7,11.7,0,0,1,1.53-6.64c2-3.06,6.08-4.25,9.71-3.76,3.26.43,5.72,2.7,8.76,3.34,2.54.53,5.61-.34,8.24-.36,6.46-.06,12.86,1.1,17.39,6.12C1146.25,377.05,1136.62,391.12,1137.59,402.37Z" style="fill:#000446"/><path d="M1112.15,392.17c-.26-.28-.5-.54-.74-.77A4.4,4.4,0,0,1,1112.15,392.17Z" style="fill:url(#Áåçûìÿííûé_ãðàäèåíò_265)"/><path d="M1120.6,421.12c11.75-.78,18.23-9.82,20.94-9.82s10.92,5.6,15.54,15.51c0,0-41,3.93-55.59,13.63C1107.46,434.11,1109.73,421.85,1120.6,421.12Z" style="fill:#fff"/><path d="M1123.55,427.78c8.44-3.3,21.76-7.45,27.68-6.25s16.3,14.49,18.28,26.73c3.68,22.72-9,57-11.14,74.55s14.5,26.41,2.38,58.87c0,0-32,3.89-60,0l-1.51-24.89s-6.06,22.07-7.58,24.46c0,0-9.74,0-13.85-2.17s5.58-112,20.13-132.23C1103.89,438.65,1105.89,434.67,1123.55,427.78Z" style="fill:url(#linear-gradient-19)"/><path d="M1070.31,476c7.83-7.42,19.77-19.84,25.93-28.14,9.7-13.06,40.81-22.21,38.73,7.25-1.19,17-30.24,38.16-50.9,51.85-29.25,19.37-35.7-2.74-35.06-8.39C1050.25,487.58,1065.18,480.84,1070.31,476Z" style="fill:#fff"/><path d="M339.13,588.07s5.61-25.5,0-25.5-5,1.82-5,1.82-5.21-10.92-7.84-5.85l-2.63,5.06s-5.26-4.22-7.46-1.94-.48,5.81-.48,5.81-7.25-5.58-8.13,0c0,0-2.39-6-6.42-.23a9.14,9.14,0,0,0,0,10.81s-2.28.45-1.79,10a25,25,0,0,0,6.6,15.49s.87-5.9,6,0l.61-14.58S328.27,594,339.13,588.07Z" style="fill:#000446;fill-rule:evenodd"/><circle cx="324.48" cy="598.35" r="4.12" style="fill:none;stroke:#fff;stroke-miterlimit:10"/><circle cx="335.74" cy="595.65" r="4.12" style="fill:none;stroke:#fff;stroke-miterlimit:10"/><line x1="307.65" y1="599.77" x2="320.36" y2="598.35" style="fill:none;stroke:#fff;stroke-miterlimit:10"/><line x1="328.38" y1="597.04" x2="331.68" y2="596.31" style="fill:none;stroke:#fff;stroke-miterlimit:10"/></g></g></g></svg>