<svg xmlns="http://www.w3.org/2000/svg" xmlns:xlink="http://www.w3.org/1999/xlink" viewBox="0 0 907.34 776.28"><defs><linearGradient id="linear-gradient" x1="-636.81" y1="8149.89" x2="-636.81" y2="8267.24" gradientTransform="matrix(0.99, 0.15, 0.15, -0.99, 0.86, 8360.45)" gradientUnits="userSpaceOnUse"><stop offset="0" stop-color="gray" stop-opacity="0.25"/><stop offset="0.54" stop-color="gray" stop-opacity="0.12"/><stop offset="1" stop-color="gray" stop-opacity="0.1"/></linearGradient><linearGradient id="linear-gradient-2" x1="604.04" y1="7867.55" x2="604.04" y2="7988.2" gradientTransform="matrix(0.99, -0.16, -0.16, -0.99, 826.13, 8175.33)" xlink:href="#linear-gradient"/><linearGradient id="linear-gradient-3" x1="-6775.76" y1="7984.39" x2="-6775.76" y2="8107.73" gradientTransform="translate(-6362.27 8349.53) rotate(180)" xlink:href="#linear-gradient"/></defs><g id="Layer_2" data-name="Layer 2"><g id="Layer_5" data-name="Layer 5"><g style="opacity:0.45"><rect x="377.61" y="105.96" width="568.12" height="411.18" transform="translate(254.89 919.34) rotate(-81.42)" style="fill:#4361ee"/></g><rect x="384.21" y="109.13" width="555.56" height="400.72" transform="translate(257.21 917.9) rotate(-81.42)" style="fill:#4361ee"/><rect x="655.05" y="136.75" width="17.53" height="289.21" transform="translate(286.57 895.77) rotate(-81.42)" style="fill:#e0e0e0"/><rect x="648.52" y="180.08" width="17.53" height="289.21" transform="translate(238.17 926.17) rotate(-81.42)" style="fill:#e0e0e0"/><rect x="745.29" y="78.66" width="17.53" height="148.99" transform="matrix(0.15, -0.99, 0.99, 0.15, 490.12, 875.93)" style="fill:#e0e0e0"/><rect x="738.76" y="135.14" width="17.53" height="122.7" transform="translate(441.71 906.34) rotate(-81.42)" style="fill:#4cc9f0"/><rect x="624.64" y="238.32" width="17.53" height="254.16" transform="translate(177.6 937.2) rotate(-81.42)" style="fill:#e0e0e0"/><rect x="600.77" y="296.56" width="17.53" height="219.1" transform="translate(117.02 948.24) rotate(-81.42)" style="fill:#e0e0e0"/><rect x="581.23" y="351.08" width="17.53" height="192.81" transform="translate(59.5 964.12) rotate(-81.42)" style="fill:#e0e0e0"/><rect x="600.69" y="372.04" width="17.53" height="245.39" transform="translate(29.33 1023.56) rotate(-81.42)" style="fill:#e0e0e0"/><rect x="520.5" y="478.75" width="17.53" height="96.4" transform="translate(-70.75 971.68) rotate(-81.42)" style="fill:#6c63ff"/><g style="opacity:0.5"><path d="M653.69,157.28a58.5,58.5,0,1,0-97.36,34.42V192a20.2,20.2,0,0,0,5.93,5.19l.11-.25c2.36,2.73,13.21,8.17,26.31,10.11h.3c8.3,1.26,17.53,1.15,26.09-1.94l.25-.42a20.83,20.83,0,0,0,6-2.91l.18-.65A58.42,58.42,0,0,0,653.69,157.28Z" style="fill:url(#linear-gradient)"/></g><circle cx="595.68" cy="146.36" r="56.74" style="fill:#f5f5f5"/><path d="M569.81,165.05s-13.49-.92-13.67,24a19.57,19.57,0,0,0,5.75,5l11.36-24.32Z" style="fill:#fda57d"/><path d="M613.2,171.6s13.2,3.12,6,26.94a19.51,19.51,0,0,1-7,3.11l-3.68-26.58Z" style="fill:#fda57d"/><path d="M576.42,125.24s-9.16,17.55-12.37,15.29c0,0,29.13,34,63.06,9.51a88.72,88.72,0,0,0-10.2-18.69Z" style="fill:#333"/><circle cx="598.19" cy="126.76" r="25.15" transform="matrix(0.15, -0.99, 0.99, 0.15, 383.6, 699.35)" style="fill:#333"/><path d="M612.94,171.56,569.55,165l-6.66,16.74s-3.59,7.67-1.16,11.66,28.84,16.18,50.86,8.3a22.86,22.86,0,0,0,2.76-14.37c-1.09-8.45-.49-.67-.49-.67Z" style="opacity:0.10000000149011612;isolation:isolate"/><path d="M613.52,171.65l-43.38-6.53-6.66,16.73s-3.59,7.67-1.16,11.65,28.84,16.18,50.86,8.31a22.88,22.88,0,0,0,2.76-14.38c-1.09-8.45-.49-.66-.49-.66Z" style="opacity:0.10000000149011612;isolation:isolate"/><path d="M613.2,171.6l-43.39-6.54-6.66,16.75s-3.59,7.67-1.16,11.65,28.84,16.18,50.86,8.3a23,23,0,0,0,2.76-14.37c-1.09-8.45-.49-.66-.49-.66Z" style="fill:#4cc9f0"/><path d="M585.28,152.72l17.35,2.62h0L600.27,171a7,7,0,0,1-7.95,5.86l-3.55-.53a7,7,0,0,1-5.86-8l2.36-15.66Z" style="opacity:0.10000000149011612;isolation:isolate"/><path d="M585.36,152.07l17.36,2.62h0l-2.36,15.66a7,7,0,0,1-8,5.87l-3.54-.54a7,7,0,0,1-5.87-7.94l2.36-15.67Z" style="fill:#fda57d"/><path d="M585,154.53a25.29,25.29,0,0,0,17.34,2.67l.33-2.13-17.36-2.62Z" style="opacity:0.10000000149011612;isolation:isolate"/><circle cx="597.38" cy="132.16" r="25.15" transform="translate(377.58 703.13) rotate(-81.42)" style="fill:#fda57d"/><path d="M575,119.11l47.43,7.15s-1.16-19.72-19.27-21.25S575,119.11,575,119.11Z" style="fill:#333"/><ellipse cx="573.18" cy="127.41" rx="4.39" ry="2.34" transform="translate(361.68 675.17) rotate(-81.42)" style="fill:#fda57d"/><ellipse cx="621.77" cy="134.75" rx="4.39" ry="2.34" transform="translate(395.77 729.45) rotate(-81.42)" style="fill:#fda57d"/><path d="M574.9,119.75l47.43,7.15s-1.16-19.72-19.27-21.25S574.9,119.75,574.9,119.75Z" style="opacity:0.10000000149011612;isolation:isolate"/><g style="opacity:0.17"><rect x="42.81" y="109.96" width="412.35" height="569.74" transform="translate(-59.8 44.78) rotate(-9.18)" style="fill:#4cc9f0"/></g><rect x="47.81" y="112.75" width="400.72" height="555.56" transform="translate(-59.91 45.29) rotate(-9.31)" style="fill:#4cc9f0"/><rect x="96.72" y="354.39" width="289.21" height="17.53" transform="translate(-55.57 43.83) rotate(-9.31)" style="fill:#e0e0e0"/><rect x="103.81" y="397.64" width="289.21" height="17.53" transform="translate(-62.47 45.54) rotate(-9.31)" style="fill:#e0e0e0"/><rect x="213.35" y="204.67" width="148.99" height="17.53" transform="translate(-30.74 49.38) rotate(-9.31)" style="fill:#e0e0e0"/><rect x="233.58" y="247.92" width="122.7" height="17.53" transform="translate(-37.64 51.09) rotate(-9.31)" style="fill:#4361ee"/><rect x="111.13" y="443.72" width="254.16" height="17.53" transform="translate(-70.06 44.5) rotate(-9.31)" style="fill:#e0e0e0"/><rect x="118.45" y="489.79" width="219.1" height="17.53" transform="translate(-77.65 43.45) rotate(-9.31)" style="fill:#e0e0e0"/><rect x="125.71" y="535.16" width="192.81" height="17.53" transform="translate(-85.07 43.1) rotate(-9.31)" style="fill:#e0e0e0"/><rect x="132.46" y="574.14" width="245.39" height="17.53" transform="translate(-90.94 48.96) rotate(-9.31)" style="fill:#e0e0e0"/><rect x="140.53" y="629.45" width="96.4" height="17.53" transform="translate(-100.76 38.94) rotate(-9.31)" style="fill:#4361ee"/><g style="opacity:0.5"><path d="M198.71,244.23a59.87,59.87,0,1,0-84,64.41l.08.26a20.56,20.56,0,0,0,7.4,3.18v-.28c3.15,1.93,15.43,3.83,28.81,1.59h.28c8.49-1.38,17.43-4.41,24.8-10.14a1.75,1.75,0,0,1,.1-.48,21.27,21.27,0,0,0,4.95-4.75v-.69A60.25,60.25,0,0,0,198.71,244.23Z" style="fill:url(#linear-gradient-2)"/></g><circle cx="139.65" cy="254.07" r="58.33" style="fill:#f5f5f5"/><path d="M118.42,280.68s-13.5,3.37-5.82,27.76a19.93,19.93,0,0,0,7.22,3.11l3.43-27.38Z" style="fill:#4361ee"/><path d="M162.92,273.38s13.9-1.13,14.37,24.46a19.9,19.9,0,0,1-5.85,5.19l-12-24.84Z" style="fill:#4361ee"/><circle cx="134.04" cy="234.23" r="25.85" style="fill:#333"/><path d="M162.66,273.42l-44.5,7.27-1.24,18.48s-1,8.65,2.55,11.77,33.33,6.73,52.32-8A23.51,23.51,0,0,0,170,288c-3.74-7.92-.7-.5-.7-.5Z" style="fill:#4d8af0"/><path d="M163.25,273.33l-44.5,7.26-1.24,18.49s-1,8.64,2.55,11.77,33.33,6.72,52.32-8a23.54,23.54,0,0,0-1.84-14.94c-3.74-7.92-.69-.5-.69-.5Z" style="fill:#4d8af0"/><path d="M162.92,273.38l-44.5,7.27-1.24,18.51s-1,8.65,2.54,11.77,33.34,6.73,52.33-8A23.58,23.58,0,0,0,170.21,288c-3.74-7.92-.7-.5-.7-.5Z" style="fill:#4361ee"/><path d="M129.66,263.66l17.8-2.92h0L150.13,277a7,7,0,0,1-5.77,8h0l-4,.66a7,7,0,0,1-8-5.77h0l-2.67-16.25Z" style="opacity:0.10000000149011612;isolation:isolate"/><path d="M129.56,263l17.8-2.92h0L150,276.33a7,7,0,0,1-5.76,8h0l-4,.66a7,7,0,0,1-8-5.77h0L129.54,263Z" style="fill:#fda57d"/><path d="M130,265.57a26,26,0,0,0,17.81-2.87l-.36-2.19-17.8,2.93Z" style="opacity:0.10000000149011612;isolation:isolate"/><circle cx="134.96" cy="239.77" r="25.85" style="fill:#fda57d"/><path d="M109.07,234.74l48.66-8s-7.38-19-25.56-14.7S109.07,234.74,109.07,234.74Z" style="opacity:0.10000000149011612;isolation:isolate"/><path d="M109,234.09l48.71-8s-7.38-19-25.56-14.69S109,234.09,109,234.09Z" style="fill:#333"/><ellipse cx="110.1" cy="244.29" rx="2.41" ry="4.53" transform="translate(-37.57 20.7) rotate(-9.18)" style="fill:#fda57d"/><ellipse cx="159.63" cy="234.6" rx="2.41" ry="4.51" transform="translate(-35.85 28.91) rotate(-9.31)" style="fill:#fda57d"/><g style="opacity:0.49"><rect x="293.26" y="171.79" width="411.14" height="567.83" style="fill:#f72585"/></g><rect x="298.29" y="176.1" width="400.36" height="555.61" style="fill:#fff"/><g style="opacity:0.5"><path d="M352,303.28a61.49,61.49,0,1,1,95.79,51v.27a21.1,21.1,0,0,1-7,4.45l-.08-.27c-2.88,2.47-15,6.42-28.93,6.38h-.3c-8.82,0-18.39-1.56-26.82-6.11,0,0-.07-.17-.18-.47a22.05,22.05,0,0,1-5.81-4l-.09-.69A61.43,61.43,0,0,1,352,303.28Z" style="fill:url(#linear-gradient-3)"/></g><circle cx="413.22" cy="303.01" r="59.64" style="fill:#f5f5f5"/><path d="M389.83,325.73s-14.21,1.15-10.45,27.1a20.35,20.35,0,0,0,6.77,4.31l8-27.06Z" style="fill:#be7c5e"/><path d="M435.94,325.73s14.21,1.15,10.46,27.1a20.35,20.35,0,0,1-6.77,4.31l-8-27.14Z" style="fill:#be7c5e"/><path d="M390.44,283.2s-1.09,3.18-2.64,6.87c-3.39,8.05.47,39,8.57,42.3,9.08,3.71,21,6.08,33.43,1.55,10.78-3.93,14.11-39.16,6.49-47.74-.9-1-1.83-2-2.81-3Z" style="fill:#333"/><circle cx="413.27" cy="281.46" r="26.44" style="fill:#333"/><path d="M435.67,325.61H389.56l-4.31,18.44s-2.53,8.54.62,12.3,32.51,12.3,54.1.61a24,24,0,0,0,.61-15.37c-2.46-8.6-.61-.61-.61-.61Z" style="opacity:0.10000000149011612;isolation:isolate"/><path d="M436.29,325.61H390.15l-4.31,18.44s-2.53,8.54.62,12.3,32.51,12.3,54.1.61a24.09,24.09,0,0,0,.62-15.37c-2.46-8.6-.62-.61-.62-.61Z" style="opacity:0.10000000149011612;isolation:isolate"/><path d="M435.94,325.61H389.83l-4.31,18.44s-2.53,8.54.62,12.3,32.51,12.3,54.1.61a24,24,0,0,0,.61-15.37c-2.46-8.6-.61-.61-.61-.61Z" style="fill:#f72585"/><path d="M404,310.51h18.68v16.74a7,7,0,0,1-7,7h-4.8a6.91,6.91,0,0,1-6.91-6.91h0V310.51h0Z" style="opacity:0.10000000149011612;isolation:isolate"/><path d="M404,309.79h18.68v16.74a7,7,0,0,1-7,7h-4.8A6.91,6.91,0,0,1,404,326.6h0V309.79h0Z" style="fill:#be7c5e"/><path d="M404,312.06a27.29,27.29,0,0,0,18.69,0v-2.27H404Z" style="opacity:0.10000000149011612;isolation:isolate"/><circle cx="413.27" cy="287.2" r="26.44" style="fill:#be7c5e"/><path d="M388,277.45H438.4s-4.3-20.37-23.36-19.06S388,277.45,388,277.45Z" style="fill:#333"/><ellipse cx="387.38" cy="286.07" rx="2.46" ry="4.61" style="fill:#be7c5e"/><ellipse cx="439.03" cy="286.07" rx="2.46" ry="4.61" style="fill:#be7c5e"/><path d="M388,278.17H438.4S434.1,257.8,415,259.11,388,278.17,388,278.17Z" style="opacity:0.10000000149011612;isolation:isolate"/><rect x="351.48" y="416.89" width="288.95" height="17.25" style="fill:#e0e0e0"/><rect x="351.48" y="460.74" width="288.95" height="17.25" style="fill:#e0e0e0"/><rect x="491.64" y="276.73" width="148.79" height="17.25" style="fill:#e0e0e0"/><rect x="504.58" y="320.57" width="122.91" height="17.25" style="fill:#f72585"/><rect x="351.48" y="504.58" width="254.45" height="17.25" style="fill:#e0e0e0"/><rect x="351.48" y="548.43" width="219.23" height="17.25" style="fill:#e0e0e0"/><rect x="351.48" y="592.27" width="192.63" height="17.25" style="fill:#e0e0e0"/><rect x="351.48" y="636.12" width="245.1" height="17.25" style="fill:#e0e0e0"/><rect x="351.48" y="679.96" width="96.32" height="17.25" style="fill:#f72585"/><g style="opacity:0.54"><circle cx="676.45" cy="688.69" r="87.59" style="fill:#f72585"/></g><circle cx="676.45" cy="688.69" r="82.43" style="fill:#f72585"/><polygon points="640.67 677.69 671.58 706.02 715.37 641.63 730.84 654.51 671.58 731.78 627.79 682.85 640.67 677.69" style="fill:#fff"/></g></g></svg>