<svg xmlns="http://www.w3.org/2000/svg" xmlns:xlink="http://www.w3.org/1999/xlink" viewBox="0 0 814.04 788"><defs><linearGradient id="linear-gradient" x1="-442.41" y1="2052.09" x2="-442.41" y2="2293.54" gradientTransform="matrix(1, 0, 0, -1, 564, 2300)" gradientUnits="userSpaceOnUse"><stop offset="0" stop-color="gray" stop-opacity="0.25"/><stop offset="0.54" stop-color="gray" stop-opacity="0.12"/><stop offset="1" stop-color="gray" stop-opacity="0.1"/></linearGradient><linearGradient id="linear-gradient-2" x1="-162.85" y1="1789.34" x2="-162.85" y2="2030.79" xlink:href="#linear-gradient"/><linearGradient id="linear-gradient-3" x1="-162.97" y1="2058.02" x2="-162.97" y2="2299.47" xlink:href="#linear-gradient"/><linearGradient id="linear-gradient-4" x1="124.82" y1="2058.55" x2="124.82" y2="2300" xlink:href="#linear-gradient"/><linearGradient id="linear-gradient-5" x1="-443.27" y1="1797.24" x2="-443.27" y2="2038.69" xlink:href="#linear-gradient"/><linearGradient id="linear-gradient-6" x1="129.32" y1="1783.86" x2="129.32" y2="2025.31" xlink:href="#linear-gradient"/><linearGradient id="linear-gradient-7" x1="-442.41" y1="1525.84" x2="-442.41" y2="1767.29" xlink:href="#linear-gradient"/><linearGradient id="linear-gradient-8" x1="-155.61" y1="1512" x2="-155.61" y2="1753.45" xlink:href="#linear-gradient"/></defs><g id="Layer_2" data-name="Layer 2"><g id="Layer_2-2" data-name="Layer 2"><g style="opacity:0.5"><circle cx="121.59" cy="127.18" r="120.73" style="fill:url(#linear-gradient)"/></g><circle cx="121.59" cy="126.53" r="118.17" style="fill:#f5f5f5"/><path d="M121.92,245.24a117.61,117.61,0,0,0,65-19.43C182.53,202,166,200.65,166,200.65H74.59S59,201.93,54.07,223.83A117.61,117.61,0,0,0,121.92,245.24Z" style="fill:#7209b7"/><circle cx="120.68" cy="123.92" r="52.39" style="fill:#333"/><path d="M102.14,171.46h36.49v29.28A18.24,18.24,0,0,1,120.39,219h0a18.25,18.25,0,0,1-18.24-18.28h0V171.46Z" style="opacity:0.10000000149011612;isolation:isolate"/><path d="M105.62,170h29.52a3.49,3.49,0,0,1,3.49,3.49h0v25.75a18.26,18.26,0,0,1-18.24,18.28h0a18.25,18.25,0,0,1-18.24-18.28h0V173.49A3.49,3.49,0,0,1,105.62,170Z" style="fill:#be7c5e"/><path d="M102.15,185.33a52.39,52.39,0,0,0,36.48.11V181H102.15Z" style="opacity:0.10000000149011612;isolation:isolate"/><circle cx="120.68" cy="135.3" r="52.39" style="fill:#be7c5e"/><path d="M88.94,113.69c.62-2.26,1.39-4.75,3.42-5.92,1.6-.94,3.59-.8,5.45-.7,14.48.79,28.83-2.51,42.92-6,8.05-2,16.66-4.37,21.87-10.86S161,63.37,153.09,61c-5.21-1.59-11.25,1.38-16.19-1-2.19-1-3.81-3-5.71-4.51-3.88-3.12-8.87-4.38-13.7-5.57-5.65-1.4-11.76-2.76-17.12-.52C96.2,51.13,93.16,54.78,89.21,57c-7.51,4.17-16.66,2.23-25.27,2.21-2.91,0-6.37.58-7.53,3.25-.78,1.81-.16,3.87-.07,5.84.25,6.25-4.91,11.12-9.23,15.63s-8.41,11-5.68,16.55c1,2.14,3,3.75,4,5.87,1.87,3.66.93,8.09,1.6,12.14a30.51,30.51,0,0,0,3.41,8.75c3.21,6.25,19.33,39.9,26.73,31.35,3.59-4.17,4.17-16.21,5.62-21.63Q85.82,125.24,88.94,113.69Z" style="fill:#333"/><ellipse cx="83.41" cy="133.39" rx="4.88" ry="9.14" style="fill:#be7c5e"/><g style="opacity:0.5"><circle cx="401.15" cy="389.94" r="120.73" style="fill:url(#linear-gradient-2)"/></g><circle cx="401.38" cy="389.17" r="118.17" style="fill:#f5f5f5"/><path d="M401.48,507.91a117.59,117.59,0,0,0,64.92-19.44c-4.35-23.79-20.93-25.16-20.93-25.16H354.13s-15.62,1.29-20.52,23.18A117.61,117.61,0,0,0,401.48,507.91Z" style="fill:#3a0ca3"/><circle cx="400.23" cy="386.68" r="57.04" style="fill:#f55f44"/><path d="M381.59,434.13h36.49v29.24a18.26,18.26,0,0,1-18.24,18.27h0a18.25,18.25,0,0,1-18.24-18.27h0V434.13Z" style="opacity:0.10000000149011612;isolation:isolate"/><path d="M385.07,432.67h29.52a3.49,3.49,0,0,1,3.49,3.49h0v25.75a18.26,18.26,0,0,1-18.24,18.27h0a18.25,18.25,0,0,1-18.24-18.27h0V436.16a3.48,3.48,0,0,1,3.48-3.49h0Z" style="fill:#fda57d"/><path d="M381.6,448a52.39,52.39,0,0,0,36.48.1v-4.49H381.6Z" style="opacity:0.10000000149011612;isolation:isolate"/><circle cx="400.23" cy="398.05" r="52.39" style="fill:#fda57d"/><circle cx="400.16" cy="328.65" r="21.08" style="fill:#f55f44"/><circle cx="400.16" cy="307.89" r="13.84" style="fill:#f55f44"/><path d="M391,340.22a21.08,21.08,0,0,1-11-27c-.15.29-.29.59-.43.89a21.09,21.09,0,0,0,38.48,17.26c.14-.3.26-.6.39-.91A21.09,21.09,0,0,1,391,340.22Z" style="fill:#f55f44"/><path d="M362.93,350.4S385,395.2,447.3,369.15l-14.5-22.74-25.7-9.23Z" style="opacity:0.10000000149011612;isolation:isolate"/><path d="M362.93,349.74S385,394.53,447.3,368.49l-14.5-22.74-25.7-9.23Z" style="fill:#f55f44"/><path d="M379.94,333.42a262.26,262.26,0,0,1,40.81,0S390.6,336.23,379.94,333.42Z" style="fill:#333"/><path d="M403.32,294a3.87,3.87,0,0,0-3.12-.73h.8a14,14,0,0,1,13.39,14.4,13.85,13.85,0,0,1-11.31,13.16,13.84,13.84,0,0,0,14-13.71c.07-7.64-6.07-13.89-13.71-13.12Z" style="fill:#f55f44"/><ellipse cx="347.83" cy="398" rx="4.88" ry="9.14" style="fill:#fda57d"/><ellipse cx="452.62" cy="398" rx="4.88" ry="9.14" style="fill:#fda57d"/><polygon points="359.62 351.06 369.84 345.79 372.14 354.24 365.88 358.5 359.62 351.06" style="fill:#f55f44"/><g style="opacity:0.5"><circle cx="401.03" cy="121.26" r="120.73" style="fill:url(#linear-gradient-3)"/></g><circle cx="401.03" cy="120.6" r="118.17" style="fill:#f5f5f5"/><path d="M354.94,121.85s-13.4,66-20.71,62.35c0,0,70.52,60.92,132.79,0,0,0-11-46.52-26.8-62.35Z" style="fill:#333"/><path d="M401.36,239.41a117.67,117.67,0,0,0,65-19.44c-4.36-23.79-20.93-25.16-20.93-25.16H354S338.39,196.09,333.5,218A117.58,117.58,0,0,0,401.36,239.41Z" style="fill:#3a0ca3"/><circle cx="400.11" cy="118" r="52.39" style="fill:#333"/><path d="M381.55,165.63h36.53v29.24a18.27,18.27,0,0,1-18.23,18.27h0a18.26,18.26,0,0,1-18.25-18.27V165.63Z" style="opacity:0.10000000149011612;isolation:isolate"/><path d="M385,164.17h29.55a3.49,3.49,0,0,1,3.49,3.49h0v25.75a18.27,18.27,0,0,1-18.23,18.27h0a18.26,18.26,0,0,1-18.25-18.27h0V167.65A3.48,3.48,0,0,1,385,164.17Z" style="fill:#be7c5e"/><path d="M381.6,179.5a52.39,52.39,0,0,0,36.48.1v-4.49H381.6Z" style="opacity:0.10000000149011612;isolation:isolate"/><circle cx="400.11" cy="129.36" r="52.39" style="fill:#be7c5e"/><path d="M350,109.44h99.9s-8.53-40.33-46.29-37.76S350,109.44,350,109.44Z" style="fill:#333"/><ellipse cx="348.81" cy="127.13" rx="4.88" ry="9.14" style="fill:#be7c5e"/><ellipse cx="451.15" cy="127.13" rx="4.88" ry="9.14" style="fill:#be7c5e"/><path d="M350,110.9h99.9s-8.53-40.33-46.29-37.76S350,110.9,350,110.9Z" style="opacity:0.10000000149011612;isolation:isolate"/><g style="opacity:0.5"><circle cx="688.82" cy="120.73" r="120.73" style="fill:url(#linear-gradient-4)"/></g><circle cx="689.05" cy="119.94" r="118.17" style="fill:#f5f5f5"/><path d="M689.15,238.69a117.56,117.56,0,0,0,65-19.44c-4.36-23.8-20.93-25.17-20.93-25.17H641.82s-15.63,1.28-20.53,23.18A117.66,117.66,0,0,0,689.15,238.69Z" style="fill:#7209b7"/><circle cx="687.91" cy="117.45" r="57.04" style="fill:#72351c"/><path d="M669.79,164.9h36.49v29.16a18.22,18.22,0,0,1-18.21,18.26h0A18.23,18.23,0,0,1,669.8,194.1V164.9Z" style="opacity:0.10000000149011612;isolation:isolate"/><path d="M673.27,163.44h29.52a3.49,3.49,0,0,1,3.49,3.49v25.75A18.26,18.26,0,0,1,688,211h0a18.26,18.26,0,0,1-18.24-18.27V166.93a3.48,3.48,0,0,1,3.48-3.49Z" style="fill:#fda57d"/><path d="M669.8,178.77a52.39,52.39,0,0,0,36.48.1v-4.49H669.8Z" style="opacity:0.10000000149011612;isolation:isolate"/><circle cx="687.91" cy="128.83" r="52.39" style="fill:#fda57d"/><path d="M650.6,81.18S672.67,126,735,99.93l-14.5-22.74L694.78,68Z" style="opacity:0.10000000149011612;isolation:isolate"/><path d="M650.6,80.53S672.67,125.32,735,99.28l-14.5-22.74-25.7-9.23Z" style="fill:#72351c"/><path d="M650.4,77.49a30.25,30.25,0,0,1,7.5-12.19c10.3-10.19,27.2-12.34,35.87-24a6.78,6.78,0,0,1-2.52,9.25c-.2.11-.4.22-.61.31,8.33,0,17.93-.78,22.62-7.62a15.54,15.54,0,0,1-2.62,16.4C718,60,725.85,65,726.33,72.36c.31,4.89-2.75,9.53-6.78,12.34s-8.89,4.08-13.68,5.12C691.89,92.94,641.27,105.87,650.4,77.49Z" style="fill:#72351c"/><path d="M740.3,129.14h-1.39l-27,24.08c-26-12.19-45.15,0-45.15,0l-28.33-23.07-2.86.36a52.39,52.39,0,0,0,104.76-1.34Zm-52.46,33.57c-10.19,0-18.45-2.09-18.45-4.62s8.26-4.61,18.45-4.61,18.45,2.08,18.45,4.61-8.26,4.62-18.46,4.62Z" style="fill:#72351c"/><ellipse cx="635.5" cy="128.78" rx="4.88" ry="9.14" style="fill:#fda57d"/><ellipse cx="740.29" cy="128.78" rx="4.88" ry="9.14" style="fill:#fda57d"/><g style="opacity:0.5"><circle cx="120.73" cy="382.03" r="120.73" style="fill:url(#linear-gradient-5)"/></g><circle cx="120.95" cy="381.26" r="118.17" style="fill:#f5f5f5"/><path d="M121.06,499.88A117.6,117.6,0,0,0,186,480.45c-4.35-23.8-20.93-25.16-20.93-25.16H73.67S58,456.57,53.15,478.47A117.63,117.63,0,0,0,121.06,499.88Z" style="fill:#4cc9f0"/><circle cx="119.81" cy="378.77" r="57.04" style="fill:#333"/><path d="M101.41,426.1H137.9v29.28a18.24,18.24,0,0,1-18.24,18.24h0a18.26,18.26,0,0,1-18.24-18.28h0V426.1Z" style="opacity:0.10000000149011612;isolation:isolate"/><path d="M105.07,424.64h29.35a3.49,3.49,0,0,1,3.48,3.49h0v25.81a18.24,18.24,0,0,1-18.24,18.24h0a18.25,18.25,0,0,1-18.24-18.26h0V428.12a3.49,3.49,0,0,1,3.49-3.49h.16Z" style="fill:#fdb797"/><path d="M101.42,440a52.39,52.39,0,0,0,36.48.1v-4.52H101.42Z" style="opacity:0.10000000149011612;isolation:isolate"/><circle cx="119.81" cy="390.15" r="52.39" style="fill:#fdb797"/><path d="M82.5,342.49s22.08,44.79,84.38,18.75l-14.5-22.74-25.7-9.23Z" style="opacity:0.10000000149011612;isolation:isolate"/><path d="M82.5,341.83s22.08,44.79,84.38,18.75l-14.5-22.74-25.7-9.23Z" style="fill:#333"/><path d="M82.31,338.79a30.18,30.18,0,0,1,7.5-12.2c10.3-10.19,27.2-12.33,35.86-24a6.79,6.79,0,0,1-2.51,9.26c-.2.11-.4.21-.61.3,8.33-.05,17.93-.78,22.61-7.61a15.55,15.55,0,0,1-2.61,16.4c7.35.33,15.21,5.32,15.69,12.67.31,4.9-2.75,9.53-6.78,12.35s-8.9,4.09-13.69,5.15C123.79,354.26,73.18,367.19,82.31,338.79Z" style="fill:#333"/><ellipse cx="67.4" cy="390.09" rx="4.88" ry="9.14" style="fill:#fdb797"/><ellipse cx="172.19" cy="390.09" rx="4.88" ry="9.14" style="fill:#fdb797"/><g style="opacity:0.5"><circle cx="693.32" cy="395.42" r="120.73" style="fill:url(#linear-gradient-6)"/></g><circle cx="693.32" cy="394.76" r="118.17" style="fill:#f5f5f5"/><path d="M693.65,513a117.56,117.56,0,0,0,65-19.44c-4.35-23.79-20.93-25.16-20.93-25.16H646.31s-15.63,1.28-20.53,23.18A117.61,117.61,0,0,0,693.65,513Z" style="fill:#f72585"/><path d="M674.18,440h36.48v29.24a18.26,18.26,0,0,1-18.24,18.27h0a18.24,18.24,0,0,1-18.24-18.26h0V440Z" style="opacity:0.10000000149011612;isolation:isolate"/><path d="M677.66,438.51h29.51a3.49,3.49,0,0,1,3.49,3.49v25.75A18.26,18.26,0,0,1,692.42,486h0a18.24,18.24,0,0,1-18.24-18.26h0V442a3.48,3.48,0,0,1,3.48-3.49Z" style="fill:#fdb797"/><path d="M674.18,453.11a52.39,52.39,0,0,0,36.48.1v-4.49H674.18Z" style="opacity:0.10000000149011612;isolation:isolate"/><circle cx="692.4" cy="403.53" r="52.39" style="fill:#fdb797"/><ellipse cx="641.1" cy="401.29" rx="4.88" ry="9.14" style="fill:#fdb797"/><ellipse cx="743.44" cy="401.29" rx="4.88" ry="9.14" style="fill:#fdb797"/><rect x="660.31" y="404.21" width="22.62" height="10.94" rx="4.53" style="fill:none;stroke:#333;stroke-miterlimit:10;stroke-width:2px"/><rect x="701.9" y="404.21" width="22.62" height="10.94" rx="4.53" style="fill:none;stroke:#333;stroke-miterlimit:10;stroke-width:2px"/><path d="M682,404.87s7.1-3.86,20.31,0" style="fill:none;stroke:#333;stroke-miterlimit:10;stroke-width:2px"/><path d="M728.62,365.56l12.86,29.87S757.2,375.61,728.62,365.56Z" style="fill:#858585"/><line x1="724.33" y1="409.39" x2="743.52" y2="392.25" style="fill:none;stroke:#333;stroke-linecap:round;stroke-linejoin:round;stroke-width:2px"/><path d="M656.2,365.56l-12.85,29.87S627.63,375.61,656.2,365.56Z" style="fill:#858585"/><line x1="660.48" y1="409.39" x2="641.03" y2="392.25" style="fill:none;stroke:#333;stroke-linecap:round;stroke-linejoin:round;stroke-width:2px"/><g style="opacity:0.5"><circle cx="121.59" cy="653.43" r="120.73" style="fill:url(#linear-gradient-7)"/></g><circle cx="121.59" cy="652.77" r="118.17" style="fill:#f5f5f5"/><path d="M187,663.4c0,43.52-28.4,92-63.43,92s-63.4-48.45-63.4-92,28.4-65.63,63.43-65.63S187,619.89,187,663.4Z" style="fill:#fdd835"/><path d="M121.92,771.31a117.62,117.62,0,0,0,65-19.44C182.53,728.08,166,726.71,166,726.71H74.59S59,728,54.07,749.89A117.69,117.69,0,0,0,121.92,771.31Z" style="fill:#4361ee"/><path d="M102.14,697.53h36.49v29.24A18.26,18.26,0,0,1,120.39,745h0a18.25,18.25,0,0,1-18.24-18.27V697.53Z" style="opacity:0.10000000149011612;isolation:isolate"/><path d="M105.62,696.07h29.52a3.49,3.49,0,0,1,3.49,3.49v25.75a18.26,18.26,0,0,1-18.24,18.27h0a18.25,18.25,0,0,1-18.24-18.27V699.56A3.48,3.48,0,0,1,105.62,696.07Z" style="fill:#fdb797"/><path d="M102.15,711.4a52.39,52.39,0,0,0,36.48.1V707H102.15Z" style="opacity:0.10000000149011612;isolation:isolate"/><circle cx="120.68" cy="661.55" r="52.39" style="fill:#fdb797"/><ellipse cx="69.38" cy="659.31" rx="4.88" ry="9.14" style="fill:#fdb797"/><ellipse cx="171.72" cy="659.31" rx="4.88" ry="9.14" style="fill:#fdb797"/><path d="M74.26,633.13s29.62,40.53,97.54,26.69c0,0,7.58-9.23-10.87-37.57S91.07,598.53,74.26,633.13Z" style="opacity:0.10000000149011612;isolation:isolate"/><path d="M74.26,632.47S103.88,673,171.8,659.16c0,0,7.58-9.23-10.87-37.56S91.07,597.88,74.26,632.47Z" style="fill:#fdd835"/><g style="opacity:0.5"><circle cx="408.39" cy="667.27" r="120.73" style="fill:url(#linear-gradient-8)"/></g><circle cx="408.63" cy="666.5" r="118.17" style="fill:#f5f5f5"/><path d="M473.64,678.15c0,39.32-28.24,58.66-64.92,58.66s-67.88-19.34-67.88-58.66S370.57,607,407.24,607,473.64,638.8,473.64,678.15Z" style="fill:#333"/><path d="M408.72,785.17a117.59,117.59,0,0,0,65-19.44c-4.35-23.79-20.93-25.16-20.93-25.16H361.38s-15.62,1.29-20.52,23.18A117.58,117.58,0,0,0,408.72,785.17Z" style="fill:#4cc9f0"/><path d="M388.92,711.39h36.45v29.17a18.21,18.21,0,0,1-18.18,18.25h-.08a18.22,18.22,0,0,1-18.22-18.22v-29.2Z" style="opacity:0.10000000149011612;isolation:isolate"/><path d="M392.39,709.93h29.5a3.48,3.48,0,0,1,3.48,3.49V739.1a18.26,18.26,0,0,1-18.25,18.26h0a18.24,18.24,0,0,1-18.23-18.24V713.4a3.48,3.48,0,0,1,3.48-3.48Z" style="fill:#fda57d"/><path d="M388.89,725.26a52.39,52.39,0,0,0,36.48.1v-4.49H388.89Z" style="opacity:0.10000000149011612;isolation:isolate"/><circle cx="407.48" cy="675.38" r="52.39" style="fill:#fda57d"/><path d="M347.1,678.81s32.63-4,57.3-35.59c0,0,32.62,35.92,55.35,32,0,0,13.18-13.84,0-27.68s-23.39-31.3-40.85-29S380,621.79,370.79,630,347.1,678.81,347.1,678.81Z" style="opacity:0.10000000149011612;isolation:isolate"/><path d="M347.1,678.15s32.63-4,57.3-35.58c0,0,32.62,35.91,55.35,32,0,0,13.18-13.85,0-27.68s-23.39-31.31-40.85-29-38.85,3.25-48.07,11.58S347.1,678.15,347.1,678.15Z" style="fill:#333"/><ellipse cx="355.07" cy="675.34" rx="4.88" ry="9.14" style="fill:#fda57d"/><ellipse cx="459.86" cy="675.34" rx="4.88" ry="9.14" style="fill:#fda57d"/></g></g></svg>