<?xml version="1.0" standalone="no"?>
<!DOCTYPE svg PUBLIC "-//W3C//DTD SVG 20010904//EN"
 "http://www.w3.org/TR/2001/REC-SVG-20010904/DTD/svg10.dtd">
<svg version="1.0" xmlns="http://www.w3.org/2000/svg"
 width="166.000000pt" height="166.000000pt" viewBox="0 0 166.000000 166.000000"
 preserveAspectRatio="xMidYMid meet">
<metadata>
Created by potrace 1.11, written by Peter Selinger 2001-2013
</metadata>
<g transform="translate(0.000000,166.000000) scale(0.100000,-0.100000)"
fill="#000000" stroke="none">
<path d="M644 1636 c-268 -61 -504 -275 -595 -539 -151 -437 93 -920 534
-1056 501 -154 1013 183 1068 702 27 254 -56 482 -241 667 -106 106 -193 161
-325 206 -70 24 -98 28 -230 30 -103 3 -169 -1 -211 -10z m-64 -475 l0 -140
46 21 c35 15 61 19 105 16 80 -6 129 -40 166 -115 l28 -58 3 -262 3 -263 -130
0 -131 0 -1 183 c-2 215 -5 241 -37 245 -49 7 -52 -5 -52 -229 l0 -209 -130 0
-130 0 0 475 0 475 130 0 130 0 0 -139z m780 -256 l0 -136 -32 6 c-22 4 -40 1
-53 -9 -19 -13 -20 -29 -25 -213 l-5 -198 -128 -3 -128 -3 3 238 c3 224 4 241
26 288 51 111 138 165 265 165 l77 0 0 -135z"/>
</g>
</svg>
